M48
; DRILL file {KiCad (5.1.4)-1} date 2020-11-23 10:31:51 PM
; FORMAT={-:-/ absolute / inch / decimal}
; #@! TF.CreationDate,2020-11-23T22:31:51-05:00
; #@! TF.GenerationSoftware,Kicad,Pcbnew,(5.1.4)-1
; #@! TF.FileFunction,Plated,1,2,PTH
FMAT,2
INCH
T1C0.0390
T2C0.0394
T3C0.0430
T4C0.0579
%
G90
G05
T1
X4.5687Y-2.5688
X4.5687Y-2.8687
X3.8438Y-4.5375
X3.8438Y-4.8375
X4.6937Y-2.25
X4.9937Y-2.25
X4.5312Y-4.5375
X4.5312Y-4.8375
X3.8438Y-1.9437
X3.8438Y-2.2437
X4.5625Y-1.9437
X4.5625Y-2.2437
X4.6937Y-3.7812
X4.9937Y-3.7812
X4.6937Y-2.6875
X4.9937Y-2.6875
X3.0938Y-3.7875
X3.0938Y-4.0875
X2.3438Y-4.5375
X2.3438Y-4.8375
X3.0938Y-3.0375
X3.0938Y-3.3375
X3.0938Y-1.9437
X3.0938Y-2.2437
X3.8438Y-3.0375
X3.8438Y-3.3375
X3.875Y-2.5688
X3.875Y-2.8687
X3.125Y-2.5688
X3.125Y-2.8687
X4.5625Y-3.7875
X4.5625Y-4.0875
X4.5625Y-3.0375
X4.5625Y-3.3375
X3.8438Y-3.7875
X3.8438Y-4.0875
X3.0938Y-4.5375
X3.0938Y-4.8375
T2
X1.8703Y-4.5485
X1.8703Y-5.1193
X1.9688Y-4.5485
X2.0672Y-4.5485
X2.0672Y-5.1193
T3
X1.6598Y-1.6687
X1.6598Y-1.8687
X1.6598Y-2.0688
X1.6598Y-2.2687
X1.6598Y-2.4688
X1.6598Y-2.6687
X1.6777Y-1.7688
X1.6777Y-1.9688
X1.6777Y-2.1687
X1.6777Y-2.3687
X1.6777Y-2.5688
X1.6777Y-2.7687
X2.2597Y-1.7688
X2.2597Y-1.9688
X2.2597Y-2.1687
X2.2597Y-2.3687
X2.2597Y-2.5688
X2.2597Y-2.7687
X2.2778Y-1.6687
X2.2778Y-1.8687
X2.2778Y-2.0688
X2.2778Y-2.2687
X2.2778Y-2.4688
X2.2778Y-2.6687
T4
X4.0687Y-4.0562
X4.1203Y-3.9988
X4.3172Y-3.9791
X4.3187Y-3.9562
X3.3188Y-3.3062
X3.3703Y-3.2488
X3.5672Y-3.2291
X3.5688Y-3.2062
X4.8187Y-1.8062
X4.8703Y-1.7488
X5.0672Y-1.7291
X5.0687Y-1.7063
X4.0687Y-1.8062
X4.1203Y-1.7488
X4.3172Y-1.7291
X4.3187Y-1.7063
X2.5688Y-1.8062
X2.6203Y-1.7488
X2.8172Y-1.7291
X2.8188Y-1.7063
X3.3188Y-4.8062
X3.3703Y-4.7488
X3.5672Y-4.7291
X3.5688Y-4.7062
X2.5688Y-3.3062
X2.6203Y-3.2488
X2.8172Y-3.2291
X2.8188Y-3.2062
X4.7687Y-4.4312
X4.7916Y-4.4328
X4.8113Y-4.6297
X4.8687Y-4.6812
X3.3188Y-2.5562
X3.3703Y-2.4988
X3.5672Y-2.4791
X3.5688Y-2.4562
X4.7687Y-2.9312
X4.7916Y-2.9328
X4.8113Y-3.1297
X4.8687Y-3.1812
X4.0687Y-2.5562
X4.1203Y-2.4988
X4.3172Y-2.4791
X4.3187Y-2.4562
X3.3188Y-4.0562
X3.3703Y-3.9988
X3.5672Y-3.9791
X3.5688Y-3.9562
X2.5688Y-4.0562
X2.6203Y-3.9988
X2.8172Y-3.9791
X2.8188Y-3.9562
X2.5688Y-2.5562
X2.6203Y-2.4988
X2.8172Y-2.4791
X2.8188Y-2.4562
X4.0687Y-4.8062
X4.1203Y-4.7488
X4.3172Y-4.7291
X4.3187Y-4.7062
X2.5688Y-4.8062
X2.6203Y-4.7488
X2.8172Y-4.7291
X2.8188Y-4.7062
X3.3188Y-1.8062
X3.3703Y-1.7488
X3.5672Y-1.7291
X3.5688Y-1.7063
X4.0687Y-3.3062
X4.1203Y-3.2488
X4.3172Y-3.2291
X4.3187Y-3.2062
T0
M30
