G04 #@! TF.GenerationSoftware,KiCad,Pcbnew,(5.1.4)-1*
G04 #@! TF.CreationDate,2020-11-23T22:31:48-05:00*
G04 #@! TF.ProjectId,Knomberpad,4b6e6f6d-6265-4727-9061-642e6b696361,rev?*
G04 #@! TF.SameCoordinates,Original*
G04 #@! TF.FileFunction,Copper,L2,Bot*
G04 #@! TF.FilePolarity,Positive*
%FSLAX46Y46*%
G04 Gerber Fmt 4.6, Leading zero omitted, Abs format (unit mm)*
G04 Created by KiCad (PCBNEW (5.1.4)-1) date 2020-11-23 22:31:48*
%MOMM*%
%LPD*%
G04 APERTURE LIST*
%ADD10C,1.651000*%
%ADD11R,1.651000X1.651000*%
%ADD12C,2.250000*%
%ADD13C,2.250000*%
%ADD14C,1.752600*%
%ADD15R,1.752600X1.752600*%
%ADD16C,2.000000*%
%ADD17R,2.000000X3.200000*%
%ADD18R,2.000000X2.000000*%
%ADD19C,0.250000*%
G04 APERTURE END LIST*
D10*
X59531250Y-122872500D03*
D11*
X59531250Y-115252500D03*
X115093750Y-115252500D03*
D10*
X115093750Y-122872500D03*
D11*
X97631250Y-115252500D03*
D10*
X97631250Y-122872500D03*
D11*
X78581250Y-115252500D03*
D10*
X78581250Y-122872500D03*
D11*
X119221250Y-96043750D03*
D10*
X126841250Y-96043750D03*
D11*
X115887500Y-96202500D03*
D10*
X115887500Y-103822500D03*
D11*
X97631250Y-96202500D03*
D10*
X97631250Y-103822500D03*
D11*
X78581250Y-96202500D03*
D10*
X78581250Y-103822500D03*
D11*
X119221250Y-68262500D03*
D10*
X126841250Y-68262500D03*
D11*
X115887500Y-77152500D03*
D10*
X115887500Y-84772500D03*
D11*
X97631250Y-77152500D03*
D10*
X97631250Y-84772500D03*
D11*
X78581250Y-77152500D03*
D10*
X78581250Y-84772500D03*
D11*
X116046250Y-72866250D03*
D10*
X116046250Y-65246250D03*
D11*
X98425000Y-72866250D03*
D10*
X98425000Y-65246250D03*
D11*
X79375000Y-72866250D03*
D10*
X79375000Y-65246250D03*
D11*
X119221250Y-57150000D03*
D10*
X126841250Y-57150000D03*
D11*
X115887500Y-56991250D03*
D10*
X115887500Y-49371250D03*
D11*
X97631250Y-56991250D03*
D10*
X97631250Y-49371250D03*
D11*
X78581250Y-56991250D03*
D10*
X78581250Y-49371250D03*
D12*
X121416250Y-112573750D03*
D13*
X121706250Y-112593750D02*
X121126250Y-112553750D01*
D12*
X121126250Y-112553750D03*
X122936250Y-118248749D03*
D13*
X123666250Y-118903750D02*
X122206250Y-117593748D01*
D12*
X122206250Y-117593750D03*
X121416250Y-74473750D03*
D13*
X121706250Y-74493750D02*
X121126250Y-74453750D01*
D12*
X121126250Y-74453750D03*
X122936250Y-80148749D03*
D13*
X123666250Y-80803750D02*
X122206250Y-79493748D01*
D12*
X122206250Y-79493750D03*
D14*
X57854850Y-42386250D03*
X42614850Y-70326250D03*
X57397650Y-44926250D03*
X57854850Y-47466250D03*
X57397650Y-50006250D03*
X57854850Y-52546250D03*
X57397650Y-55086250D03*
X57854850Y-57626250D03*
X57397650Y-60166250D03*
X57854850Y-62706250D03*
X57397650Y-65246250D03*
X57854850Y-67786250D03*
X57397650Y-70326250D03*
X42157650Y-67786250D03*
X42614850Y-65246250D03*
X42157650Y-62706250D03*
X42614850Y-60166250D03*
X42157650Y-57626250D03*
X42614850Y-55086250D03*
X42157650Y-52546250D03*
X42614850Y-50006250D03*
X42157650Y-47466250D03*
X42614850Y-44926250D03*
D15*
X42157650Y-42386250D03*
D16*
X47506250Y-130031250D03*
X52506250Y-130031250D03*
D17*
X44406250Y-123031250D03*
X55606250Y-123031250D03*
D16*
X47506250Y-115531250D03*
X50006250Y-115531250D03*
D18*
X52506250Y-115531250D03*
D12*
X109676250Y-119828750D03*
D13*
X109656250Y-120118750D02*
X109696250Y-119538750D01*
D12*
X109696250Y-119538750D03*
X104001251Y-121348750D03*
D13*
X103346250Y-122078750D02*
X104656252Y-120618750D01*
D12*
X104656250Y-120618750D03*
X90626250Y-119828750D03*
D13*
X90606250Y-120118750D02*
X90646250Y-119538750D01*
D12*
X90646250Y-119538750D03*
X84951251Y-121348750D03*
D13*
X84296250Y-122078750D02*
X85606252Y-120618750D01*
D12*
X85606250Y-120618750D03*
X71576250Y-119828750D03*
D13*
X71556250Y-120118750D02*
X71596250Y-119538750D01*
D12*
X71596250Y-119538750D03*
X65901251Y-121348750D03*
D13*
X65246250Y-122078750D02*
X66556252Y-120618750D01*
D12*
X66556250Y-120618750D03*
X109676250Y-100778750D03*
D13*
X109656250Y-101068750D02*
X109696250Y-100488750D01*
D12*
X109696250Y-100488750D03*
X104001251Y-102298750D03*
D13*
X103346250Y-103028750D02*
X104656252Y-101568750D01*
D12*
X104656250Y-101568750D03*
X90626250Y-100778750D03*
D13*
X90606250Y-101068750D02*
X90646250Y-100488750D01*
D12*
X90646250Y-100488750D03*
X84951251Y-102298750D03*
D13*
X84296250Y-103028750D02*
X85606252Y-101568750D01*
D12*
X85606250Y-101568750D03*
X71576250Y-100778750D03*
D13*
X71556250Y-101068750D02*
X71596250Y-100488750D01*
D12*
X71596250Y-100488750D03*
X65901251Y-102298750D03*
D13*
X65246250Y-103028750D02*
X66556252Y-101568750D01*
D12*
X66556250Y-101568750D03*
X109676250Y-81728750D03*
D13*
X109656250Y-82018750D02*
X109696250Y-81438750D01*
D12*
X109696250Y-81438750D03*
X104001251Y-83248750D03*
D13*
X103346250Y-83978750D02*
X104656252Y-82518750D01*
D12*
X104656250Y-82518750D03*
X90626250Y-81728750D03*
D13*
X90606250Y-82018750D02*
X90646250Y-81438750D01*
D12*
X90646250Y-81438750D03*
X84951251Y-83248750D03*
D13*
X84296250Y-83978750D02*
X85606252Y-82518750D01*
D12*
X85606250Y-82518750D03*
X71576250Y-81728750D03*
D13*
X71556250Y-82018750D02*
X71596250Y-81438750D01*
D12*
X71596250Y-81438750D03*
X65901251Y-83248750D03*
D13*
X65246250Y-83978750D02*
X66556252Y-82518750D01*
D12*
X66556250Y-82518750D03*
X109676250Y-62678750D03*
D13*
X109656250Y-62968750D02*
X109696250Y-62388750D01*
D12*
X109696250Y-62388750D03*
X104001251Y-64198750D03*
D13*
X103346250Y-64928750D02*
X104656252Y-63468750D01*
D12*
X104656250Y-63468750D03*
X90626250Y-62678750D03*
D13*
X90606250Y-62968750D02*
X90646250Y-62388750D01*
D12*
X90646250Y-62388750D03*
X84951251Y-64198750D03*
D13*
X84296250Y-64928750D02*
X85606252Y-63468750D01*
D12*
X85606250Y-63468750D03*
X71576250Y-62678750D03*
D13*
X71556250Y-62968750D02*
X71596250Y-62388750D01*
D12*
X71596250Y-62388750D03*
X65901251Y-64198750D03*
D13*
X65246250Y-64928750D02*
X66556252Y-63468750D01*
D12*
X66556250Y-63468750D03*
X128726250Y-43628750D03*
D13*
X128706250Y-43918750D02*
X128746250Y-43338750D01*
D12*
X128746250Y-43338750D03*
X123051251Y-45148750D03*
D13*
X122396250Y-45878750D02*
X123706252Y-44418750D01*
D12*
X123706250Y-44418750D03*
X109676250Y-43628750D03*
D13*
X109656250Y-43918750D02*
X109696250Y-43338750D01*
D12*
X109696250Y-43338750D03*
X104001251Y-45148750D03*
D13*
X103346250Y-45878750D02*
X104656252Y-44418750D01*
D12*
X104656250Y-44418750D03*
X90626250Y-43628750D03*
D13*
X90606250Y-43918750D02*
X90646250Y-43338750D01*
D12*
X90646250Y-43338750D03*
X84951251Y-45148750D03*
D13*
X84296250Y-45878750D02*
X85606252Y-44418750D01*
D12*
X85606250Y-44418750D03*
X71576250Y-43628750D03*
D13*
X71556250Y-43918750D02*
X71596250Y-43338750D01*
D12*
X71596250Y-43338750D03*
X65901251Y-45148750D03*
D13*
X65246250Y-45878750D02*
X66556252Y-44418750D01*
D12*
X66556250Y-44418750D03*
D19*
X71556250Y-43918750D02*
X72246250Y-44608750D01*
X73128750Y-43918750D02*
X78581250Y-49371250D01*
X71556250Y-43918750D02*
X73128750Y-43918750D01*
X58489850Y-56991250D02*
X57854850Y-57626250D01*
X78581250Y-56991250D02*
X58489850Y-56991250D01*
X97631250Y-56991250D02*
X78581250Y-56991250D01*
X115887500Y-56991250D02*
X97631250Y-56991250D01*
X116046250Y-57150000D02*
X115887500Y-56991250D01*
X119221250Y-57150000D02*
X116046250Y-57150000D01*
X90606250Y-43918750D02*
X91296250Y-44608750D01*
X92178750Y-43918750D02*
X97631250Y-49371250D01*
X90606250Y-43918750D02*
X92178750Y-43918750D01*
X109656250Y-43918750D02*
X110346250Y-44608750D01*
X110435000Y-43918750D02*
X115887500Y-49371250D01*
X109656250Y-43918750D02*
X110435000Y-43918750D01*
X128706250Y-43918750D02*
X129222500Y-44435000D01*
X129381250Y-54610000D02*
X126841250Y-57150000D01*
X128706250Y-43918750D02*
X129381250Y-44593750D01*
X129381250Y-44593750D02*
X129381250Y-54610000D01*
X77097500Y-62968750D02*
X79375000Y-65246250D01*
X71556250Y-62968750D02*
X77097500Y-62968750D01*
X117121750Y-72866250D02*
X116046250Y-72866250D01*
X119221250Y-70766750D02*
X117121750Y-72866250D01*
X119221250Y-68262500D02*
X119221250Y-70766750D01*
X116046250Y-72866250D02*
X98425000Y-72866250D01*
X98425000Y-72866250D02*
X79375000Y-72866250D01*
X65017650Y-72866250D02*
X57397650Y-65246250D01*
X79375000Y-72866250D02*
X65017650Y-72866250D01*
X96147500Y-62968750D02*
X98425000Y-65246250D01*
X90606250Y-62968750D02*
X96147500Y-62968750D01*
X113768750Y-62968750D02*
X116046250Y-65246250D01*
X109656250Y-62968750D02*
X113768750Y-62968750D01*
X121706250Y-73397500D02*
X126841250Y-68262500D01*
X121706250Y-74493750D02*
X121706250Y-73397500D01*
X115887500Y-77152500D02*
X97631250Y-77152500D01*
X97631250Y-77152500D02*
X78581250Y-77152500D01*
X67221100Y-77152500D02*
X57854850Y-67786250D01*
X78581250Y-77152500D02*
X67221100Y-77152500D01*
X75827500Y-82018750D02*
X78581250Y-84772500D01*
X71556250Y-82018750D02*
X75827500Y-82018750D01*
X94877500Y-82018750D02*
X97631250Y-84772500D01*
X90606250Y-82018750D02*
X94877500Y-82018750D01*
X113133750Y-82018750D02*
X115887500Y-84772500D01*
X109656250Y-82018750D02*
X113133750Y-82018750D01*
X75827500Y-101068750D02*
X78581250Y-103822500D01*
X71556250Y-101068750D02*
X75827500Y-101068750D01*
X116046250Y-96043750D02*
X115887500Y-96202500D01*
X119221250Y-96043750D02*
X116046250Y-96043750D01*
X115887500Y-96202500D02*
X97631250Y-96202500D01*
X97631250Y-96202500D02*
X78581250Y-96202500D01*
X72354250Y-85282850D02*
X57397650Y-70326250D01*
X72354250Y-88900000D02*
X72354250Y-85282850D01*
X78581250Y-96202500D02*
X78581250Y-95127000D01*
X78581250Y-95127000D02*
X72354250Y-88900000D01*
X94877500Y-101068750D02*
X97631250Y-103822500D01*
X90606250Y-101068750D02*
X94877500Y-101068750D01*
X113133750Y-101068750D02*
X115887500Y-103822500D01*
X109656250Y-101068750D02*
X113133750Y-101068750D01*
X121706250Y-101178750D02*
X126841250Y-96043750D01*
X121706250Y-112593750D02*
X121706250Y-101178750D01*
X115093750Y-115252500D02*
X97631250Y-115252500D01*
X97631250Y-115252500D02*
X78581250Y-115252500D01*
X78581250Y-115252500D02*
X59531250Y-115252500D01*
X59531250Y-75406250D02*
X55562500Y-71437500D01*
X59531250Y-115252500D02*
X59531250Y-75406250D01*
X55562500Y-71437500D02*
X55562500Y-65951100D01*
X55562500Y-65951100D02*
X42157650Y-52546250D01*
X75827500Y-120118750D02*
X78581250Y-122872500D01*
X71556250Y-120118750D02*
X75827500Y-120118750D01*
X94877500Y-120118750D02*
X97631250Y-122872500D01*
X90606250Y-120118750D02*
X94877500Y-120118750D01*
X112340000Y-120118750D02*
X115093750Y-122872500D01*
X109656250Y-120118750D02*
X112340000Y-120118750D01*
X63341250Y-52546250D02*
X57854850Y-52546250D01*
X65246250Y-45878750D02*
X65246250Y-50641250D01*
X65246250Y-50641250D02*
X63341250Y-52546250D01*
X78134752Y-55086250D02*
X57397650Y-55086250D01*
X84296250Y-48924752D02*
X78134752Y-55086250D01*
X84296250Y-45878750D02*
X84296250Y-48924752D01*
X103346250Y-64928750D02*
X103028750Y-64928750D01*
X103028750Y-64928750D02*
X98425000Y-60325000D01*
X60236100Y-60325000D02*
X57854850Y-62706250D01*
X98425000Y-60325000D02*
X60236100Y-60325000D01*
X58826400Y-58737500D02*
X57397650Y-60166250D01*
X121443750Y-58737500D02*
X58826400Y-58737500D01*
X122396250Y-45878750D02*
X122396250Y-57785000D01*
X122396250Y-57785000D02*
X121443750Y-58737500D01*
X52506250Y-114281250D02*
X57943750Y-108843750D01*
X52506250Y-115531250D02*
X52506250Y-114281250D01*
X57943750Y-108843750D02*
X57943750Y-75406250D01*
X57943750Y-75406250D02*
X53975000Y-71437500D01*
X53975000Y-71437500D02*
X53975000Y-66446400D01*
X53975000Y-66446400D02*
X42614850Y-55086250D01*
X52387500Y-67856100D02*
X52387500Y-71437500D01*
X42157650Y-57626250D02*
X52387500Y-67856100D01*
X52387500Y-71437500D02*
X56356250Y-75406250D01*
X56356250Y-75406250D02*
X56356250Y-106681250D01*
X56356250Y-106681250D02*
X47506250Y-115531250D01*
X59531250Y-123006250D02*
X59531250Y-122872500D01*
M02*
