G04 #@! TF.GenerationSoftware,KiCad,Pcbnew,(5.1.4)-1*
G04 #@! TF.CreationDate,2020-11-23T22:31:48-05:00*
G04 #@! TF.ProjectId,Knomberpad,4b6e6f6d-6265-4727-9061-642e6b696361,rev?*
G04 #@! TF.SameCoordinates,Original*
G04 #@! TF.FileFunction,Legend,Top*
G04 #@! TF.FilePolarity,Positive*
%FSLAX46Y46*%
G04 Gerber Fmt 4.6, Leading zero omitted, Abs format (unit mm)*
G04 Created by KiCad (PCBNEW (5.1.4)-1) date 2020-11-23 22:31:48*
%MOMM*%
%LPD*%
G04 APERTURE LIST*
%ADD10C,0.381000*%
%ADD11C,0.150000*%
%ADD12C,0.120000*%
%ADD13C,0.010000*%
%ADD14C,3.302000*%
%ADD15C,1.753000*%
%ADD16R,1.753000X1.753000*%
%ADD17C,4.089800*%
%ADD18C,1.852000*%
%ADD19C,3.150000*%
%ADD20C,1.854600*%
%ADD21R,1.854600X1.854600*%
%ADD22C,2.102000*%
%ADD23R,2.102000X3.302000*%
%ADD24R,2.102000X2.102000*%
G04 APERTURE END LIST*
D10*
X43656250Y-41116250D02*
X41116250Y-41116250D01*
X41116250Y-38576250D02*
X41116250Y-41116250D01*
X58896250Y-38576250D02*
X41116250Y-38576250D01*
X58896250Y-41116250D02*
X58896250Y-38576250D01*
D11*
G36*
X54937818Y-47595610D02*
G01*
X54937818Y-47795610D01*
X54837818Y-47795610D01*
X54837818Y-47595610D01*
X54937818Y-47595610D01*
G37*
X54937818Y-47595610D02*
X54937818Y-47795610D01*
X54837818Y-47795610D01*
X54837818Y-47595610D01*
X54937818Y-47595610D01*
G36*
X54537818Y-46995610D02*
G01*
X54537818Y-47795610D01*
X54437818Y-47795610D01*
X54437818Y-46995610D01*
X54537818Y-46995610D01*
G37*
X54537818Y-46995610D02*
X54537818Y-47795610D01*
X54437818Y-47795610D01*
X54437818Y-46995610D01*
X54537818Y-46995610D01*
G36*
X54937818Y-46995610D02*
G01*
X54937818Y-47095610D01*
X54437818Y-47095610D01*
X54437818Y-46995610D01*
X54937818Y-46995610D01*
G37*
X54937818Y-46995610D02*
X54937818Y-47095610D01*
X54437818Y-47095610D01*
X54437818Y-46995610D01*
X54937818Y-46995610D01*
G36*
X54737818Y-47395610D02*
G01*
X54737818Y-47495610D01*
X54637818Y-47495610D01*
X54637818Y-47395610D01*
X54737818Y-47395610D01*
G37*
X54737818Y-47395610D02*
X54737818Y-47495610D01*
X54637818Y-47495610D01*
X54637818Y-47395610D01*
X54737818Y-47395610D01*
G36*
X54937818Y-46995610D02*
G01*
X54937818Y-47295610D01*
X54837818Y-47295610D01*
X54837818Y-46995610D01*
X54937818Y-46995610D01*
G37*
X54937818Y-46995610D02*
X54937818Y-47295610D01*
X54837818Y-47295610D01*
X54837818Y-46995610D01*
X54937818Y-46995610D01*
D10*
X43656250Y-43656250D02*
X41116250Y-43656250D01*
X43656250Y-41116250D02*
X43656250Y-43656250D01*
X58896250Y-71596250D02*
X58896250Y-41116250D01*
X41116250Y-71596250D02*
X58896250Y-71596250D01*
X41116250Y-41116250D02*
X41116250Y-71596250D01*
D12*
X53006250Y-123031250D02*
G75*
G03X53006250Y-123031250I-3000000J0D01*
G01*
X55906250Y-125031250D02*
X55906250Y-129131250D01*
X44106250Y-129131250D02*
X44106250Y-125031250D01*
X44106250Y-121031250D02*
X44106250Y-116931250D01*
X55906250Y-121031250D02*
X55906250Y-116931250D01*
X55906250Y-116931250D02*
X44106250Y-116931250D01*
X53806250Y-115531250D02*
X54106250Y-115231250D01*
X54106250Y-115231250D02*
X54106250Y-115831250D01*
X54106250Y-115831250D02*
X53806250Y-115531250D01*
X55906250Y-129131250D02*
X53506250Y-129131250D01*
X51306250Y-129131250D02*
X48706250Y-129131250D01*
X46506250Y-129131250D02*
X44106250Y-129131250D01*
X50506250Y-123031250D02*
X49506250Y-123031250D01*
X50006250Y-122531250D02*
X50006250Y-123531250D01*
D11*
X44243901Y-41948154D02*
X44701044Y-41948154D01*
X44472473Y-42748154D02*
X44472473Y-41948154D01*
X44891520Y-41948154D02*
X45424854Y-42748154D01*
X45424854Y-41948154D02*
X44891520Y-42748154D01*
X45881997Y-41948154D02*
X45958187Y-41948154D01*
X46034378Y-41986250D01*
X46072473Y-42024345D01*
X46110568Y-42100535D01*
X46148663Y-42252916D01*
X46148663Y-42443392D01*
X46110568Y-42595773D01*
X46072473Y-42671964D01*
X46034378Y-42710059D01*
X45958187Y-42748154D01*
X45881997Y-42748154D01*
X45805806Y-42710059D01*
X45767711Y-42671964D01*
X45729616Y-42595773D01*
X45691520Y-42443392D01*
X45691520Y-42252916D01*
X45729616Y-42100535D01*
X45767711Y-42024345D01*
X45805806Y-41986250D01*
X45881997Y-41948154D01*
X47062949Y-41910059D02*
X46377235Y-42938630D01*
X47329616Y-42748154D02*
X47329616Y-41948154D01*
X47520092Y-41948154D01*
X47634378Y-41986250D01*
X47710568Y-42062440D01*
X47748663Y-42138630D01*
X47786758Y-42291011D01*
X47786758Y-42405297D01*
X47748663Y-42557678D01*
X47710568Y-42633869D01*
X47634378Y-42710059D01*
X47520092Y-42748154D01*
X47329616Y-42748154D01*
X48053425Y-41948154D02*
X48548663Y-41948154D01*
X48281997Y-42252916D01*
X48396282Y-42252916D01*
X48472473Y-42291011D01*
X48510568Y-42329107D01*
X48548663Y-42405297D01*
X48548663Y-42595773D01*
X48510568Y-42671964D01*
X48472473Y-42710059D01*
X48396282Y-42748154D01*
X48167711Y-42748154D01*
X48091520Y-42710059D01*
X48053425Y-42671964D01*
X43954773Y-45288154D02*
X43954773Y-44488154D01*
X44145250Y-44488154D01*
X44259535Y-44526250D01*
X44335726Y-44602440D01*
X44373821Y-44678630D01*
X44411916Y-44831011D01*
X44411916Y-44945297D01*
X44373821Y-45097678D01*
X44335726Y-45173869D01*
X44259535Y-45250059D01*
X44145250Y-45288154D01*
X43954773Y-45288154D01*
X44716678Y-44564345D02*
X44754773Y-44526250D01*
X44830964Y-44488154D01*
X45021440Y-44488154D01*
X45097630Y-44526250D01*
X45135726Y-44564345D01*
X45173821Y-44640535D01*
X45173821Y-44716726D01*
X45135726Y-44831011D01*
X44678583Y-45288154D01*
X45173821Y-45288154D01*
X43954773Y-55448154D02*
X43954773Y-54648154D01*
X44145250Y-54648154D01*
X44259535Y-54686250D01*
X44335726Y-54762440D01*
X44373821Y-54838630D01*
X44411916Y-54991011D01*
X44411916Y-55105297D01*
X44373821Y-55257678D01*
X44335726Y-55333869D01*
X44259535Y-55410059D01*
X44145250Y-55448154D01*
X43954773Y-55448154D01*
X44907154Y-54648154D02*
X44983345Y-54648154D01*
X45059535Y-54686250D01*
X45097630Y-54724345D01*
X45135726Y-54800535D01*
X45173821Y-54952916D01*
X45173821Y-55143392D01*
X45135726Y-55295773D01*
X45097630Y-55371964D01*
X45059535Y-55410059D01*
X44983345Y-55448154D01*
X44907154Y-55448154D01*
X44830964Y-55410059D01*
X44792869Y-55371964D01*
X44754773Y-55295773D01*
X44716678Y-55143392D01*
X44716678Y-54952916D01*
X44754773Y-54800535D01*
X44792869Y-54724345D01*
X44830964Y-54686250D01*
X44907154Y-54648154D01*
X43954773Y-52908154D02*
X43954773Y-52108154D01*
X44145250Y-52108154D01*
X44259535Y-52146250D01*
X44335726Y-52222440D01*
X44373821Y-52298630D01*
X44411916Y-52451011D01*
X44411916Y-52565297D01*
X44373821Y-52717678D01*
X44335726Y-52793869D01*
X44259535Y-52870059D01*
X44145250Y-52908154D01*
X43954773Y-52908154D01*
X45173821Y-52908154D02*
X44716678Y-52908154D01*
X44945250Y-52908154D02*
X44945250Y-52108154D01*
X44869059Y-52222440D01*
X44792869Y-52298630D01*
X44716678Y-52336726D01*
X43935726Y-49606250D02*
X43859535Y-49568154D01*
X43745250Y-49568154D01*
X43630964Y-49606250D01*
X43554773Y-49682440D01*
X43516678Y-49758630D01*
X43478583Y-49911011D01*
X43478583Y-50025297D01*
X43516678Y-50177678D01*
X43554773Y-50253869D01*
X43630964Y-50330059D01*
X43745250Y-50368154D01*
X43821440Y-50368154D01*
X43935726Y-50330059D01*
X43973821Y-50291964D01*
X43973821Y-50025297D01*
X43821440Y-50025297D01*
X44316678Y-50368154D02*
X44316678Y-49568154D01*
X44773821Y-50368154D01*
X44773821Y-49568154D01*
X45154773Y-50368154D02*
X45154773Y-49568154D01*
X45345250Y-49568154D01*
X45459535Y-49606250D01*
X45535726Y-49682440D01*
X45573821Y-49758630D01*
X45611916Y-49911011D01*
X45611916Y-50025297D01*
X45573821Y-50177678D01*
X45535726Y-50253869D01*
X45459535Y-50330059D01*
X45345250Y-50368154D01*
X45154773Y-50368154D01*
X43935726Y-47066250D02*
X43859535Y-47028154D01*
X43745250Y-47028154D01*
X43630964Y-47066250D01*
X43554773Y-47142440D01*
X43516678Y-47218630D01*
X43478583Y-47371011D01*
X43478583Y-47485297D01*
X43516678Y-47637678D01*
X43554773Y-47713869D01*
X43630964Y-47790059D01*
X43745250Y-47828154D01*
X43821440Y-47828154D01*
X43935726Y-47790059D01*
X43973821Y-47751964D01*
X43973821Y-47485297D01*
X43821440Y-47485297D01*
X44316678Y-47828154D02*
X44316678Y-47028154D01*
X44773821Y-47828154D01*
X44773821Y-47028154D01*
X45154773Y-47828154D02*
X45154773Y-47028154D01*
X45345250Y-47028154D01*
X45459535Y-47066250D01*
X45535726Y-47142440D01*
X45573821Y-47218630D01*
X45611916Y-47371011D01*
X45611916Y-47485297D01*
X45573821Y-47637678D01*
X45535726Y-47713869D01*
X45459535Y-47790059D01*
X45345250Y-47828154D01*
X45154773Y-47828154D01*
X43954773Y-57988154D02*
X43954773Y-57188154D01*
X44145250Y-57188154D01*
X44259535Y-57226250D01*
X44335726Y-57302440D01*
X44373821Y-57378630D01*
X44411916Y-57531011D01*
X44411916Y-57645297D01*
X44373821Y-57797678D01*
X44335726Y-57873869D01*
X44259535Y-57950059D01*
X44145250Y-57988154D01*
X43954773Y-57988154D01*
X45097630Y-57454821D02*
X45097630Y-57988154D01*
X44907154Y-57150059D02*
X44716678Y-57721488D01*
X45211916Y-57721488D01*
X44411916Y-60451964D02*
X44373821Y-60490059D01*
X44259535Y-60528154D01*
X44183345Y-60528154D01*
X44069059Y-60490059D01*
X43992869Y-60413869D01*
X43954773Y-60337678D01*
X43916678Y-60185297D01*
X43916678Y-60071011D01*
X43954773Y-59918630D01*
X43992869Y-59842440D01*
X44069059Y-59766250D01*
X44183345Y-59728154D01*
X44259535Y-59728154D01*
X44373821Y-59766250D01*
X44411916Y-59804345D01*
X45097630Y-59728154D02*
X44945250Y-59728154D01*
X44869059Y-59766250D01*
X44830964Y-59804345D01*
X44754773Y-59918630D01*
X44716678Y-60071011D01*
X44716678Y-60375773D01*
X44754773Y-60451964D01*
X44792869Y-60490059D01*
X44869059Y-60528154D01*
X45021440Y-60528154D01*
X45097630Y-60490059D01*
X45135726Y-60451964D01*
X45173821Y-60375773D01*
X45173821Y-60185297D01*
X45135726Y-60109107D01*
X45097630Y-60071011D01*
X45021440Y-60032916D01*
X44869059Y-60032916D01*
X44792869Y-60071011D01*
X44754773Y-60109107D01*
X44716678Y-60185297D01*
X43954773Y-63068154D02*
X43954773Y-62268154D01*
X44145250Y-62268154D01*
X44259535Y-62306250D01*
X44335726Y-62382440D01*
X44373821Y-62458630D01*
X44411916Y-62611011D01*
X44411916Y-62725297D01*
X44373821Y-62877678D01*
X44335726Y-62953869D01*
X44259535Y-63030059D01*
X44145250Y-63068154D01*
X43954773Y-63068154D01*
X44678583Y-62268154D02*
X45211916Y-62268154D01*
X44869059Y-63068154D01*
X43992869Y-65189107D02*
X44259535Y-65189107D01*
X44373821Y-65608154D02*
X43992869Y-65608154D01*
X43992869Y-64808154D01*
X44373821Y-64808154D01*
X45059535Y-64808154D02*
X44907154Y-64808154D01*
X44830964Y-64846250D01*
X44792869Y-64884345D01*
X44716678Y-64998630D01*
X44678583Y-65151011D01*
X44678583Y-65455773D01*
X44716678Y-65531964D01*
X44754773Y-65570059D01*
X44830964Y-65608154D01*
X44983345Y-65608154D01*
X45059535Y-65570059D01*
X45097630Y-65531964D01*
X45135726Y-65455773D01*
X45135726Y-65265297D01*
X45097630Y-65189107D01*
X45059535Y-65151011D01*
X44983345Y-65112916D01*
X44830964Y-65112916D01*
X44754773Y-65151011D01*
X44716678Y-65189107D01*
X44678583Y-65265297D01*
X44221440Y-67729107D02*
X44335726Y-67767202D01*
X44373821Y-67805297D01*
X44411916Y-67881488D01*
X44411916Y-67995773D01*
X44373821Y-68071964D01*
X44335726Y-68110059D01*
X44259535Y-68148154D01*
X43954773Y-68148154D01*
X43954773Y-67348154D01*
X44221440Y-67348154D01*
X44297630Y-67386250D01*
X44335726Y-67424345D01*
X44373821Y-67500535D01*
X44373821Y-67576726D01*
X44335726Y-67652916D01*
X44297630Y-67691011D01*
X44221440Y-67729107D01*
X43954773Y-67729107D01*
X45097630Y-67614821D02*
X45097630Y-68148154D01*
X44907154Y-67310059D02*
X44716678Y-67881488D01*
X45211916Y-67881488D01*
X44221440Y-70269107D02*
X44335726Y-70307202D01*
X44373821Y-70345297D01*
X44411916Y-70421488D01*
X44411916Y-70535773D01*
X44373821Y-70611964D01*
X44335726Y-70650059D01*
X44259535Y-70688154D01*
X43954773Y-70688154D01*
X43954773Y-69888154D01*
X44221440Y-69888154D01*
X44297630Y-69926250D01*
X44335726Y-69964345D01*
X44373821Y-70040535D01*
X44373821Y-70116726D01*
X44335726Y-70192916D01*
X44297630Y-70231011D01*
X44221440Y-70269107D01*
X43954773Y-70269107D01*
X45135726Y-69888154D02*
X44754773Y-69888154D01*
X44716678Y-70269107D01*
X44754773Y-70231011D01*
X44830964Y-70192916D01*
X45021440Y-70192916D01*
X45097630Y-70231011D01*
X45135726Y-70269107D01*
X45173821Y-70345297D01*
X45173821Y-70535773D01*
X45135726Y-70611964D01*
X45097630Y-70650059D01*
X45021440Y-70688154D01*
X44830964Y-70688154D01*
X44754773Y-70650059D01*
X44716678Y-70611964D01*
X55143440Y-70269107D02*
X55257726Y-70307202D01*
X55295821Y-70345297D01*
X55333916Y-70421488D01*
X55333916Y-70535773D01*
X55295821Y-70611964D01*
X55257726Y-70650059D01*
X55181535Y-70688154D01*
X54876773Y-70688154D01*
X54876773Y-69888154D01*
X55143440Y-69888154D01*
X55219630Y-69926250D01*
X55257726Y-69964345D01*
X55295821Y-70040535D01*
X55295821Y-70116726D01*
X55257726Y-70192916D01*
X55219630Y-70231011D01*
X55143440Y-70269107D01*
X54876773Y-70269107D01*
X56019630Y-69888154D02*
X55867250Y-69888154D01*
X55791059Y-69926250D01*
X55752964Y-69964345D01*
X55676773Y-70078630D01*
X55638678Y-70231011D01*
X55638678Y-70535773D01*
X55676773Y-70611964D01*
X55714869Y-70650059D01*
X55791059Y-70688154D01*
X55943440Y-70688154D01*
X56019630Y-70650059D01*
X56057726Y-70611964D01*
X56095821Y-70535773D01*
X56095821Y-70345297D01*
X56057726Y-70269107D01*
X56019630Y-70231011D01*
X55943440Y-70192916D01*
X55791059Y-70192916D01*
X55714869Y-70231011D01*
X55676773Y-70269107D01*
X55638678Y-70345297D01*
X55143440Y-65189107D02*
X55257726Y-65227202D01*
X55295821Y-65265297D01*
X55333916Y-65341488D01*
X55333916Y-65455773D01*
X55295821Y-65531964D01*
X55257726Y-65570059D01*
X55181535Y-65608154D01*
X54876773Y-65608154D01*
X54876773Y-64808154D01*
X55143440Y-64808154D01*
X55219630Y-64846250D01*
X55257726Y-64884345D01*
X55295821Y-64960535D01*
X55295821Y-65036726D01*
X55257726Y-65112916D01*
X55219630Y-65151011D01*
X55143440Y-65189107D01*
X54876773Y-65189107D01*
X55600583Y-64808154D02*
X56095821Y-64808154D01*
X55829154Y-65112916D01*
X55943440Y-65112916D01*
X56019630Y-65151011D01*
X56057726Y-65189107D01*
X56095821Y-65265297D01*
X56095821Y-65455773D01*
X56057726Y-65531964D01*
X56019630Y-65570059D01*
X55943440Y-65608154D01*
X55714869Y-65608154D01*
X55638678Y-65570059D01*
X55600583Y-65531964D01*
X55143440Y-62649107D02*
X55257726Y-62687202D01*
X55295821Y-62725297D01*
X55333916Y-62801488D01*
X55333916Y-62915773D01*
X55295821Y-62991964D01*
X55257726Y-63030059D01*
X55181535Y-63068154D01*
X54876773Y-63068154D01*
X54876773Y-62268154D01*
X55143440Y-62268154D01*
X55219630Y-62306250D01*
X55257726Y-62344345D01*
X55295821Y-62420535D01*
X55295821Y-62496726D01*
X55257726Y-62572916D01*
X55219630Y-62611011D01*
X55143440Y-62649107D01*
X54876773Y-62649107D01*
X56095821Y-63068154D02*
X55638678Y-63068154D01*
X55867250Y-63068154D02*
X55867250Y-62268154D01*
X55791059Y-62382440D01*
X55714869Y-62458630D01*
X55638678Y-62496726D01*
X55200583Y-52489107D02*
X54933916Y-52489107D01*
X54933916Y-52908154D02*
X54933916Y-52108154D01*
X55314869Y-52108154D01*
X55962488Y-52374821D02*
X55962488Y-52908154D01*
X55772011Y-52070059D02*
X55581535Y-52641488D01*
X56076773Y-52641488D01*
X54400583Y-49568154D02*
X54667250Y-50368154D01*
X54933916Y-49568154D01*
X55657726Y-50291964D02*
X55619630Y-50330059D01*
X55505345Y-50368154D01*
X55429154Y-50368154D01*
X55314869Y-50330059D01*
X55238678Y-50253869D01*
X55200583Y-50177678D01*
X55162488Y-50025297D01*
X55162488Y-49911011D01*
X55200583Y-49758630D01*
X55238678Y-49682440D01*
X55314869Y-49606250D01*
X55429154Y-49568154D01*
X55505345Y-49568154D01*
X55619630Y-49606250D01*
X55657726Y-49644345D01*
X56457726Y-50291964D02*
X56419630Y-50330059D01*
X56305345Y-50368154D01*
X56229154Y-50368154D01*
X56114869Y-50330059D01*
X56038678Y-50253869D01*
X56000583Y-50177678D01*
X55962488Y-50025297D01*
X55962488Y-49911011D01*
X56000583Y-49758630D01*
X56038678Y-49682440D01*
X56114869Y-49606250D01*
X56229154Y-49568154D01*
X56305345Y-49568154D01*
X56419630Y-49606250D01*
X56457726Y-49644345D01*
X55206036Y-47760059D02*
X55320322Y-47798154D01*
X55510798Y-47798154D01*
X55586989Y-47760059D01*
X55625084Y-47721964D01*
X55663179Y-47645773D01*
X55663179Y-47569583D01*
X55625084Y-47493392D01*
X55586989Y-47455297D01*
X55510798Y-47417202D01*
X55358417Y-47379107D01*
X55282227Y-47341011D01*
X55244131Y-47302916D01*
X55206036Y-47226726D01*
X55206036Y-47150535D01*
X55244131Y-47074345D01*
X55282227Y-47036250D01*
X55358417Y-46998154D01*
X55548893Y-46998154D01*
X55663179Y-47036250D01*
X55891750Y-46998154D02*
X56348893Y-46998154D01*
X56120322Y-47798154D02*
X56120322Y-46998154D01*
X54857726Y-44526250D02*
X54781535Y-44488154D01*
X54667250Y-44488154D01*
X54552964Y-44526250D01*
X54476773Y-44602440D01*
X54438678Y-44678630D01*
X54400583Y-44831011D01*
X54400583Y-44945297D01*
X54438678Y-45097678D01*
X54476773Y-45173869D01*
X54552964Y-45250059D01*
X54667250Y-45288154D01*
X54743440Y-45288154D01*
X54857726Y-45250059D01*
X54895821Y-45211964D01*
X54895821Y-44945297D01*
X54743440Y-44945297D01*
X55238678Y-45288154D02*
X55238678Y-44488154D01*
X55695821Y-45288154D01*
X55695821Y-44488154D01*
X56076773Y-45288154D02*
X56076773Y-44488154D01*
X56267250Y-44488154D01*
X56381535Y-44526250D01*
X56457726Y-44602440D01*
X56495821Y-44678630D01*
X56533916Y-44831011D01*
X56533916Y-44945297D01*
X56495821Y-45097678D01*
X56457726Y-45173869D01*
X56381535Y-45250059D01*
X56267250Y-45288154D01*
X56076773Y-45288154D01*
X54914869Y-42748154D02*
X54648202Y-42367202D01*
X54457726Y-42748154D02*
X54457726Y-41948154D01*
X54762488Y-41948154D01*
X54838678Y-41986250D01*
X54876773Y-42024345D01*
X54914869Y-42100535D01*
X54914869Y-42214821D01*
X54876773Y-42291011D01*
X54838678Y-42329107D01*
X54762488Y-42367202D01*
X54457726Y-42367202D01*
X55219630Y-42519583D02*
X55600583Y-42519583D01*
X55143440Y-42748154D02*
X55410107Y-41948154D01*
X55676773Y-42748154D01*
X55867250Y-41948154D02*
X56057726Y-42748154D01*
X56210107Y-42176726D01*
X56362488Y-42748154D01*
X56552964Y-41948154D01*
X55200583Y-55029107D02*
X54933916Y-55029107D01*
X54933916Y-55448154D02*
X54933916Y-54648154D01*
X55314869Y-54648154D01*
X56000583Y-54648154D02*
X55619630Y-54648154D01*
X55581535Y-55029107D01*
X55619630Y-54991011D01*
X55695821Y-54952916D01*
X55886297Y-54952916D01*
X55962488Y-54991011D01*
X56000583Y-55029107D01*
X56038678Y-55105297D01*
X56038678Y-55295773D01*
X56000583Y-55371964D01*
X55962488Y-55410059D01*
X55886297Y-55448154D01*
X55695821Y-55448154D01*
X55619630Y-55410059D01*
X55581535Y-55371964D01*
X55200583Y-57569107D02*
X54933916Y-57569107D01*
X54933916Y-57988154D02*
X54933916Y-57188154D01*
X55314869Y-57188154D01*
X55962488Y-57188154D02*
X55810107Y-57188154D01*
X55733916Y-57226250D01*
X55695821Y-57264345D01*
X55619630Y-57378630D01*
X55581535Y-57531011D01*
X55581535Y-57835773D01*
X55619630Y-57911964D01*
X55657726Y-57950059D01*
X55733916Y-57988154D01*
X55886297Y-57988154D01*
X55962488Y-57950059D01*
X56000583Y-57911964D01*
X56038678Y-57835773D01*
X56038678Y-57645297D01*
X56000583Y-57569107D01*
X55962488Y-57531011D01*
X55886297Y-57492916D01*
X55733916Y-57492916D01*
X55657726Y-57531011D01*
X55619630Y-57569107D01*
X55581535Y-57645297D01*
X55200583Y-60109107D02*
X54933916Y-60109107D01*
X54933916Y-60528154D02*
X54933916Y-59728154D01*
X55314869Y-59728154D01*
X55543440Y-59728154D02*
X56076773Y-59728154D01*
X55733916Y-60528154D01*
X55143440Y-67729107D02*
X55257726Y-67767202D01*
X55295821Y-67805297D01*
X55333916Y-67881488D01*
X55333916Y-67995773D01*
X55295821Y-68071964D01*
X55257726Y-68110059D01*
X55181535Y-68148154D01*
X54876773Y-68148154D01*
X54876773Y-67348154D01*
X55143440Y-67348154D01*
X55219630Y-67386250D01*
X55257726Y-67424345D01*
X55295821Y-67500535D01*
X55295821Y-67576726D01*
X55257726Y-67652916D01*
X55219630Y-67691011D01*
X55143440Y-67729107D01*
X54876773Y-67729107D01*
X55638678Y-67424345D02*
X55676773Y-67386250D01*
X55752964Y-67348154D01*
X55943440Y-67348154D01*
X56019630Y-67386250D01*
X56057726Y-67424345D01*
X56095821Y-67500535D01*
X56095821Y-67576726D01*
X56057726Y-67691011D01*
X55600583Y-68148154D01*
X56095821Y-68148154D01*
%LPC*%
D13*
G36*
X54710296Y-73289589D02*
G01*
X54707687Y-73316306D01*
X54687037Y-73369435D01*
X54674892Y-73394584D01*
X54632001Y-73491192D01*
X54582655Y-73621914D01*
X54531092Y-73773684D01*
X54481550Y-73933430D01*
X54438266Y-74088084D01*
X54405479Y-74224578D01*
X54404929Y-74227177D01*
X54365240Y-74452290D01*
X54342518Y-74676884D01*
X54337255Y-74907681D01*
X54349947Y-75151401D01*
X54381088Y-75414766D01*
X54431172Y-75704497D01*
X54500693Y-76027316D01*
X54553357Y-76245357D01*
X54627434Y-76554875D01*
X54685564Y-76827855D01*
X54729360Y-77072837D01*
X54760433Y-77298366D01*
X54770885Y-77397781D01*
X54783725Y-77736129D01*
X54756812Y-78054175D01*
X54690768Y-78349435D01*
X54586217Y-78619425D01*
X54443781Y-78861661D01*
X54383811Y-78941020D01*
X54312201Y-79021993D01*
X54228069Y-79105095D01*
X54140548Y-79182643D01*
X54058773Y-79246954D01*
X53991875Y-79290347D01*
X53950850Y-79305198D01*
X53947167Y-79287930D01*
X53968656Y-79242537D01*
X54002478Y-79190547D01*
X54154922Y-78935766D01*
X54269352Y-78656189D01*
X54344365Y-78358649D01*
X54378557Y-78049981D01*
X54370524Y-77737017D01*
X54342304Y-77536172D01*
X54322553Y-77448633D01*
X54290354Y-77326522D01*
X54248900Y-77181046D01*
X54201389Y-77023414D01*
X54151015Y-76864835D01*
X54150158Y-76862214D01*
X54083050Y-76655517D01*
X54029840Y-76486840D01*
X53988741Y-76348435D01*
X53957964Y-76232554D01*
X53935720Y-76131451D01*
X53920219Y-76037377D01*
X53909674Y-75942585D01*
X53902295Y-75839329D01*
X53898817Y-75773643D01*
X53884029Y-75471262D01*
X53829500Y-75573555D01*
X53761073Y-75735977D01*
X53720444Y-75917196D01*
X53707598Y-76121496D01*
X53722519Y-76353160D01*
X53765191Y-76616469D01*
X53824797Y-76874309D01*
X53885082Y-77115587D01*
X53931089Y-77318232D01*
X53963590Y-77489591D01*
X53983359Y-77637011D01*
X53991170Y-77767839D01*
X53987795Y-77889423D01*
X53974008Y-78009110D01*
X53955133Y-78112654D01*
X53876167Y-78385246D01*
X53754980Y-78656484D01*
X53597345Y-78918905D01*
X53409035Y-79165048D01*
X53195824Y-79387449D01*
X52963484Y-79578647D01*
X52717788Y-79731179D01*
X52693322Y-79743709D01*
X52516706Y-79832436D01*
X52692496Y-79894869D01*
X52920808Y-79968512D01*
X53141401Y-80022788D01*
X53367228Y-80059692D01*
X53611242Y-80081218D01*
X53886397Y-80089361D01*
X53956857Y-80089548D01*
X54441200Y-80068456D01*
X54914894Y-80005762D01*
X55387073Y-79899915D01*
X55778159Y-79780302D01*
X56211721Y-79607761D01*
X56618093Y-79395529D01*
X56995996Y-79144604D01*
X57344148Y-78855980D01*
X57661268Y-78530654D01*
X57946076Y-78169621D01*
X58053370Y-78011262D01*
X58116619Y-77914500D01*
X58171753Y-77831833D01*
X58212692Y-77772262D01*
X58232994Y-77745166D01*
X58240529Y-77759532D01*
X58245321Y-77819639D01*
X58247318Y-77922923D01*
X58246463Y-78066818D01*
X58243211Y-78228976D01*
X58236339Y-78441303D01*
X58226152Y-78616612D01*
X58210623Y-78766247D01*
X58187727Y-78901555D01*
X58155437Y-79033879D01*
X58111727Y-79174566D01*
X58054572Y-79334960D01*
X58037558Y-79380496D01*
X57854599Y-79808657D01*
X57641881Y-80198740D01*
X57398912Y-80551194D01*
X57125203Y-80866463D01*
X56820261Y-81144995D01*
X56483597Y-81387236D01*
X56114719Y-81593632D01*
X55713138Y-81764630D01*
X55278362Y-81900677D01*
X55263143Y-81904653D01*
X55023133Y-81961483D01*
X54789864Y-82004384D01*
X54551775Y-82034597D01*
X54297309Y-82053362D01*
X54014908Y-82061916D01*
X53791122Y-82062472D01*
X53617773Y-82059659D01*
X53436236Y-82053775D01*
X53253392Y-82045333D01*
X53076118Y-82034846D01*
X52911296Y-82022827D01*
X52765804Y-82009789D01*
X52646521Y-81996244D01*
X52560328Y-81982707D01*
X52514104Y-81969689D01*
X52509971Y-81966936D01*
X52518930Y-81953074D01*
X52564192Y-81938750D01*
X52594637Y-81933197D01*
X52686682Y-81918486D01*
X52806416Y-81898070D01*
X52945155Y-81873565D01*
X53094217Y-81846586D01*
X53244918Y-81818748D01*
X53388575Y-81791664D01*
X53516504Y-81766951D01*
X53620023Y-81746223D01*
X53690447Y-81731095D01*
X53714953Y-81724846D01*
X53792865Y-81705133D01*
X53872191Y-81691215D01*
X53907610Y-81686225D01*
X53948306Y-81679100D01*
X54001507Y-81668250D01*
X54074444Y-81652080D01*
X54174348Y-81629000D01*
X54308447Y-81597418D01*
X54440667Y-81566040D01*
X54625334Y-81517238D01*
X54829117Y-81455122D01*
X55038316Y-81384502D01*
X55239232Y-81310186D01*
X55418165Y-81236982D01*
X55542806Y-81179192D01*
X55765325Y-81053790D01*
X55987513Y-80903241D01*
X56199633Y-80735670D01*
X56391947Y-80559202D01*
X56554718Y-80381961D01*
X56650527Y-80254928D01*
X56697529Y-80183109D01*
X56729554Y-80129770D01*
X56740884Y-80104557D01*
X56740133Y-80103738D01*
X56714857Y-80115805D01*
X56661031Y-80147348D01*
X56594652Y-80188788D01*
X56506380Y-80241241D01*
X56385760Y-80307405D01*
X56244623Y-80381275D01*
X56094804Y-80456846D01*
X55948134Y-80528113D01*
X55816446Y-80589072D01*
X55743297Y-80620820D01*
X55543196Y-80698752D01*
X55309130Y-80780622D01*
X55054795Y-80862056D01*
X54793888Y-80938680D01*
X54540105Y-81006120D01*
X54525334Y-81009796D01*
X54342697Y-81053617D01*
X54160079Y-81094242D01*
X53973210Y-81132276D01*
X53777821Y-81168320D01*
X53569642Y-81202977D01*
X53344404Y-81236850D01*
X53097836Y-81270542D01*
X52825669Y-81304655D01*
X52523633Y-81339792D01*
X52187460Y-81376555D01*
X51812878Y-81415547D01*
X51395619Y-81457371D01*
X51259619Y-81470743D01*
X50793579Y-81518400D01*
X50373206Y-81565769D01*
X49995790Y-81613358D01*
X49658623Y-81661673D01*
X49358997Y-81711221D01*
X49094204Y-81762508D01*
X48861536Y-81816041D01*
X48658283Y-81872325D01*
X48481738Y-81931869D01*
X48329192Y-81995178D01*
X48251663Y-82033289D01*
X48111704Y-82120568D01*
X47980058Y-82228077D01*
X47871225Y-82343017D01*
X47820791Y-82413662D01*
X47792401Y-82451770D01*
X47777147Y-82455804D01*
X47776318Y-82450214D01*
X47784412Y-82388910D01*
X47806578Y-82293274D01*
X47839457Y-82174104D01*
X47879691Y-82042203D01*
X47923925Y-81908368D01*
X47968800Y-81783402D01*
X48010959Y-81678103D01*
X48028235Y-81639833D01*
X48104054Y-81489732D01*
X48181249Y-81360156D01*
X48265616Y-81245838D01*
X48362948Y-81141516D01*
X48479041Y-81041922D01*
X48619689Y-80941792D01*
X48790687Y-80835862D01*
X48997830Y-80718867D01*
X49106667Y-80659980D01*
X49255018Y-80580042D01*
X49412997Y-80494140D01*
X49565500Y-80410535D01*
X49697423Y-80337490D01*
X49747714Y-80309329D01*
X49880967Y-80235292D01*
X50036094Y-80150590D01*
X50191953Y-80066701D01*
X50304095Y-80007291D01*
X50613617Y-79843004D01*
X50883494Y-79695224D01*
X51118329Y-79560895D01*
X51322727Y-79436962D01*
X51501292Y-79320369D01*
X51658629Y-79208061D01*
X51799341Y-79096982D01*
X51928032Y-78984077D01*
X52049308Y-78866291D01*
X52095466Y-78818501D01*
X52251547Y-78641274D01*
X52390077Y-78454728D01*
X52512915Y-78254103D01*
X52621922Y-78034639D01*
X52718957Y-77791575D01*
X52805881Y-77520152D01*
X52884554Y-77215608D01*
X52956836Y-76873184D01*
X53024587Y-76488119D01*
X53037380Y-76407964D01*
X53082657Y-76125265D01*
X53123216Y-75883925D01*
X53160329Y-75677294D01*
X53195265Y-75498723D01*
X53229296Y-75341561D01*
X53263693Y-75199160D01*
X53281110Y-75132595D01*
X53398850Y-74762310D01*
X53543768Y-74426069D01*
X53714616Y-74125658D01*
X53910144Y-73862862D01*
X54129105Y-73639466D01*
X54370250Y-73457256D01*
X54509037Y-73376728D01*
X54594577Y-73333878D01*
X54662916Y-73303232D01*
X54703711Y-73289269D01*
X54710296Y-73289589D01*
X54710296Y-73289589D01*
G37*
X54710296Y-73289589D02*
X54707687Y-73316306D01*
X54687037Y-73369435D01*
X54674892Y-73394584D01*
X54632001Y-73491192D01*
X54582655Y-73621914D01*
X54531092Y-73773684D01*
X54481550Y-73933430D01*
X54438266Y-74088084D01*
X54405479Y-74224578D01*
X54404929Y-74227177D01*
X54365240Y-74452290D01*
X54342518Y-74676884D01*
X54337255Y-74907681D01*
X54349947Y-75151401D01*
X54381088Y-75414766D01*
X54431172Y-75704497D01*
X54500693Y-76027316D01*
X54553357Y-76245357D01*
X54627434Y-76554875D01*
X54685564Y-76827855D01*
X54729360Y-77072837D01*
X54760433Y-77298366D01*
X54770885Y-77397781D01*
X54783725Y-77736129D01*
X54756812Y-78054175D01*
X54690768Y-78349435D01*
X54586217Y-78619425D01*
X54443781Y-78861661D01*
X54383811Y-78941020D01*
X54312201Y-79021993D01*
X54228069Y-79105095D01*
X54140548Y-79182643D01*
X54058773Y-79246954D01*
X53991875Y-79290347D01*
X53950850Y-79305198D01*
X53947167Y-79287930D01*
X53968656Y-79242537D01*
X54002478Y-79190547D01*
X54154922Y-78935766D01*
X54269352Y-78656189D01*
X54344365Y-78358649D01*
X54378557Y-78049981D01*
X54370524Y-77737017D01*
X54342304Y-77536172D01*
X54322553Y-77448633D01*
X54290354Y-77326522D01*
X54248900Y-77181046D01*
X54201389Y-77023414D01*
X54151015Y-76864835D01*
X54150158Y-76862214D01*
X54083050Y-76655517D01*
X54029840Y-76486840D01*
X53988741Y-76348435D01*
X53957964Y-76232554D01*
X53935720Y-76131451D01*
X53920219Y-76037377D01*
X53909674Y-75942585D01*
X53902295Y-75839329D01*
X53898817Y-75773643D01*
X53884029Y-75471262D01*
X53829500Y-75573555D01*
X53761073Y-75735977D01*
X53720444Y-75917196D01*
X53707598Y-76121496D01*
X53722519Y-76353160D01*
X53765191Y-76616469D01*
X53824797Y-76874309D01*
X53885082Y-77115587D01*
X53931089Y-77318232D01*
X53963590Y-77489591D01*
X53983359Y-77637011D01*
X53991170Y-77767839D01*
X53987795Y-77889423D01*
X53974008Y-78009110D01*
X53955133Y-78112654D01*
X53876167Y-78385246D01*
X53754980Y-78656484D01*
X53597345Y-78918905D01*
X53409035Y-79165048D01*
X53195824Y-79387449D01*
X52963484Y-79578647D01*
X52717788Y-79731179D01*
X52693322Y-79743709D01*
X52516706Y-79832436D01*
X52692496Y-79894869D01*
X52920808Y-79968512D01*
X53141401Y-80022788D01*
X53367228Y-80059692D01*
X53611242Y-80081218D01*
X53886397Y-80089361D01*
X53956857Y-80089548D01*
X54441200Y-80068456D01*
X54914894Y-80005762D01*
X55387073Y-79899915D01*
X55778159Y-79780302D01*
X56211721Y-79607761D01*
X56618093Y-79395529D01*
X56995996Y-79144604D01*
X57344148Y-78855980D01*
X57661268Y-78530654D01*
X57946076Y-78169621D01*
X58053370Y-78011262D01*
X58116619Y-77914500D01*
X58171753Y-77831833D01*
X58212692Y-77772262D01*
X58232994Y-77745166D01*
X58240529Y-77759532D01*
X58245321Y-77819639D01*
X58247318Y-77922923D01*
X58246463Y-78066818D01*
X58243211Y-78228976D01*
X58236339Y-78441303D01*
X58226152Y-78616612D01*
X58210623Y-78766247D01*
X58187727Y-78901555D01*
X58155437Y-79033879D01*
X58111727Y-79174566D01*
X58054572Y-79334960D01*
X58037558Y-79380496D01*
X57854599Y-79808657D01*
X57641881Y-80198740D01*
X57398912Y-80551194D01*
X57125203Y-80866463D01*
X56820261Y-81144995D01*
X56483597Y-81387236D01*
X56114719Y-81593632D01*
X55713138Y-81764630D01*
X55278362Y-81900677D01*
X55263143Y-81904653D01*
X55023133Y-81961483D01*
X54789864Y-82004384D01*
X54551775Y-82034597D01*
X54297309Y-82053362D01*
X54014908Y-82061916D01*
X53791122Y-82062472D01*
X53617773Y-82059659D01*
X53436236Y-82053775D01*
X53253392Y-82045333D01*
X53076118Y-82034846D01*
X52911296Y-82022827D01*
X52765804Y-82009789D01*
X52646521Y-81996244D01*
X52560328Y-81982707D01*
X52514104Y-81969689D01*
X52509971Y-81966936D01*
X52518930Y-81953074D01*
X52564192Y-81938750D01*
X52594637Y-81933197D01*
X52686682Y-81918486D01*
X52806416Y-81898070D01*
X52945155Y-81873565D01*
X53094217Y-81846586D01*
X53244918Y-81818748D01*
X53388575Y-81791664D01*
X53516504Y-81766951D01*
X53620023Y-81746223D01*
X53690447Y-81731095D01*
X53714953Y-81724846D01*
X53792865Y-81705133D01*
X53872191Y-81691215D01*
X53907610Y-81686225D01*
X53948306Y-81679100D01*
X54001507Y-81668250D01*
X54074444Y-81652080D01*
X54174348Y-81629000D01*
X54308447Y-81597418D01*
X54440667Y-81566040D01*
X54625334Y-81517238D01*
X54829117Y-81455122D01*
X55038316Y-81384502D01*
X55239232Y-81310186D01*
X55418165Y-81236982D01*
X55542806Y-81179192D01*
X55765325Y-81053790D01*
X55987513Y-80903241D01*
X56199633Y-80735670D01*
X56391947Y-80559202D01*
X56554718Y-80381961D01*
X56650527Y-80254928D01*
X56697529Y-80183109D01*
X56729554Y-80129770D01*
X56740884Y-80104557D01*
X56740133Y-80103738D01*
X56714857Y-80115805D01*
X56661031Y-80147348D01*
X56594652Y-80188788D01*
X56506380Y-80241241D01*
X56385760Y-80307405D01*
X56244623Y-80381275D01*
X56094804Y-80456846D01*
X55948134Y-80528113D01*
X55816446Y-80589072D01*
X55743297Y-80620820D01*
X55543196Y-80698752D01*
X55309130Y-80780622D01*
X55054795Y-80862056D01*
X54793888Y-80938680D01*
X54540105Y-81006120D01*
X54525334Y-81009796D01*
X54342697Y-81053617D01*
X54160079Y-81094242D01*
X53973210Y-81132276D01*
X53777821Y-81168320D01*
X53569642Y-81202977D01*
X53344404Y-81236850D01*
X53097836Y-81270542D01*
X52825669Y-81304655D01*
X52523633Y-81339792D01*
X52187460Y-81376555D01*
X51812878Y-81415547D01*
X51395619Y-81457371D01*
X51259619Y-81470743D01*
X50793579Y-81518400D01*
X50373206Y-81565769D01*
X49995790Y-81613358D01*
X49658623Y-81661673D01*
X49358997Y-81711221D01*
X49094204Y-81762508D01*
X48861536Y-81816041D01*
X48658283Y-81872325D01*
X48481738Y-81931869D01*
X48329192Y-81995178D01*
X48251663Y-82033289D01*
X48111704Y-82120568D01*
X47980058Y-82228077D01*
X47871225Y-82343017D01*
X47820791Y-82413662D01*
X47792401Y-82451770D01*
X47777147Y-82455804D01*
X47776318Y-82450214D01*
X47784412Y-82388910D01*
X47806578Y-82293274D01*
X47839457Y-82174104D01*
X47879691Y-82042203D01*
X47923925Y-81908368D01*
X47968800Y-81783402D01*
X48010959Y-81678103D01*
X48028235Y-81639833D01*
X48104054Y-81489732D01*
X48181249Y-81360156D01*
X48265616Y-81245838D01*
X48362948Y-81141516D01*
X48479041Y-81041922D01*
X48619689Y-80941792D01*
X48790687Y-80835862D01*
X48997830Y-80718867D01*
X49106667Y-80659980D01*
X49255018Y-80580042D01*
X49412997Y-80494140D01*
X49565500Y-80410535D01*
X49697423Y-80337490D01*
X49747714Y-80309329D01*
X49880967Y-80235292D01*
X50036094Y-80150590D01*
X50191953Y-80066701D01*
X50304095Y-80007291D01*
X50613617Y-79843004D01*
X50883494Y-79695224D01*
X51118329Y-79560895D01*
X51322727Y-79436962D01*
X51501292Y-79320369D01*
X51658629Y-79208061D01*
X51799341Y-79096982D01*
X51928032Y-78984077D01*
X52049308Y-78866291D01*
X52095466Y-78818501D01*
X52251547Y-78641274D01*
X52390077Y-78454728D01*
X52512915Y-78254103D01*
X52621922Y-78034639D01*
X52718957Y-77791575D01*
X52805881Y-77520152D01*
X52884554Y-77215608D01*
X52956836Y-76873184D01*
X53024587Y-76488119D01*
X53037380Y-76407964D01*
X53082657Y-76125265D01*
X53123216Y-75883925D01*
X53160329Y-75677294D01*
X53195265Y-75498723D01*
X53229296Y-75341561D01*
X53263693Y-75199160D01*
X53281110Y-75132595D01*
X53398850Y-74762310D01*
X53543768Y-74426069D01*
X53714616Y-74125658D01*
X53910144Y-73862862D01*
X54129105Y-73639466D01*
X54370250Y-73457256D01*
X54509037Y-73376728D01*
X54594577Y-73333878D01*
X54662916Y-73303232D01*
X54703711Y-73289269D01*
X54710296Y-73289589D01*
G36*
X43514919Y-86227438D02*
G01*
X43541293Y-86228824D01*
X43737512Y-86259446D01*
X43916828Y-86329559D01*
X44086150Y-86442482D01*
X44197680Y-86543977D01*
X44322645Y-86696124D01*
X44441362Y-86893976D01*
X44552650Y-87135125D01*
X44655328Y-87417160D01*
X44704712Y-87578434D01*
X44741593Y-87700408D01*
X44791442Y-87856845D01*
X44850614Y-88036769D01*
X44915467Y-88229204D01*
X44982356Y-88423173D01*
X45029920Y-88558148D01*
X45110782Y-88786082D01*
X45176154Y-88972492D01*
X45227234Y-89121264D01*
X45265221Y-89236285D01*
X45291313Y-89321443D01*
X45306709Y-89380625D01*
X45312606Y-89417718D01*
X45310203Y-89436608D01*
X45302183Y-89441262D01*
X45256500Y-89425699D01*
X45187376Y-89384455D01*
X45105942Y-89325698D01*
X45023325Y-89257594D01*
X44950655Y-89188311D01*
X44936101Y-89172606D01*
X44796026Y-88999582D01*
X44670025Y-88805927D01*
X44555187Y-88585658D01*
X44448601Y-88332792D01*
X44347357Y-88041347D01*
X44284246Y-87832595D01*
X44249418Y-87711643D01*
X44246900Y-87847569D01*
X44258637Y-88051591D01*
X44298513Y-88278817D01*
X44363072Y-88515810D01*
X44448860Y-88749131D01*
X44516628Y-88896976D01*
X44629994Y-89096652D01*
X44772678Y-89306327D01*
X44933085Y-89510176D01*
X45098784Y-89691536D01*
X45179032Y-89773238D01*
X45244184Y-89841875D01*
X45288013Y-89890715D01*
X45304294Y-89913025D01*
X45304146Y-89913561D01*
X45276013Y-89914756D01*
X45213219Y-89906539D01*
X45128003Y-89891369D01*
X45032605Y-89871704D01*
X44939265Y-89850003D01*
X44860223Y-89828726D01*
X44825157Y-89817333D01*
X44740192Y-89781908D01*
X44642247Y-89734573D01*
X44589300Y-89706161D01*
X44522983Y-89672740D01*
X44476965Y-89657203D01*
X44462095Y-89661500D01*
X44479904Y-89695770D01*
X44528388Y-89752994D01*
X44600135Y-89826293D01*
X44687736Y-89908785D01*
X44783777Y-89993592D01*
X44880847Y-90073833D01*
X44971535Y-90142628D01*
X45006381Y-90166749D01*
X45171354Y-90290583D01*
X45344061Y-90444116D01*
X45510806Y-90613673D01*
X45657892Y-90785578D01*
X45743941Y-90903143D01*
X45888203Y-91144908D01*
X46019265Y-91416444D01*
X46128460Y-91699352D01*
X46149397Y-91763547D01*
X46197715Y-91923663D01*
X46227972Y-92040274D01*
X46240149Y-92114769D01*
X46234230Y-92148533D01*
X46210197Y-92142953D01*
X46168031Y-92099416D01*
X46145484Y-92070898D01*
X46108683Y-92026396D01*
X46062917Y-91978949D01*
X46004669Y-91925921D01*
X45930421Y-91864673D01*
X45836655Y-91792567D01*
X45719853Y-91706965D01*
X45576498Y-91605230D01*
X45403072Y-91484723D01*
X45196057Y-91342807D01*
X44965355Y-91185941D01*
X44777945Y-91056539D01*
X44610412Y-90936239D01*
X44467402Y-90828596D01*
X44353564Y-90737167D01*
X44273545Y-90665508D01*
X44244339Y-90634258D01*
X44116739Y-90473018D01*
X44018951Y-90331382D01*
X43944295Y-90197189D01*
X43886093Y-90058280D01*
X43837664Y-89902491D01*
X43833108Y-89885543D01*
X43800700Y-89724271D01*
X43778267Y-89529482D01*
X43766531Y-89315146D01*
X43766212Y-89095235D01*
X43778032Y-88883717D01*
X43780190Y-88860690D01*
X43791299Y-88747730D01*
X43805729Y-88601547D01*
X43822005Y-88437064D01*
X43838651Y-88269201D01*
X43847994Y-88175156D01*
X43864165Y-88002531D01*
X43874209Y-87864442D01*
X43878401Y-87747470D01*
X43877018Y-87638196D01*
X43870334Y-87523199D01*
X43863125Y-87437346D01*
X43819145Y-87129800D01*
X43746479Y-86858233D01*
X43645576Y-86623837D01*
X43516887Y-86427805D01*
X43456591Y-86359209D01*
X43401248Y-86299317D01*
X43362514Y-86253323D01*
X43349334Y-86232491D01*
X43371548Y-86226896D01*
X43430560Y-86225139D01*
X43514919Y-86227438D01*
X43514919Y-86227438D01*
G37*
X43514919Y-86227438D02*
X43541293Y-86228824D01*
X43737512Y-86259446D01*
X43916828Y-86329559D01*
X44086150Y-86442482D01*
X44197680Y-86543977D01*
X44322645Y-86696124D01*
X44441362Y-86893976D01*
X44552650Y-87135125D01*
X44655328Y-87417160D01*
X44704712Y-87578434D01*
X44741593Y-87700408D01*
X44791442Y-87856845D01*
X44850614Y-88036769D01*
X44915467Y-88229204D01*
X44982356Y-88423173D01*
X45029920Y-88558148D01*
X45110782Y-88786082D01*
X45176154Y-88972492D01*
X45227234Y-89121264D01*
X45265221Y-89236285D01*
X45291313Y-89321443D01*
X45306709Y-89380625D01*
X45312606Y-89417718D01*
X45310203Y-89436608D01*
X45302183Y-89441262D01*
X45256500Y-89425699D01*
X45187376Y-89384455D01*
X45105942Y-89325698D01*
X45023325Y-89257594D01*
X44950655Y-89188311D01*
X44936101Y-89172606D01*
X44796026Y-88999582D01*
X44670025Y-88805927D01*
X44555187Y-88585658D01*
X44448601Y-88332792D01*
X44347357Y-88041347D01*
X44284246Y-87832595D01*
X44249418Y-87711643D01*
X44246900Y-87847569D01*
X44258637Y-88051591D01*
X44298513Y-88278817D01*
X44363072Y-88515810D01*
X44448860Y-88749131D01*
X44516628Y-88896976D01*
X44629994Y-89096652D01*
X44772678Y-89306327D01*
X44933085Y-89510176D01*
X45098784Y-89691536D01*
X45179032Y-89773238D01*
X45244184Y-89841875D01*
X45288013Y-89890715D01*
X45304294Y-89913025D01*
X45304146Y-89913561D01*
X45276013Y-89914756D01*
X45213219Y-89906539D01*
X45128003Y-89891369D01*
X45032605Y-89871704D01*
X44939265Y-89850003D01*
X44860223Y-89828726D01*
X44825157Y-89817333D01*
X44740192Y-89781908D01*
X44642247Y-89734573D01*
X44589300Y-89706161D01*
X44522983Y-89672740D01*
X44476965Y-89657203D01*
X44462095Y-89661500D01*
X44479904Y-89695770D01*
X44528388Y-89752994D01*
X44600135Y-89826293D01*
X44687736Y-89908785D01*
X44783777Y-89993592D01*
X44880847Y-90073833D01*
X44971535Y-90142628D01*
X45006381Y-90166749D01*
X45171354Y-90290583D01*
X45344061Y-90444116D01*
X45510806Y-90613673D01*
X45657892Y-90785578D01*
X45743941Y-90903143D01*
X45888203Y-91144908D01*
X46019265Y-91416444D01*
X46128460Y-91699352D01*
X46149397Y-91763547D01*
X46197715Y-91923663D01*
X46227972Y-92040274D01*
X46240149Y-92114769D01*
X46234230Y-92148533D01*
X46210197Y-92142953D01*
X46168031Y-92099416D01*
X46145484Y-92070898D01*
X46108683Y-92026396D01*
X46062917Y-91978949D01*
X46004669Y-91925921D01*
X45930421Y-91864673D01*
X45836655Y-91792567D01*
X45719853Y-91706965D01*
X45576498Y-91605230D01*
X45403072Y-91484723D01*
X45196057Y-91342807D01*
X44965355Y-91185941D01*
X44777945Y-91056539D01*
X44610412Y-90936239D01*
X44467402Y-90828596D01*
X44353564Y-90737167D01*
X44273545Y-90665508D01*
X44244339Y-90634258D01*
X44116739Y-90473018D01*
X44018951Y-90331382D01*
X43944295Y-90197189D01*
X43886093Y-90058280D01*
X43837664Y-89902491D01*
X43833108Y-89885543D01*
X43800700Y-89724271D01*
X43778267Y-89529482D01*
X43766531Y-89315146D01*
X43766212Y-89095235D01*
X43778032Y-88883717D01*
X43780190Y-88860690D01*
X43791299Y-88747730D01*
X43805729Y-88601547D01*
X43822005Y-88437064D01*
X43838651Y-88269201D01*
X43847994Y-88175156D01*
X43864165Y-88002531D01*
X43874209Y-87864442D01*
X43878401Y-87747470D01*
X43877018Y-87638196D01*
X43870334Y-87523199D01*
X43863125Y-87437346D01*
X43819145Y-87129800D01*
X43746479Y-86858233D01*
X43645576Y-86623837D01*
X43516887Y-86427805D01*
X43456591Y-86359209D01*
X43401248Y-86299317D01*
X43362514Y-86253323D01*
X43349334Y-86232491D01*
X43371548Y-86226896D01*
X43430560Y-86225139D01*
X43514919Y-86227438D01*
G36*
X54576095Y-88780274D02*
G01*
X54781778Y-88831654D01*
X54967924Y-88921583D01*
X55143119Y-89053573D01*
X55213803Y-89120691D01*
X55362763Y-89292672D01*
X55488712Y-89487597D01*
X55592395Y-89708464D01*
X55674561Y-89958273D01*
X55735955Y-90240022D01*
X55777323Y-90556710D01*
X55799413Y-90911336D01*
X55802971Y-91306898D01*
X55799487Y-91473262D01*
X55793940Y-91637541D01*
X55787022Y-91794921D01*
X55779286Y-91935569D01*
X55771286Y-92049655D01*
X55763577Y-92127347D01*
X55761988Y-92138500D01*
X55752171Y-92214290D01*
X55740360Y-92325712D01*
X55727774Y-92460122D01*
X55715636Y-92604877D01*
X55710595Y-92670690D01*
X55699647Y-92810648D01*
X55688405Y-92940893D01*
X55677890Y-93050483D01*
X55669125Y-93128478D01*
X55665573Y-93153054D01*
X55649232Y-93248370D01*
X55562601Y-93104673D01*
X55514857Y-93026030D01*
X55450359Y-92920542D01*
X55377852Y-92802483D01*
X55311496Y-92694881D01*
X55100150Y-92349673D01*
X54912709Y-92035928D01*
X54744914Y-91745774D01*
X54592503Y-91471335D01*
X54451214Y-91204740D01*
X54316789Y-90938115D01*
X54184964Y-90663587D01*
X54051480Y-90373281D01*
X54033578Y-90333515D01*
X53966341Y-90185209D01*
X53892864Y-90025413D01*
X53821219Y-89871553D01*
X53759479Y-89741052D01*
X53749109Y-89719452D01*
X53668227Y-89534940D01*
X53619803Y-89380567D01*
X53603959Y-89250486D01*
X53620817Y-89138849D01*
X53670498Y-89039809D01*
X53753125Y-88947519D01*
X53765398Y-88936498D01*
X53879201Y-88855569D01*
X54010108Y-88801722D01*
X54167544Y-88772139D01*
X54342292Y-88763928D01*
X54576095Y-88780274D01*
X54576095Y-88780274D01*
G37*
X54576095Y-88780274D02*
X54781778Y-88831654D01*
X54967924Y-88921583D01*
X55143119Y-89053573D01*
X55213803Y-89120691D01*
X55362763Y-89292672D01*
X55488712Y-89487597D01*
X55592395Y-89708464D01*
X55674561Y-89958273D01*
X55735955Y-90240022D01*
X55777323Y-90556710D01*
X55799413Y-90911336D01*
X55802971Y-91306898D01*
X55799487Y-91473262D01*
X55793940Y-91637541D01*
X55787022Y-91794921D01*
X55779286Y-91935569D01*
X55771286Y-92049655D01*
X55763577Y-92127347D01*
X55761988Y-92138500D01*
X55752171Y-92214290D01*
X55740360Y-92325712D01*
X55727774Y-92460122D01*
X55715636Y-92604877D01*
X55710595Y-92670690D01*
X55699647Y-92810648D01*
X55688405Y-92940893D01*
X55677890Y-93050483D01*
X55669125Y-93128478D01*
X55665573Y-93153054D01*
X55649232Y-93248370D01*
X55562601Y-93104673D01*
X55514857Y-93026030D01*
X55450359Y-92920542D01*
X55377852Y-92802483D01*
X55311496Y-92694881D01*
X55100150Y-92349673D01*
X54912709Y-92035928D01*
X54744914Y-91745774D01*
X54592503Y-91471335D01*
X54451214Y-91204740D01*
X54316789Y-90938115D01*
X54184964Y-90663587D01*
X54051480Y-90373281D01*
X54033578Y-90333515D01*
X53966341Y-90185209D01*
X53892864Y-90025413D01*
X53821219Y-89871553D01*
X53759479Y-89741052D01*
X53749109Y-89719452D01*
X53668227Y-89534940D01*
X53619803Y-89380567D01*
X53603959Y-89250486D01*
X53620817Y-89138849D01*
X53670498Y-89039809D01*
X53753125Y-88947519D01*
X53765398Y-88936498D01*
X53879201Y-88855569D01*
X54010108Y-88801722D01*
X54167544Y-88772139D01*
X54342292Y-88763928D01*
X54576095Y-88780274D01*
G36*
X46046410Y-94438638D02*
G01*
X46175657Y-94449583D01*
X46276898Y-94468970D01*
X46309573Y-94480387D01*
X46377870Y-94506282D01*
X46432533Y-94520404D01*
X46442621Y-94521281D01*
X46488635Y-94533030D01*
X46567630Y-94565547D01*
X46671063Y-94614773D01*
X46790388Y-94676652D01*
X46911599Y-94743985D01*
X46958382Y-94771030D01*
X47002576Y-94797377D01*
X47046546Y-94825005D01*
X47092654Y-94855891D01*
X47143264Y-94892012D01*
X47200740Y-94935348D01*
X47267445Y-94987875D01*
X47345742Y-95051571D01*
X47437996Y-95128415D01*
X47546569Y-95220383D01*
X47673825Y-95329455D01*
X47822128Y-95457607D01*
X47993841Y-95606818D01*
X48191328Y-95779065D01*
X48416952Y-95976326D01*
X48673076Y-96200579D01*
X48962065Y-96453801D01*
X49114334Y-96587260D01*
X49295220Y-96746191D01*
X49464593Y-96895753D01*
X49619046Y-97032884D01*
X49755169Y-97154523D01*
X49869555Y-97257609D01*
X49958796Y-97339079D01*
X50019483Y-97395872D01*
X50048210Y-97424926D01*
X50050095Y-97427879D01*
X50033103Y-97447241D01*
X50002476Y-97440684D01*
X49999540Y-97438071D01*
X49973864Y-97431796D01*
X49906675Y-97419307D01*
X49804291Y-97401669D01*
X49673028Y-97379946D01*
X49519204Y-97355201D01*
X49349137Y-97328500D01*
X49348413Y-97328388D01*
X49019229Y-97276446D01*
X48732304Y-97229108D01*
X48481870Y-97185138D01*
X48262161Y-97143300D01*
X48067408Y-97102356D01*
X47891843Y-97061072D01*
X47729699Y-97018211D01*
X47575207Y-96972536D01*
X47422601Y-96922811D01*
X47367156Y-96903731D01*
X46987564Y-96750365D01*
X46640179Y-96566668D01*
X46327188Y-96354307D01*
X46050778Y-96114954D01*
X45813136Y-95850276D01*
X45622418Y-95572077D01*
X45494295Y-95331414D01*
X45403347Y-95101937D01*
X45344730Y-94870844D01*
X45334460Y-94810666D01*
X45321653Y-94692429D01*
X45330317Y-94609739D01*
X45366188Y-94552395D01*
X45434998Y-94510193D01*
X45520571Y-94479563D01*
X45626235Y-94456597D01*
X45758137Y-94442131D01*
X45902716Y-94436149D01*
X46046410Y-94438638D01*
X46046410Y-94438638D01*
G37*
X46046410Y-94438638D02*
X46175657Y-94449583D01*
X46276898Y-94468970D01*
X46309573Y-94480387D01*
X46377870Y-94506282D01*
X46432533Y-94520404D01*
X46442621Y-94521281D01*
X46488635Y-94533030D01*
X46567630Y-94565547D01*
X46671063Y-94614773D01*
X46790388Y-94676652D01*
X46911599Y-94743985D01*
X46958382Y-94771030D01*
X47002576Y-94797377D01*
X47046546Y-94825005D01*
X47092654Y-94855891D01*
X47143264Y-94892012D01*
X47200740Y-94935348D01*
X47267445Y-94987875D01*
X47345742Y-95051571D01*
X47437996Y-95128415D01*
X47546569Y-95220383D01*
X47673825Y-95329455D01*
X47822128Y-95457607D01*
X47993841Y-95606818D01*
X48191328Y-95779065D01*
X48416952Y-95976326D01*
X48673076Y-96200579D01*
X48962065Y-96453801D01*
X49114334Y-96587260D01*
X49295220Y-96746191D01*
X49464593Y-96895753D01*
X49619046Y-97032884D01*
X49755169Y-97154523D01*
X49869555Y-97257609D01*
X49958796Y-97339079D01*
X50019483Y-97395872D01*
X50048210Y-97424926D01*
X50050095Y-97427879D01*
X50033103Y-97447241D01*
X50002476Y-97440684D01*
X49999540Y-97438071D01*
X49973864Y-97431796D01*
X49906675Y-97419307D01*
X49804291Y-97401669D01*
X49673028Y-97379946D01*
X49519204Y-97355201D01*
X49349137Y-97328500D01*
X49348413Y-97328388D01*
X49019229Y-97276446D01*
X48732304Y-97229108D01*
X48481870Y-97185138D01*
X48262161Y-97143300D01*
X48067408Y-97102356D01*
X47891843Y-97061072D01*
X47729699Y-97018211D01*
X47575207Y-96972536D01*
X47422601Y-96922811D01*
X47367156Y-96903731D01*
X46987564Y-96750365D01*
X46640179Y-96566668D01*
X46327188Y-96354307D01*
X46050778Y-96114954D01*
X45813136Y-95850276D01*
X45622418Y-95572077D01*
X45494295Y-95331414D01*
X45403347Y-95101937D01*
X45344730Y-94870844D01*
X45334460Y-94810666D01*
X45321653Y-94692429D01*
X45330317Y-94609739D01*
X45366188Y-94552395D01*
X45434998Y-94510193D01*
X45520571Y-94479563D01*
X45626235Y-94456597D01*
X45758137Y-94442131D01*
X45902716Y-94436149D01*
X46046410Y-94438638D01*
G36*
X50289761Y-78942647D02*
G01*
X50389274Y-78945908D01*
X50449905Y-78952721D01*
X50451978Y-78953216D01*
X50474107Y-78961329D01*
X50478318Y-78973150D01*
X50459807Y-78992104D01*
X50413773Y-79021615D01*
X50335413Y-79065109D01*
X50219925Y-79126011D01*
X50182076Y-79145716D01*
X49879431Y-79309358D01*
X49572613Y-79487036D01*
X49270729Y-79672903D01*
X48982882Y-79861112D01*
X48718179Y-80045814D01*
X48485726Y-80221164D01*
X48402219Y-80288696D01*
X48241026Y-80430553D01*
X48086248Y-80582364D01*
X47945933Y-80735269D01*
X47828128Y-80880410D01*
X47740881Y-81008928D01*
X47728868Y-81029928D01*
X47639098Y-81218038D01*
X47555842Y-81441906D01*
X47483107Y-81688974D01*
X47424900Y-81946683D01*
X47410093Y-82028779D01*
X47380651Y-82255983D01*
X47362042Y-82515061D01*
X47354369Y-82790709D01*
X47357736Y-83067626D01*
X47372247Y-83330508D01*
X47398004Y-83564052D01*
X47399648Y-83575071D01*
X47423542Y-83715803D01*
X47454705Y-83874278D01*
X47490643Y-84039985D01*
X47528859Y-84202413D01*
X47566859Y-84351053D01*
X47602148Y-84475393D01*
X47632231Y-84564923D01*
X47637993Y-84579116D01*
X47674089Y-84663643D01*
X47667521Y-84542690D01*
X47666198Y-84446336D01*
X47669772Y-84313633D01*
X47677460Y-84156277D01*
X47688481Y-83985967D01*
X47702051Y-83814398D01*
X47717386Y-83653269D01*
X47733705Y-83514276D01*
X47738792Y-83477850D01*
X47777705Y-83255951D01*
X47823647Y-83080015D01*
X47878406Y-82947907D01*
X47943769Y-82857493D01*
X48021521Y-82806640D01*
X48113451Y-82793213D01*
X48221344Y-82815079D01*
X48276159Y-82836113D01*
X48397706Y-82908059D01*
X48517181Y-83013269D01*
X48620790Y-83138064D01*
X48679847Y-83236404D01*
X48727587Y-83357734D01*
X48772072Y-83518977D01*
X48812181Y-83711714D01*
X48846791Y-83927524D01*
X48874779Y-84157988D01*
X48895023Y-84394684D01*
X48906399Y-84629194D01*
X48907786Y-84853096D01*
X48905614Y-84929738D01*
X48897453Y-85097328D01*
X48885694Y-85250354D01*
X48868789Y-85396893D01*
X48845193Y-85545024D01*
X48813360Y-85702825D01*
X48771743Y-85878374D01*
X48718796Y-86079749D01*
X48652973Y-86315028D01*
X48615573Y-86445061D01*
X48605432Y-86486929D01*
X48605711Y-86523186D01*
X48620667Y-86564207D01*
X48654559Y-86620371D01*
X48711643Y-86702053D01*
X48733466Y-86732446D01*
X49014533Y-87100152D01*
X49316672Y-87449689D01*
X49645788Y-87786930D01*
X50007783Y-88117747D01*
X50408563Y-88448014D01*
X50627315Y-88616262D01*
X50767775Y-88723197D01*
X50914956Y-88837282D01*
X51056870Y-88949087D01*
X51181532Y-89049184D01*
X51261382Y-89114999D01*
X51375969Y-89206744D01*
X51515729Y-89311882D01*
X51664525Y-89418623D01*
X51806220Y-89515176D01*
X51833022Y-89532703D01*
X52131659Y-89728389D01*
X52393988Y-89905172D01*
X52625983Y-90067667D01*
X52833617Y-90220489D01*
X53022863Y-90368252D01*
X53199693Y-90515573D01*
X53370081Y-90667066D01*
X53539998Y-90827347D01*
X53655584Y-90940982D01*
X54002619Y-91308378D01*
X54321349Y-91691536D01*
X54614446Y-92094994D01*
X54884579Y-92523292D01*
X55134417Y-92980970D01*
X55366632Y-93472567D01*
X55583894Y-94002623D01*
X55782785Y-94557547D01*
X55849553Y-94758512D01*
X55911480Y-94949658D01*
X55966997Y-95125754D01*
X56014537Y-95281568D01*
X56052532Y-95411870D01*
X56079412Y-95511428D01*
X56093611Y-95575011D01*
X56094393Y-95597028D01*
X56065586Y-95598890D01*
X56010282Y-95587950D01*
X55999350Y-95584911D01*
X55864966Y-95569541D01*
X55731525Y-95596334D01*
X55606885Y-95659570D01*
X55498900Y-95753528D01*
X55415425Y-95872485D01*
X55364316Y-96010722D01*
X55356762Y-96052922D01*
X55358577Y-96206999D01*
X55403221Y-96351681D01*
X55485189Y-96479762D01*
X55598979Y-96584034D01*
X55739087Y-96657291D01*
X55838964Y-96684378D01*
X55957054Y-96685575D01*
X56085958Y-96654553D01*
X56206885Y-96597361D01*
X56279146Y-96542731D01*
X56333022Y-96498509D01*
X56368000Y-96483106D01*
X56376057Y-96488555D01*
X56475059Y-96800470D01*
X56565142Y-97105163D01*
X56644413Y-97395335D01*
X56710976Y-97663688D01*
X56762940Y-97902923D01*
X56798408Y-98105741D01*
X56801660Y-98128692D01*
X56809655Y-98214552D01*
X56815105Y-98330197D01*
X56818125Y-98466213D01*
X56818829Y-98613185D01*
X56817335Y-98761701D01*
X56813756Y-98902344D01*
X56808209Y-99025701D01*
X56800809Y-99122357D01*
X56791672Y-99182898D01*
X56788608Y-99192614D01*
X56794213Y-99230447D01*
X56838916Y-99260068D01*
X56913718Y-99278520D01*
X57009621Y-99282847D01*
X57053804Y-99279764D01*
X57204415Y-99243175D01*
X57349268Y-99176291D01*
X57484160Y-99102544D01*
X57584663Y-99049098D01*
X57658643Y-99012693D01*
X57713969Y-98990072D01*
X57758506Y-98977974D01*
X57800123Y-98973141D01*
X57841672Y-98972309D01*
X57932533Y-98981080D01*
X58002338Y-99012930D01*
X58031642Y-99035395D01*
X58108270Y-99110524D01*
X58145831Y-99170080D01*
X58146003Y-99209470D01*
X58110467Y-99224103D01*
X58040903Y-99209389D01*
X57978071Y-99181830D01*
X57903488Y-99146048D01*
X57851568Y-99130664D01*
X57802378Y-99133130D01*
X57736016Y-99150889D01*
X57660580Y-99180812D01*
X57564117Y-99228946D01*
X57465293Y-99285840D01*
X57447942Y-99296762D01*
X57353688Y-99352734D01*
X57261208Y-99400425D01*
X57187607Y-99431166D01*
X57175553Y-99434818D01*
X57087718Y-99448147D01*
X56981518Y-99450135D01*
X56878439Y-99441533D01*
X56799971Y-99423095D01*
X56796144Y-99421536D01*
X56773783Y-99420475D01*
X56755152Y-99444390D01*
X56736193Y-99501373D01*
X56717645Y-99578053D01*
X56655634Y-99773764D01*
X56563123Y-99962136D01*
X56449582Y-100124271D01*
X56436149Y-100139767D01*
X56347728Y-100239404D01*
X56031518Y-100240857D01*
X55715307Y-100242309D01*
X55677491Y-100375357D01*
X55623345Y-100521910D01*
X55549189Y-100638625D01*
X55447857Y-100732224D01*
X55312178Y-100809428D01*
X55146596Y-100873163D01*
X54992696Y-100926959D01*
X54879324Y-100975603D01*
X54799781Y-101024458D01*
X54747370Y-101078883D01*
X54715394Y-101144239D01*
X54697154Y-101225887D01*
X54696015Y-101233801D01*
X54675563Y-101308249D01*
X54642494Y-101337950D01*
X54601840Y-101334775D01*
X54590910Y-101326172D01*
X54566998Y-101254333D01*
X54559293Y-101162703D01*
X54569698Y-101077709D01*
X54572370Y-101068859D01*
X54611635Y-100988200D01*
X54675615Y-100919878D01*
X54771244Y-100858771D01*
X54905457Y-100799756D01*
X54967364Y-100777043D01*
X55077171Y-100736059D01*
X55179213Y-100694024D01*
X55258553Y-100657268D01*
X55287363Y-100641434D01*
X55396005Y-100553652D01*
X55469628Y-100449780D01*
X55502106Y-100338910D01*
X55503077Y-100321064D01*
X55505048Y-100221552D01*
X55287334Y-100189936D01*
X54954852Y-100130227D01*
X54592515Y-100044430D01*
X54209171Y-99935484D01*
X53813671Y-99806327D01*
X53414864Y-99659899D01*
X53021601Y-99499138D01*
X52642730Y-99326982D01*
X52544379Y-99279091D01*
X52403401Y-99208714D01*
X52301504Y-99155870D01*
X52233953Y-99117573D01*
X52196015Y-99090840D01*
X52182955Y-99072686D01*
X52190039Y-99060124D01*
X52193618Y-99057931D01*
X52235956Y-99027064D01*
X52295620Y-98974782D01*
X52336757Y-98935172D01*
X52428973Y-98812422D01*
X52479537Y-98677184D01*
X52491003Y-98536635D01*
X52465923Y-98397952D01*
X52406851Y-98268312D01*
X52316340Y-98154893D01*
X52196941Y-98064872D01*
X52051208Y-98005426D01*
X52002179Y-97994526D01*
X51879894Y-97993407D01*
X51749201Y-98026737D01*
X51628252Y-98088528D01*
X51566342Y-98138290D01*
X51475128Y-98242926D01*
X51419551Y-98350688D01*
X51394804Y-98446166D01*
X51380993Y-98504276D01*
X51367213Y-98535287D01*
X51364297Y-98536881D01*
X51333111Y-98520275D01*
X51272682Y-98473271D01*
X51187567Y-98400084D01*
X51082324Y-98304934D01*
X50961509Y-98192037D01*
X50829679Y-98065611D01*
X50691391Y-97929874D01*
X50551201Y-97789042D01*
X50502156Y-97738946D01*
X50360375Y-97595339D01*
X50207751Y-97443994D01*
X50054198Y-97294520D01*
X49909627Y-97156524D01*
X49783950Y-97039615D01*
X49735619Y-96995925D01*
X49404256Y-96688230D01*
X49068227Y-96353925D01*
X48738647Y-96004864D01*
X48426629Y-95652901D01*
X48143289Y-95309888D01*
X48084412Y-95234881D01*
X47996121Y-95119539D01*
X47905748Y-94998529D01*
X47818024Y-94878519D01*
X47737679Y-94766174D01*
X47669447Y-94668161D01*
X47618058Y-94591146D01*
X47588243Y-94541797D01*
X47582667Y-94527934D01*
X47568166Y-94498579D01*
X47531558Y-94448410D01*
X47511079Y-94423586D01*
X47467617Y-94367530D01*
X47441644Y-94324009D01*
X47438507Y-94313224D01*
X47424657Y-94279944D01*
X47390167Y-94223170D01*
X47360746Y-94180626D01*
X47316657Y-94115042D01*
X47257835Y-94021079D01*
X47192889Y-93912734D01*
X47145800Y-93831264D01*
X46901866Y-93376237D01*
X46854739Y-93275878D01*
X50521666Y-93275878D01*
X50525135Y-93367185D01*
X50535847Y-93445745D01*
X50564341Y-93562649D01*
X50606984Y-93638782D01*
X50672427Y-93680944D01*
X50769319Y-93695933D01*
X50852177Y-93694387D01*
X50923985Y-93688826D01*
X50982185Y-93678087D01*
X51038587Y-93657207D01*
X51105002Y-93621225D01*
X51193240Y-93565178D01*
X51251320Y-93526689D01*
X51355713Y-93459425D01*
X51455716Y-93399023D01*
X51538860Y-93352792D01*
X51586365Y-93330327D01*
X51690666Y-93299924D01*
X51837632Y-93272330D01*
X52021588Y-93248405D01*
X52236858Y-93229008D01*
X52272273Y-93226489D01*
X52516518Y-93197285D01*
X52721221Y-93146229D01*
X52884978Y-93073806D01*
X53006385Y-92980498D01*
X53015923Y-92970281D01*
X53067075Y-92926803D01*
X53137524Y-92881447D01*
X53157478Y-92870716D01*
X53221453Y-92829401D01*
X53302139Y-92765347D01*
X53383491Y-92691421D01*
X53394022Y-92681015D01*
X53539092Y-92504700D01*
X53639836Y-92312804D01*
X53696203Y-92109256D01*
X53708140Y-91897985D01*
X53675595Y-91682920D01*
X53598515Y-91467990D01*
X53476848Y-91257125D01*
X53414137Y-91172848D01*
X53300817Y-91043361D01*
X53168880Y-90918213D01*
X53012702Y-90793169D01*
X52826660Y-90663992D01*
X52605130Y-90526447D01*
X52396572Y-90406417D01*
X52202628Y-90300237D01*
X52040343Y-90217525D01*
X51901227Y-90154756D01*
X51776788Y-90108405D01*
X51658534Y-90074948D01*
X51541462Y-90051438D01*
X51337173Y-90031218D01*
X51164471Y-90045162D01*
X51019668Y-90094319D01*
X50899078Y-90179741D01*
X50833520Y-90253118D01*
X50801966Y-90298152D01*
X50781218Y-90342083D01*
X50768448Y-90397219D01*
X50760829Y-90475871D01*
X50755533Y-90590348D01*
X50755433Y-90593048D01*
X50755751Y-90773100D01*
X50770138Y-90974328D01*
X50799470Y-91208964D01*
X50799709Y-91210606D01*
X50825956Y-91412840D01*
X50840694Y-91585918D01*
X50845089Y-91747375D01*
X50842801Y-91858497D01*
X50838043Y-91962781D01*
X50830903Y-92049745D01*
X50819050Y-92130442D01*
X50800157Y-92215921D01*
X50771893Y-92317235D01*
X50731930Y-92445434D01*
X50695246Y-92558624D01*
X50630557Y-92761972D01*
X50582209Y-92927831D01*
X50548848Y-93063741D01*
X50529118Y-93177244D01*
X50521666Y-93275878D01*
X46854739Y-93275878D01*
X46688921Y-92922769D01*
X46502520Y-92459552D01*
X46338217Y-91975281D01*
X46262630Y-91708986D01*
X46566306Y-91708986D01*
X46589922Y-91902792D01*
X46640729Y-92086551D01*
X46685679Y-92207329D01*
X46742943Y-92340718D01*
X46809018Y-92480555D01*
X46880403Y-92620677D01*
X46953595Y-92754922D01*
X47025094Y-92877127D01*
X47091397Y-92981130D01*
X47149002Y-93060768D01*
X47194407Y-93109879D01*
X47224111Y-93122301D01*
X47227887Y-93119813D01*
X47272984Y-93097369D01*
X47298183Y-93094024D01*
X47369777Y-93076902D01*
X47458307Y-93031153D01*
X47549597Y-92965196D01*
X47610340Y-92908597D01*
X47694436Y-92806492D01*
X47761250Y-92692141D01*
X47812983Y-92558401D01*
X47851834Y-92398128D01*
X47880005Y-92204178D01*
X47899695Y-91969407D01*
X47899710Y-91969166D01*
X47910506Y-91823086D01*
X47923899Y-91680919D01*
X47938474Y-91555566D01*
X47952819Y-91459927D01*
X47958733Y-91430412D01*
X48011921Y-91254974D01*
X48089108Y-91098767D01*
X48194918Y-90956740D01*
X48333977Y-90823840D01*
X48510912Y-90695017D01*
X48730348Y-90565217D01*
X48771039Y-90543315D01*
X48903981Y-90467582D01*
X48999533Y-90398978D01*
X49066070Y-90328940D01*
X49111967Y-90248904D01*
X49141660Y-90164357D01*
X49161291Y-90076341D01*
X49180974Y-89954318D01*
X49199040Y-89812631D01*
X49213818Y-89665624D01*
X49223638Y-89527640D01*
X49226805Y-89433071D01*
X49227619Y-89340214D01*
X49065666Y-89488614D01*
X48916540Y-89607289D01*
X48735700Y-89717836D01*
X48518711Y-89822453D01*
X48261143Y-89923333D01*
X48035540Y-89998850D01*
X47768610Y-90084952D01*
X47544212Y-90161961D01*
X47357774Y-90231823D01*
X47204723Y-90296481D01*
X47080487Y-90357882D01*
X46980493Y-90417969D01*
X46900169Y-90478688D01*
X46893164Y-90484762D01*
X46824956Y-90552691D01*
X46777449Y-90623817D01*
X46745277Y-90710786D01*
X46723073Y-90826245D01*
X46712804Y-90909809D01*
X46693500Y-91039714D01*
X46664284Y-91182052D01*
X46631211Y-91307614D01*
X46628592Y-91316024D01*
X46579274Y-91518368D01*
X46566306Y-91708986D01*
X46262630Y-91708986D01*
X46191570Y-91458646D01*
X46152499Y-91304350D01*
X46101435Y-91101518D01*
X46053588Y-90921533D01*
X46005930Y-90755213D01*
X45955433Y-90593379D01*
X45899069Y-90426849D01*
X45833809Y-90246443D01*
X45756626Y-90042980D01*
X45664490Y-89807279D01*
X45629730Y-89719452D01*
X45443477Y-89233090D01*
X45282854Y-88775529D01*
X45145040Y-88336443D01*
X45027213Y-87905503D01*
X44926550Y-87472382D01*
X44840229Y-87026751D01*
X44773797Y-86610686D01*
X45559744Y-86610686D01*
X45561547Y-86694654D01*
X45562345Y-86707738D01*
X45606161Y-87024101D01*
X45690345Y-87320569D01*
X45816739Y-87601006D01*
X45987185Y-87869277D01*
X46203523Y-88129246D01*
X46275010Y-88203538D01*
X46397433Y-88330792D01*
X46488702Y-88436365D01*
X46554805Y-88529580D01*
X46601730Y-88619758D01*
X46635466Y-88716220D01*
X46655010Y-88795071D01*
X46678971Y-88885109D01*
X46706178Y-88958367D01*
X46731043Y-88999998D01*
X46732754Y-89001511D01*
X46793800Y-89022522D01*
X46878565Y-89014662D01*
X46973591Y-88980019D01*
X47013466Y-88957900D01*
X47083270Y-88897359D01*
X47140860Y-88806969D01*
X47188564Y-88681392D01*
X47228715Y-88515290D01*
X47244491Y-88428570D01*
X47275975Y-88260966D01*
X47307690Y-88135484D01*
X47341732Y-88045901D01*
X47380196Y-87985993D01*
X47400004Y-87966643D01*
X47435091Y-87945445D01*
X47472366Y-87950747D01*
X47513451Y-87972049D01*
X47562305Y-87997361D01*
X47587227Y-87993555D01*
X47606033Y-87955958D01*
X47609526Y-87946858D01*
X47655045Y-87776277D01*
X47667621Y-87599882D01*
X47656460Y-87489461D01*
X47623594Y-87357785D01*
X47572978Y-87239058D01*
X47497580Y-87120379D01*
X47390369Y-86988847D01*
X47372954Y-86969268D01*
X47277905Y-86857219D01*
X47203635Y-86752741D01*
X47140450Y-86639766D01*
X47078658Y-86502227D01*
X47053030Y-86438929D01*
X46982608Y-86304600D01*
X46886319Y-86200793D01*
X46755228Y-86118917D01*
X46690013Y-86089964D01*
X46573347Y-86039707D01*
X46493593Y-85997021D01*
X46441349Y-85955490D01*
X46407211Y-85908699D01*
X46398298Y-85890970D01*
X46385230Y-85853413D01*
X46361094Y-85774635D01*
X46327459Y-85660116D01*
X46285896Y-85515336D01*
X46237974Y-85345775D01*
X46185263Y-85156913D01*
X46129334Y-84954229D01*
X46116606Y-84907791D01*
X46061006Y-84705454D01*
X46009078Y-84517984D01*
X45962257Y-84350455D01*
X45921982Y-84207941D01*
X45889688Y-84095516D01*
X45866812Y-84018254D01*
X45854791Y-83981230D01*
X45853589Y-83978787D01*
X45837887Y-83991048D01*
X45811588Y-84038078D01*
X45779407Y-84108748D01*
X45746062Y-84191935D01*
X45716268Y-84276511D01*
X45694742Y-84351351D01*
X45693620Y-84356143D01*
X45674785Y-84447362D01*
X45655353Y-84555480D01*
X45645832Y-84615262D01*
X45637448Y-84691159D01*
X45628316Y-84807738D01*
X45618727Y-84957727D01*
X45608971Y-85133848D01*
X45599338Y-85328829D01*
X45590119Y-85535395D01*
X45581604Y-85746270D01*
X45574083Y-85954181D01*
X45567846Y-86151853D01*
X45563184Y-86332010D01*
X45560386Y-86487379D01*
X45559744Y-86610686D01*
X44773797Y-86610686D01*
X44765429Y-86558284D01*
X44764877Y-86554472D01*
X44707661Y-86114222D01*
X44663291Y-85677213D01*
X44632095Y-85250722D01*
X44614403Y-84842026D01*
X44610541Y-84458404D01*
X44620839Y-84107133D01*
X44642026Y-83829071D01*
X44723011Y-83244538D01*
X44842856Y-82686822D01*
X45002454Y-82152754D01*
X45202700Y-81639164D01*
X45344884Y-81335190D01*
X45424164Y-81180989D01*
X45509187Y-81024106D01*
X45594576Y-80873786D01*
X45674948Y-80739273D01*
X45744926Y-80629814D01*
X45799009Y-80554801D01*
X45854913Y-80485769D01*
X45845354Y-80654934D01*
X45844509Y-80765407D01*
X45852084Y-80879063D01*
X45863184Y-80953775D01*
X45884542Y-81032443D01*
X45915676Y-81120917D01*
X45951409Y-81207329D01*
X45986563Y-81279807D01*
X46015963Y-81326484D01*
X46030531Y-81337452D01*
X46044742Y-81316029D01*
X46063578Y-81260903D01*
X46076653Y-81210452D01*
X46115543Y-81087959D01*
X46178581Y-80940995D01*
X46259021Y-80782322D01*
X46350120Y-80624703D01*
X46445133Y-80480902D01*
X46501906Y-80405702D01*
X46736001Y-80150120D01*
X47011605Y-79911978D01*
X47324261Y-79693631D01*
X47669508Y-79497437D01*
X48042886Y-79325753D01*
X48439936Y-79180937D01*
X48856198Y-79065346D01*
X49155048Y-79003365D01*
X49247272Y-78990526D01*
X49371357Y-78978504D01*
X49518462Y-78967639D01*
X49679743Y-78958273D01*
X49846356Y-78950750D01*
X50009459Y-78945409D01*
X50160208Y-78942594D01*
X50289761Y-78942647D01*
X50289761Y-78942647D01*
G37*
X50289761Y-78942647D02*
X50389274Y-78945908D01*
X50449905Y-78952721D01*
X50451978Y-78953216D01*
X50474107Y-78961329D01*
X50478318Y-78973150D01*
X50459807Y-78992104D01*
X50413773Y-79021615D01*
X50335413Y-79065109D01*
X50219925Y-79126011D01*
X50182076Y-79145716D01*
X49879431Y-79309358D01*
X49572613Y-79487036D01*
X49270729Y-79672903D01*
X48982882Y-79861112D01*
X48718179Y-80045814D01*
X48485726Y-80221164D01*
X48402219Y-80288696D01*
X48241026Y-80430553D01*
X48086248Y-80582364D01*
X47945933Y-80735269D01*
X47828128Y-80880410D01*
X47740881Y-81008928D01*
X47728868Y-81029928D01*
X47639098Y-81218038D01*
X47555842Y-81441906D01*
X47483107Y-81688974D01*
X47424900Y-81946683D01*
X47410093Y-82028779D01*
X47380651Y-82255983D01*
X47362042Y-82515061D01*
X47354369Y-82790709D01*
X47357736Y-83067626D01*
X47372247Y-83330508D01*
X47398004Y-83564052D01*
X47399648Y-83575071D01*
X47423542Y-83715803D01*
X47454705Y-83874278D01*
X47490643Y-84039985D01*
X47528859Y-84202413D01*
X47566859Y-84351053D01*
X47602148Y-84475393D01*
X47632231Y-84564923D01*
X47637993Y-84579116D01*
X47674089Y-84663643D01*
X47667521Y-84542690D01*
X47666198Y-84446336D01*
X47669772Y-84313633D01*
X47677460Y-84156277D01*
X47688481Y-83985967D01*
X47702051Y-83814398D01*
X47717386Y-83653269D01*
X47733705Y-83514276D01*
X47738792Y-83477850D01*
X47777705Y-83255951D01*
X47823647Y-83080015D01*
X47878406Y-82947907D01*
X47943769Y-82857493D01*
X48021521Y-82806640D01*
X48113451Y-82793213D01*
X48221344Y-82815079D01*
X48276159Y-82836113D01*
X48397706Y-82908059D01*
X48517181Y-83013269D01*
X48620790Y-83138064D01*
X48679847Y-83236404D01*
X48727587Y-83357734D01*
X48772072Y-83518977D01*
X48812181Y-83711714D01*
X48846791Y-83927524D01*
X48874779Y-84157988D01*
X48895023Y-84394684D01*
X48906399Y-84629194D01*
X48907786Y-84853096D01*
X48905614Y-84929738D01*
X48897453Y-85097328D01*
X48885694Y-85250354D01*
X48868789Y-85396893D01*
X48845193Y-85545024D01*
X48813360Y-85702825D01*
X48771743Y-85878374D01*
X48718796Y-86079749D01*
X48652973Y-86315028D01*
X48615573Y-86445061D01*
X48605432Y-86486929D01*
X48605711Y-86523186D01*
X48620667Y-86564207D01*
X48654559Y-86620371D01*
X48711643Y-86702053D01*
X48733466Y-86732446D01*
X49014533Y-87100152D01*
X49316672Y-87449689D01*
X49645788Y-87786930D01*
X50007783Y-88117747D01*
X50408563Y-88448014D01*
X50627315Y-88616262D01*
X50767775Y-88723197D01*
X50914956Y-88837282D01*
X51056870Y-88949087D01*
X51181532Y-89049184D01*
X51261382Y-89114999D01*
X51375969Y-89206744D01*
X51515729Y-89311882D01*
X51664525Y-89418623D01*
X51806220Y-89515176D01*
X51833022Y-89532703D01*
X52131659Y-89728389D01*
X52393988Y-89905172D01*
X52625983Y-90067667D01*
X52833617Y-90220489D01*
X53022863Y-90368252D01*
X53199693Y-90515573D01*
X53370081Y-90667066D01*
X53539998Y-90827347D01*
X53655584Y-90940982D01*
X54002619Y-91308378D01*
X54321349Y-91691536D01*
X54614446Y-92094994D01*
X54884579Y-92523292D01*
X55134417Y-92980970D01*
X55366632Y-93472567D01*
X55583894Y-94002623D01*
X55782785Y-94557547D01*
X55849553Y-94758512D01*
X55911480Y-94949658D01*
X55966997Y-95125754D01*
X56014537Y-95281568D01*
X56052532Y-95411870D01*
X56079412Y-95511428D01*
X56093611Y-95575011D01*
X56094393Y-95597028D01*
X56065586Y-95598890D01*
X56010282Y-95587950D01*
X55999350Y-95584911D01*
X55864966Y-95569541D01*
X55731525Y-95596334D01*
X55606885Y-95659570D01*
X55498900Y-95753528D01*
X55415425Y-95872485D01*
X55364316Y-96010722D01*
X55356762Y-96052922D01*
X55358577Y-96206999D01*
X55403221Y-96351681D01*
X55485189Y-96479762D01*
X55598979Y-96584034D01*
X55739087Y-96657291D01*
X55838964Y-96684378D01*
X55957054Y-96685575D01*
X56085958Y-96654553D01*
X56206885Y-96597361D01*
X56279146Y-96542731D01*
X56333022Y-96498509D01*
X56368000Y-96483106D01*
X56376057Y-96488555D01*
X56475059Y-96800470D01*
X56565142Y-97105163D01*
X56644413Y-97395335D01*
X56710976Y-97663688D01*
X56762940Y-97902923D01*
X56798408Y-98105741D01*
X56801660Y-98128692D01*
X56809655Y-98214552D01*
X56815105Y-98330197D01*
X56818125Y-98466213D01*
X56818829Y-98613185D01*
X56817335Y-98761701D01*
X56813756Y-98902344D01*
X56808209Y-99025701D01*
X56800809Y-99122357D01*
X56791672Y-99182898D01*
X56788608Y-99192614D01*
X56794213Y-99230447D01*
X56838916Y-99260068D01*
X56913718Y-99278520D01*
X57009621Y-99282847D01*
X57053804Y-99279764D01*
X57204415Y-99243175D01*
X57349268Y-99176291D01*
X57484160Y-99102544D01*
X57584663Y-99049098D01*
X57658643Y-99012693D01*
X57713969Y-98990072D01*
X57758506Y-98977974D01*
X57800123Y-98973141D01*
X57841672Y-98972309D01*
X57932533Y-98981080D01*
X58002338Y-99012930D01*
X58031642Y-99035395D01*
X58108270Y-99110524D01*
X58145831Y-99170080D01*
X58146003Y-99209470D01*
X58110467Y-99224103D01*
X58040903Y-99209389D01*
X57978071Y-99181830D01*
X57903488Y-99146048D01*
X57851568Y-99130664D01*
X57802378Y-99133130D01*
X57736016Y-99150889D01*
X57660580Y-99180812D01*
X57564117Y-99228946D01*
X57465293Y-99285840D01*
X57447942Y-99296762D01*
X57353688Y-99352734D01*
X57261208Y-99400425D01*
X57187607Y-99431166D01*
X57175553Y-99434818D01*
X57087718Y-99448147D01*
X56981518Y-99450135D01*
X56878439Y-99441533D01*
X56799971Y-99423095D01*
X56796144Y-99421536D01*
X56773783Y-99420475D01*
X56755152Y-99444390D01*
X56736193Y-99501373D01*
X56717645Y-99578053D01*
X56655634Y-99773764D01*
X56563123Y-99962136D01*
X56449582Y-100124271D01*
X56436149Y-100139767D01*
X56347728Y-100239404D01*
X56031518Y-100240857D01*
X55715307Y-100242309D01*
X55677491Y-100375357D01*
X55623345Y-100521910D01*
X55549189Y-100638625D01*
X55447857Y-100732224D01*
X55312178Y-100809428D01*
X55146596Y-100873163D01*
X54992696Y-100926959D01*
X54879324Y-100975603D01*
X54799781Y-101024458D01*
X54747370Y-101078883D01*
X54715394Y-101144239D01*
X54697154Y-101225887D01*
X54696015Y-101233801D01*
X54675563Y-101308249D01*
X54642494Y-101337950D01*
X54601840Y-101334775D01*
X54590910Y-101326172D01*
X54566998Y-101254333D01*
X54559293Y-101162703D01*
X54569698Y-101077709D01*
X54572370Y-101068859D01*
X54611635Y-100988200D01*
X54675615Y-100919878D01*
X54771244Y-100858771D01*
X54905457Y-100799756D01*
X54967364Y-100777043D01*
X55077171Y-100736059D01*
X55179213Y-100694024D01*
X55258553Y-100657268D01*
X55287363Y-100641434D01*
X55396005Y-100553652D01*
X55469628Y-100449780D01*
X55502106Y-100338910D01*
X55503077Y-100321064D01*
X55505048Y-100221552D01*
X55287334Y-100189936D01*
X54954852Y-100130227D01*
X54592515Y-100044430D01*
X54209171Y-99935484D01*
X53813671Y-99806327D01*
X53414864Y-99659899D01*
X53021601Y-99499138D01*
X52642730Y-99326982D01*
X52544379Y-99279091D01*
X52403401Y-99208714D01*
X52301504Y-99155870D01*
X52233953Y-99117573D01*
X52196015Y-99090840D01*
X52182955Y-99072686D01*
X52190039Y-99060124D01*
X52193618Y-99057931D01*
X52235956Y-99027064D01*
X52295620Y-98974782D01*
X52336757Y-98935172D01*
X52428973Y-98812422D01*
X52479537Y-98677184D01*
X52491003Y-98536635D01*
X52465923Y-98397952D01*
X52406851Y-98268312D01*
X52316340Y-98154893D01*
X52196941Y-98064872D01*
X52051208Y-98005426D01*
X52002179Y-97994526D01*
X51879894Y-97993407D01*
X51749201Y-98026737D01*
X51628252Y-98088528D01*
X51566342Y-98138290D01*
X51475128Y-98242926D01*
X51419551Y-98350688D01*
X51394804Y-98446166D01*
X51380993Y-98504276D01*
X51367213Y-98535287D01*
X51364297Y-98536881D01*
X51333111Y-98520275D01*
X51272682Y-98473271D01*
X51187567Y-98400084D01*
X51082324Y-98304934D01*
X50961509Y-98192037D01*
X50829679Y-98065611D01*
X50691391Y-97929874D01*
X50551201Y-97789042D01*
X50502156Y-97738946D01*
X50360375Y-97595339D01*
X50207751Y-97443994D01*
X50054198Y-97294520D01*
X49909627Y-97156524D01*
X49783950Y-97039615D01*
X49735619Y-96995925D01*
X49404256Y-96688230D01*
X49068227Y-96353925D01*
X48738647Y-96004864D01*
X48426629Y-95652901D01*
X48143289Y-95309888D01*
X48084412Y-95234881D01*
X47996121Y-95119539D01*
X47905748Y-94998529D01*
X47818024Y-94878519D01*
X47737679Y-94766174D01*
X47669447Y-94668161D01*
X47618058Y-94591146D01*
X47588243Y-94541797D01*
X47582667Y-94527934D01*
X47568166Y-94498579D01*
X47531558Y-94448410D01*
X47511079Y-94423586D01*
X47467617Y-94367530D01*
X47441644Y-94324009D01*
X47438507Y-94313224D01*
X47424657Y-94279944D01*
X47390167Y-94223170D01*
X47360746Y-94180626D01*
X47316657Y-94115042D01*
X47257835Y-94021079D01*
X47192889Y-93912734D01*
X47145800Y-93831264D01*
X46901866Y-93376237D01*
X46854739Y-93275878D01*
X50521666Y-93275878D01*
X50525135Y-93367185D01*
X50535847Y-93445745D01*
X50564341Y-93562649D01*
X50606984Y-93638782D01*
X50672427Y-93680944D01*
X50769319Y-93695933D01*
X50852177Y-93694387D01*
X50923985Y-93688826D01*
X50982185Y-93678087D01*
X51038587Y-93657207D01*
X51105002Y-93621225D01*
X51193240Y-93565178D01*
X51251320Y-93526689D01*
X51355713Y-93459425D01*
X51455716Y-93399023D01*
X51538860Y-93352792D01*
X51586365Y-93330327D01*
X51690666Y-93299924D01*
X51837632Y-93272330D01*
X52021588Y-93248405D01*
X52236858Y-93229008D01*
X52272273Y-93226489D01*
X52516518Y-93197285D01*
X52721221Y-93146229D01*
X52884978Y-93073806D01*
X53006385Y-92980498D01*
X53015923Y-92970281D01*
X53067075Y-92926803D01*
X53137524Y-92881447D01*
X53157478Y-92870716D01*
X53221453Y-92829401D01*
X53302139Y-92765347D01*
X53383491Y-92691421D01*
X53394022Y-92681015D01*
X53539092Y-92504700D01*
X53639836Y-92312804D01*
X53696203Y-92109256D01*
X53708140Y-91897985D01*
X53675595Y-91682920D01*
X53598515Y-91467990D01*
X53476848Y-91257125D01*
X53414137Y-91172848D01*
X53300817Y-91043361D01*
X53168880Y-90918213D01*
X53012702Y-90793169D01*
X52826660Y-90663992D01*
X52605130Y-90526447D01*
X52396572Y-90406417D01*
X52202628Y-90300237D01*
X52040343Y-90217525D01*
X51901227Y-90154756D01*
X51776788Y-90108405D01*
X51658534Y-90074948D01*
X51541462Y-90051438D01*
X51337173Y-90031218D01*
X51164471Y-90045162D01*
X51019668Y-90094319D01*
X50899078Y-90179741D01*
X50833520Y-90253118D01*
X50801966Y-90298152D01*
X50781218Y-90342083D01*
X50768448Y-90397219D01*
X50760829Y-90475871D01*
X50755533Y-90590348D01*
X50755433Y-90593048D01*
X50755751Y-90773100D01*
X50770138Y-90974328D01*
X50799470Y-91208964D01*
X50799709Y-91210606D01*
X50825956Y-91412840D01*
X50840694Y-91585918D01*
X50845089Y-91747375D01*
X50842801Y-91858497D01*
X50838043Y-91962781D01*
X50830903Y-92049745D01*
X50819050Y-92130442D01*
X50800157Y-92215921D01*
X50771893Y-92317235D01*
X50731930Y-92445434D01*
X50695246Y-92558624D01*
X50630557Y-92761972D01*
X50582209Y-92927831D01*
X50548848Y-93063741D01*
X50529118Y-93177244D01*
X50521666Y-93275878D01*
X46854739Y-93275878D01*
X46688921Y-92922769D01*
X46502520Y-92459552D01*
X46338217Y-91975281D01*
X46262630Y-91708986D01*
X46566306Y-91708986D01*
X46589922Y-91902792D01*
X46640729Y-92086551D01*
X46685679Y-92207329D01*
X46742943Y-92340718D01*
X46809018Y-92480555D01*
X46880403Y-92620677D01*
X46953595Y-92754922D01*
X47025094Y-92877127D01*
X47091397Y-92981130D01*
X47149002Y-93060768D01*
X47194407Y-93109879D01*
X47224111Y-93122301D01*
X47227887Y-93119813D01*
X47272984Y-93097369D01*
X47298183Y-93094024D01*
X47369777Y-93076902D01*
X47458307Y-93031153D01*
X47549597Y-92965196D01*
X47610340Y-92908597D01*
X47694436Y-92806492D01*
X47761250Y-92692141D01*
X47812983Y-92558401D01*
X47851834Y-92398128D01*
X47880005Y-92204178D01*
X47899695Y-91969407D01*
X47899710Y-91969166D01*
X47910506Y-91823086D01*
X47923899Y-91680919D01*
X47938474Y-91555566D01*
X47952819Y-91459927D01*
X47958733Y-91430412D01*
X48011921Y-91254974D01*
X48089108Y-91098767D01*
X48194918Y-90956740D01*
X48333977Y-90823840D01*
X48510912Y-90695017D01*
X48730348Y-90565217D01*
X48771039Y-90543315D01*
X48903981Y-90467582D01*
X48999533Y-90398978D01*
X49066070Y-90328940D01*
X49111967Y-90248904D01*
X49141660Y-90164357D01*
X49161291Y-90076341D01*
X49180974Y-89954318D01*
X49199040Y-89812631D01*
X49213818Y-89665624D01*
X49223638Y-89527640D01*
X49226805Y-89433071D01*
X49227619Y-89340214D01*
X49065666Y-89488614D01*
X48916540Y-89607289D01*
X48735700Y-89717836D01*
X48518711Y-89822453D01*
X48261143Y-89923333D01*
X48035540Y-89998850D01*
X47768610Y-90084952D01*
X47544212Y-90161961D01*
X47357774Y-90231823D01*
X47204723Y-90296481D01*
X47080487Y-90357882D01*
X46980493Y-90417969D01*
X46900169Y-90478688D01*
X46893164Y-90484762D01*
X46824956Y-90552691D01*
X46777449Y-90623817D01*
X46745277Y-90710786D01*
X46723073Y-90826245D01*
X46712804Y-90909809D01*
X46693500Y-91039714D01*
X46664284Y-91182052D01*
X46631211Y-91307614D01*
X46628592Y-91316024D01*
X46579274Y-91518368D01*
X46566306Y-91708986D01*
X46262630Y-91708986D01*
X46191570Y-91458646D01*
X46152499Y-91304350D01*
X46101435Y-91101518D01*
X46053588Y-90921533D01*
X46005930Y-90755213D01*
X45955433Y-90593379D01*
X45899069Y-90426849D01*
X45833809Y-90246443D01*
X45756626Y-90042980D01*
X45664490Y-89807279D01*
X45629730Y-89719452D01*
X45443477Y-89233090D01*
X45282854Y-88775529D01*
X45145040Y-88336443D01*
X45027213Y-87905503D01*
X44926550Y-87472382D01*
X44840229Y-87026751D01*
X44773797Y-86610686D01*
X45559744Y-86610686D01*
X45561547Y-86694654D01*
X45562345Y-86707738D01*
X45606161Y-87024101D01*
X45690345Y-87320569D01*
X45816739Y-87601006D01*
X45987185Y-87869277D01*
X46203523Y-88129246D01*
X46275010Y-88203538D01*
X46397433Y-88330792D01*
X46488702Y-88436365D01*
X46554805Y-88529580D01*
X46601730Y-88619758D01*
X46635466Y-88716220D01*
X46655010Y-88795071D01*
X46678971Y-88885109D01*
X46706178Y-88958367D01*
X46731043Y-88999998D01*
X46732754Y-89001511D01*
X46793800Y-89022522D01*
X46878565Y-89014662D01*
X46973591Y-88980019D01*
X47013466Y-88957900D01*
X47083270Y-88897359D01*
X47140860Y-88806969D01*
X47188564Y-88681392D01*
X47228715Y-88515290D01*
X47244491Y-88428570D01*
X47275975Y-88260966D01*
X47307690Y-88135484D01*
X47341732Y-88045901D01*
X47380196Y-87985993D01*
X47400004Y-87966643D01*
X47435091Y-87945445D01*
X47472366Y-87950747D01*
X47513451Y-87972049D01*
X47562305Y-87997361D01*
X47587227Y-87993555D01*
X47606033Y-87955958D01*
X47609526Y-87946858D01*
X47655045Y-87776277D01*
X47667621Y-87599882D01*
X47656460Y-87489461D01*
X47623594Y-87357785D01*
X47572978Y-87239058D01*
X47497580Y-87120379D01*
X47390369Y-86988847D01*
X47372954Y-86969268D01*
X47277905Y-86857219D01*
X47203635Y-86752741D01*
X47140450Y-86639766D01*
X47078658Y-86502227D01*
X47053030Y-86438929D01*
X46982608Y-86304600D01*
X46886319Y-86200793D01*
X46755228Y-86118917D01*
X46690013Y-86089964D01*
X46573347Y-86039707D01*
X46493593Y-85997021D01*
X46441349Y-85955490D01*
X46407211Y-85908699D01*
X46398298Y-85890970D01*
X46385230Y-85853413D01*
X46361094Y-85774635D01*
X46327459Y-85660116D01*
X46285896Y-85515336D01*
X46237974Y-85345775D01*
X46185263Y-85156913D01*
X46129334Y-84954229D01*
X46116606Y-84907791D01*
X46061006Y-84705454D01*
X46009078Y-84517984D01*
X45962257Y-84350455D01*
X45921982Y-84207941D01*
X45889688Y-84095516D01*
X45866812Y-84018254D01*
X45854791Y-83981230D01*
X45853589Y-83978787D01*
X45837887Y-83991048D01*
X45811588Y-84038078D01*
X45779407Y-84108748D01*
X45746062Y-84191935D01*
X45716268Y-84276511D01*
X45694742Y-84351351D01*
X45693620Y-84356143D01*
X45674785Y-84447362D01*
X45655353Y-84555480D01*
X45645832Y-84615262D01*
X45637448Y-84691159D01*
X45628316Y-84807738D01*
X45618727Y-84957727D01*
X45608971Y-85133848D01*
X45599338Y-85328829D01*
X45590119Y-85535395D01*
X45581604Y-85746270D01*
X45574083Y-85954181D01*
X45567846Y-86151853D01*
X45563184Y-86332010D01*
X45560386Y-86487379D01*
X45559744Y-86610686D01*
X44773797Y-86610686D01*
X44765429Y-86558284D01*
X44764877Y-86554472D01*
X44707661Y-86114222D01*
X44663291Y-85677213D01*
X44632095Y-85250722D01*
X44614403Y-84842026D01*
X44610541Y-84458404D01*
X44620839Y-84107133D01*
X44642026Y-83829071D01*
X44723011Y-83244538D01*
X44842856Y-82686822D01*
X45002454Y-82152754D01*
X45202700Y-81639164D01*
X45344884Y-81335190D01*
X45424164Y-81180989D01*
X45509187Y-81024106D01*
X45594576Y-80873786D01*
X45674948Y-80739273D01*
X45744926Y-80629814D01*
X45799009Y-80554801D01*
X45854913Y-80485769D01*
X45845354Y-80654934D01*
X45844509Y-80765407D01*
X45852084Y-80879063D01*
X45863184Y-80953775D01*
X45884542Y-81032443D01*
X45915676Y-81120917D01*
X45951409Y-81207329D01*
X45986563Y-81279807D01*
X46015963Y-81326484D01*
X46030531Y-81337452D01*
X46044742Y-81316029D01*
X46063578Y-81260903D01*
X46076653Y-81210452D01*
X46115543Y-81087959D01*
X46178581Y-80940995D01*
X46259021Y-80782322D01*
X46350120Y-80624703D01*
X46445133Y-80480902D01*
X46501906Y-80405702D01*
X46736001Y-80150120D01*
X47011605Y-79911978D01*
X47324261Y-79693631D01*
X47669508Y-79497437D01*
X48042886Y-79325753D01*
X48439936Y-79180937D01*
X48856198Y-79065346D01*
X49155048Y-79003365D01*
X49247272Y-78990526D01*
X49371357Y-78978504D01*
X49518462Y-78967639D01*
X49679743Y-78958273D01*
X49846356Y-78950750D01*
X50009459Y-78945409D01*
X50160208Y-78942594D01*
X50289761Y-78942647D01*
D14*
X131762500Y-59531250D03*
X127793750Y-126206250D03*
X50800000Y-105568750D03*
D15*
X59531250Y-122872500D03*
D16*
X59531250Y-115252500D03*
X115093750Y-115252500D03*
D15*
X115093750Y-122872500D03*
D16*
X97631250Y-115252500D03*
D15*
X97631250Y-122872500D03*
D16*
X78581250Y-115252500D03*
D15*
X78581250Y-122872500D03*
D16*
X119221250Y-96043750D03*
D15*
X126841250Y-96043750D03*
D16*
X115887500Y-96202500D03*
D15*
X115887500Y-103822500D03*
D16*
X97631250Y-96202500D03*
D15*
X97631250Y-103822500D03*
D16*
X78581250Y-96202500D03*
D15*
X78581250Y-103822500D03*
D16*
X119221250Y-68262500D03*
D15*
X126841250Y-68262500D03*
D16*
X115887500Y-77152500D03*
D15*
X115887500Y-84772500D03*
D16*
X97631250Y-77152500D03*
D15*
X97631250Y-84772500D03*
D16*
X78581250Y-77152500D03*
D15*
X78581250Y-84772500D03*
D16*
X116046250Y-72866250D03*
D15*
X116046250Y-65246250D03*
D16*
X98425000Y-72866250D03*
D15*
X98425000Y-65246250D03*
D16*
X79375000Y-72866250D03*
D15*
X79375000Y-65246250D03*
D16*
X119221250Y-57150000D03*
D15*
X126841250Y-57150000D03*
D16*
X115887500Y-56991250D03*
D15*
X115887500Y-49371250D03*
D16*
X97631250Y-56991250D03*
D15*
X97631250Y-49371250D03*
D16*
X78581250Y-56991250D03*
D15*
X78581250Y-49371250D03*
D17*
X126206250Y-115093750D03*
D18*
X126206250Y-120173750D03*
X126206250Y-110013750D03*
D19*
X119221250Y-127031750D03*
X119221250Y-103155750D03*
D17*
X134461250Y-127031750D03*
X134461250Y-103155750D03*
X126206250Y-76993750D03*
D18*
X126206250Y-82073750D03*
X126206250Y-71913750D03*
D19*
X119221250Y-88931750D03*
X119221250Y-65055750D03*
D17*
X134461250Y-88931750D03*
X134461250Y-65055750D03*
D20*
X57854850Y-42386250D03*
X42614850Y-70326250D03*
X57397650Y-44926250D03*
X57854850Y-47466250D03*
X57397650Y-50006250D03*
X57854850Y-52546250D03*
X57397650Y-55086250D03*
X57854850Y-57626250D03*
X57397650Y-60166250D03*
X57854850Y-62706250D03*
X57397650Y-65246250D03*
X57854850Y-67786250D03*
X57397650Y-70326250D03*
X42157650Y-67786250D03*
X42614850Y-65246250D03*
X42157650Y-62706250D03*
X42614850Y-60166250D03*
X42157650Y-57626250D03*
X42614850Y-55086250D03*
X42157650Y-52546250D03*
X42614850Y-50006250D03*
X42157650Y-47466250D03*
X42614850Y-44926250D03*
D21*
X42157650Y-42386250D03*
D22*
X47506250Y-130031250D03*
X52506250Y-130031250D03*
D23*
X44406250Y-123031250D03*
X55606250Y-123031250D03*
D22*
X47506250Y-115531250D03*
X50006250Y-115531250D03*
D24*
X52506250Y-115531250D03*
D17*
X107156250Y-124618750D03*
D18*
X102076250Y-124618750D03*
X112236250Y-124618750D03*
D17*
X88106250Y-124618750D03*
D18*
X83026250Y-124618750D03*
X93186250Y-124618750D03*
D17*
X69056250Y-124618750D03*
D18*
X63976250Y-124618750D03*
X74136250Y-124618750D03*
D17*
X107156250Y-105568750D03*
D18*
X102076250Y-105568750D03*
X112236250Y-105568750D03*
D17*
X88106250Y-105568750D03*
D18*
X83026250Y-105568750D03*
X93186250Y-105568750D03*
D17*
X69056250Y-105568750D03*
D18*
X63976250Y-105568750D03*
X74136250Y-105568750D03*
D17*
X107156250Y-86518750D03*
D18*
X102076250Y-86518750D03*
X112236250Y-86518750D03*
D17*
X88106250Y-86518750D03*
D18*
X83026250Y-86518750D03*
X93186250Y-86518750D03*
D17*
X69056250Y-86518750D03*
D18*
X63976250Y-86518750D03*
X74136250Y-86518750D03*
D17*
X107156250Y-67468750D03*
D18*
X102076250Y-67468750D03*
X112236250Y-67468750D03*
D17*
X88106250Y-67468750D03*
D18*
X83026250Y-67468750D03*
X93186250Y-67468750D03*
D17*
X69056250Y-67468750D03*
D18*
X63976250Y-67468750D03*
X74136250Y-67468750D03*
D17*
X126206250Y-48418750D03*
D18*
X121126250Y-48418750D03*
X131286250Y-48418750D03*
D17*
X107156250Y-48418750D03*
D18*
X102076250Y-48418750D03*
X112236250Y-48418750D03*
D17*
X88106250Y-48418750D03*
D18*
X83026250Y-48418750D03*
X93186250Y-48418750D03*
D17*
X69056250Y-48418750D03*
D18*
X63976250Y-48418750D03*
X74136250Y-48418750D03*
M02*
