M48
; DRILL file {KiCad (5.1.4)-1} date 2020-11-23 10:31:51 PM
; FORMAT={-:-/ absolute / inch / decimal}
; #@! TF.CreationDate,2020-11-23T22:31:51-05:00
; #@! TF.GenerationSoftware,Kicad,Pcbnew,(5.1.4)-1
; #@! TF.FileFunction,NonPlated,1,2,NPTH
FMAT,2
INCH
T1C0.0591
T2C0.0689
T3C0.1200
T4C0.1260
T5C0.1570
%
G90
G05
T2
X3.2687Y-3.4062
X3.6687Y-3.4062
X4.7687Y-1.9062
X5.1688Y-1.9062
X4.0187Y-1.9062
X4.4188Y-1.9062
X2.5187Y-1.9062
X2.9187Y-1.9062
X3.2687Y-4.9062
X3.6687Y-4.9062
X2.5187Y-3.4062
X2.9187Y-3.4062
X4.9688Y-4.3312
X4.9688Y-4.7313
X3.2687Y-2.6562
X3.6687Y-2.6562
X4.9688Y-2.8312
X4.9688Y-3.2312
X4.0187Y-2.6562
X4.4188Y-2.6562
X3.2687Y-4.1562
X3.6687Y-4.1562
X2.5187Y-4.1562
X2.9187Y-4.1562
X2.5187Y-2.6562
X2.9187Y-2.6562
X4.0187Y-4.9062
X4.4188Y-4.9062
X2.5187Y-4.9062
X2.9187Y-4.9062
X3.2687Y-1.9062
X3.6687Y-1.9062
X4.0187Y-3.4062
X4.4188Y-3.4062
X4.0187Y-4.1562
X4.4188Y-4.1562
T3
X4.6937Y-4.0613
X4.6937Y-5.0012
X4.6937Y-2.5612
X4.6937Y-3.5012
T4
X5.0312Y-4.9688
X5.1875Y-2.3438
X2.0Y-4.1562
T5
X4.2188Y-4.1562
X3.4688Y-3.4062
X4.9688Y-1.9062
X4.2188Y-1.9062
X2.7188Y-1.9062
X3.4688Y-4.9062
X2.7188Y-3.4062
X4.9688Y-4.5312
X5.2938Y-4.0613
X5.2938Y-5.0012
X3.4688Y-2.6562
X4.9688Y-3.0312
X5.2938Y-2.5612
X5.2938Y-3.5012
X4.2188Y-2.6562
X3.4688Y-4.1562
X2.7188Y-4.1562
X2.7188Y-2.6562
X4.2188Y-4.9062
X2.7188Y-4.9062
X3.4688Y-1.9062
X4.2188Y-3.4062
T1
G00X1.7483Y-4.8182
M15
G01X1.7483Y-4.8693
M16
G05
G00X2.1892Y-4.8182
M15
G01X2.1892Y-4.8693
M16
G05
T0
M30
