G04 #@! TF.GenerationSoftware,KiCad,Pcbnew,(5.1.4)-1*
G04 #@! TF.CreationDate,2020-11-23T22:31:48-05:00*
G04 #@! TF.ProjectId,Knomberpad,4b6e6f6d-6265-4727-9061-642e6b696361,rev?*
G04 #@! TF.SameCoordinates,Original*
G04 #@! TF.FileFunction,Legend,Bot*
G04 #@! TF.FilePolarity,Positive*
%FSLAX46Y46*%
G04 Gerber Fmt 4.6, Leading zero omitted, Abs format (unit mm)*
G04 Created by KiCad (PCBNEW (5.1.4)-1) date 2020-11-23 22:31:48*
%MOMM*%
%LPD*%
G04 APERTURE LIST*
%ADD10C,0.300000*%
%ADD11C,0.010000*%
%ADD12C,0.150000*%
%ADD13C,0.203200*%
%ADD14C,0.381000*%
%ADD15C,3.302000*%
%ADD16C,1.753000*%
%ADD17R,1.753000X1.753000*%
%ADD18C,2.352000*%
%ADD19C,2.352000*%
%ADD20C,4.089800*%
%ADD21C,1.852000*%
%ADD22C,3.150000*%
%ADD23C,1.854600*%
%ADD24R,1.854600X1.854600*%
%ADD25C,2.102000*%
%ADD26R,2.102000X3.302000*%
%ADD27R,2.102000X2.102000*%
G04 APERTURE END LIST*
D10*
X46946428Y-81644642D02*
X48446428Y-81644642D01*
X47017857Y-81644642D02*
X46946428Y-81787500D01*
X46946428Y-82073214D01*
X47017857Y-82216071D01*
X47089285Y-82287500D01*
X47232142Y-82358928D01*
X47660714Y-82358928D01*
X47803571Y-82287500D01*
X47875000Y-82216071D01*
X47946428Y-82073214D01*
X47946428Y-81787500D01*
X47875000Y-81644642D01*
X47946428Y-80930357D02*
X46660714Y-80930357D01*
X46517857Y-81001785D01*
X46446428Y-81144642D01*
X46446428Y-81216071D01*
X48446428Y-80930357D02*
X48375000Y-81001785D01*
X48303571Y-80930357D01*
X48375000Y-80858928D01*
X48446428Y-80930357D01*
X48303571Y-80930357D01*
X46946428Y-80001785D02*
X47017857Y-80144642D01*
X47160714Y-80216071D01*
X48446428Y-80216071D01*
X47017857Y-78858928D02*
X46946428Y-79001785D01*
X46946428Y-79287500D01*
X47017857Y-79430357D01*
X47160714Y-79501785D01*
X47732142Y-79501785D01*
X47875000Y-79430357D01*
X47946428Y-79287500D01*
X47946428Y-79001785D01*
X47875000Y-78858928D01*
X47732142Y-78787500D01*
X47589285Y-78787500D01*
X47446428Y-79501785D01*
X47017857Y-77573214D02*
X46946428Y-77716071D01*
X46946428Y-78001785D01*
X47017857Y-78144642D01*
X47160714Y-78216071D01*
X47732142Y-78216071D01*
X47875000Y-78144642D01*
X47946428Y-78001785D01*
X47946428Y-77716071D01*
X47875000Y-77573214D01*
X47732142Y-77501785D01*
X47589285Y-77501785D01*
X47446428Y-78216071D01*
X47089285Y-76858928D02*
X47017857Y-76787500D01*
X46946428Y-76858928D01*
X47017857Y-76930357D01*
X47089285Y-76858928D01*
X46946428Y-76858928D01*
X46946428Y-76287500D02*
X47946428Y-75501785D01*
X47946428Y-76287500D02*
X46946428Y-75501785D01*
X47946428Y-75073214D02*
X46946428Y-74716071D01*
X47946428Y-74358928D02*
X46946428Y-74716071D01*
X46589285Y-74858928D01*
X46517857Y-74930357D01*
X46446428Y-75073214D01*
X47946428Y-73930357D02*
X47946428Y-73144642D01*
X46946428Y-73930357D01*
X46946428Y-73144642D01*
X51009821Y-133234821D02*
X51509821Y-132520535D01*
X51866964Y-133234821D02*
X51866964Y-131734821D01*
X51295535Y-131734821D01*
X51152678Y-131806250D01*
X51081250Y-131877678D01*
X51009821Y-132020535D01*
X51009821Y-132234821D01*
X51081250Y-132377678D01*
X51152678Y-132449107D01*
X51295535Y-132520535D01*
X51866964Y-132520535D01*
X49795535Y-133163392D02*
X49938392Y-133234821D01*
X50224107Y-133234821D01*
X50366964Y-133163392D01*
X50438392Y-133020535D01*
X50438392Y-132449107D01*
X50366964Y-132306250D01*
X50224107Y-132234821D01*
X49938392Y-132234821D01*
X49795535Y-132306250D01*
X49724107Y-132449107D01*
X49724107Y-132591964D01*
X50438392Y-132734821D01*
X49224107Y-132234821D02*
X48866964Y-133234821D01*
X48509821Y-132234821D01*
X46866964Y-131877678D02*
X46795535Y-131806250D01*
X46652678Y-131734821D01*
X46295535Y-131734821D01*
X46152678Y-131806250D01*
X46081250Y-131877678D01*
X46009821Y-132020535D01*
X46009821Y-132163392D01*
X46081250Y-132377678D01*
X46938392Y-133234821D01*
X46009821Y-133234821D01*
X45366964Y-133091964D02*
X45295535Y-133163392D01*
X45366964Y-133234821D01*
X45438392Y-133163392D01*
X45366964Y-133091964D01*
X45366964Y-133234821D01*
X44366964Y-131734821D02*
X44224107Y-131734821D01*
X44081250Y-131806250D01*
X44009821Y-131877678D01*
X43938392Y-132020535D01*
X43866964Y-132306250D01*
X43866964Y-132663392D01*
X43938392Y-132949107D01*
X44009821Y-133091964D01*
X44081250Y-133163392D01*
X44224107Y-133234821D01*
X44366964Y-133234821D01*
X44509821Y-133163392D01*
X44581250Y-133091964D01*
X44652678Y-132949107D01*
X44724107Y-132663392D01*
X44724107Y-132306250D01*
X44652678Y-132020535D01*
X44581250Y-131877678D01*
X44509821Y-131806250D01*
X44366964Y-131734821D01*
X43224107Y-133091964D02*
X43152678Y-133163392D01*
X43224107Y-133234821D01*
X43295535Y-133163392D01*
X43224107Y-133091964D01*
X43224107Y-133234821D01*
X42224107Y-131734821D02*
X42081250Y-131734821D01*
X41938392Y-131806250D01*
X41866964Y-131877678D01*
X41795535Y-132020535D01*
X41724107Y-132306250D01*
X41724107Y-132663392D01*
X41795535Y-132949107D01*
X41866964Y-133091964D01*
X41938392Y-133163392D01*
X42081250Y-133234821D01*
X42224107Y-133234821D01*
X42366964Y-133163392D01*
X42438392Y-133091964D01*
X42509821Y-132949107D01*
X42581250Y-132663392D01*
X42581250Y-132306250D01*
X42509821Y-132020535D01*
X42438392Y-131877678D01*
X42366964Y-131806250D01*
X42224107Y-131734821D01*
X134013392Y-132441071D02*
X134013392Y-130941071D01*
X133370535Y-132441071D02*
X133370535Y-131655357D01*
X133441964Y-131512500D01*
X133584821Y-131441071D01*
X133799107Y-131441071D01*
X133941964Y-131512500D01*
X134013392Y-131583928D01*
X132870535Y-131441071D02*
X132299107Y-131441071D01*
X132656250Y-130941071D02*
X132656250Y-132226785D01*
X132584821Y-132369642D01*
X132441964Y-132441071D01*
X132299107Y-132441071D01*
X132013392Y-131441071D02*
X131441964Y-131441071D01*
X131799107Y-130941071D02*
X131799107Y-132226785D01*
X131727678Y-132369642D01*
X131584821Y-132441071D01*
X131441964Y-132441071D01*
X130941964Y-131441071D02*
X130941964Y-132941071D01*
X130941964Y-131512500D02*
X130799107Y-131441071D01*
X130513392Y-131441071D01*
X130370535Y-131512500D01*
X130299107Y-131583928D01*
X130227678Y-131726785D01*
X130227678Y-132155357D01*
X130299107Y-132298214D01*
X130370535Y-132369642D01*
X130513392Y-132441071D01*
X130799107Y-132441071D01*
X130941964Y-132369642D01*
X129656250Y-132369642D02*
X129513392Y-132441071D01*
X129227678Y-132441071D01*
X129084821Y-132369642D01*
X129013392Y-132226785D01*
X129013392Y-132155357D01*
X129084821Y-132012500D01*
X129227678Y-131941071D01*
X129441964Y-131941071D01*
X129584821Y-131869642D01*
X129656250Y-131726785D01*
X129656250Y-131655357D01*
X129584821Y-131512500D01*
X129441964Y-131441071D01*
X129227678Y-131441071D01*
X129084821Y-131512500D01*
X128370535Y-132298214D02*
X128299107Y-132369642D01*
X128370535Y-132441071D01*
X128441964Y-132369642D01*
X128370535Y-132298214D01*
X128370535Y-132441071D01*
X128370535Y-131512500D02*
X128299107Y-131583928D01*
X128370535Y-131655357D01*
X128441964Y-131583928D01*
X128370535Y-131512500D01*
X128370535Y-131655357D01*
X126584821Y-130869642D02*
X127870535Y-132798214D01*
X125013392Y-130869642D02*
X126299107Y-132798214D01*
X123870535Y-131441071D02*
X123870535Y-132655357D01*
X123941964Y-132798214D01*
X124013392Y-132869642D01*
X124156249Y-132941071D01*
X124370535Y-132941071D01*
X124513392Y-132869642D01*
X123870535Y-132369642D02*
X124013392Y-132441071D01*
X124299107Y-132441071D01*
X124441964Y-132369642D01*
X124513392Y-132298214D01*
X124584821Y-132155357D01*
X124584821Y-131726785D01*
X124513392Y-131583928D01*
X124441964Y-131512500D01*
X124299107Y-131441071D01*
X124013392Y-131441071D01*
X123870535Y-131512500D01*
X123156249Y-132441071D02*
X123156249Y-131441071D01*
X123156249Y-130941071D02*
X123227678Y-131012500D01*
X123156249Y-131083928D01*
X123084821Y-131012500D01*
X123156249Y-130941071D01*
X123156249Y-131083928D01*
X122656249Y-131441071D02*
X122084821Y-131441071D01*
X122441964Y-130941071D02*
X122441964Y-132226785D01*
X122370535Y-132369642D01*
X122227678Y-132441071D01*
X122084821Y-132441071D01*
X121584821Y-132441071D02*
X121584821Y-130941071D01*
X120941964Y-132441071D02*
X120941964Y-131655357D01*
X121013392Y-131512500D01*
X121156249Y-131441071D01*
X121370535Y-131441071D01*
X121513392Y-131512500D01*
X121584821Y-131583928D01*
X119584821Y-131441071D02*
X119584821Y-132441071D01*
X120227678Y-131441071D02*
X120227678Y-132226785D01*
X120156249Y-132369642D01*
X120013392Y-132441071D01*
X119799107Y-132441071D01*
X119656249Y-132369642D01*
X119584821Y-132298214D01*
X118870535Y-132441071D02*
X118870535Y-130941071D01*
X118870535Y-131512500D02*
X118727678Y-131441071D01*
X118441964Y-131441071D01*
X118299107Y-131512500D01*
X118227678Y-131583928D01*
X118156249Y-131726785D01*
X118156249Y-132155357D01*
X118227678Y-132298214D01*
X118299107Y-132369642D01*
X118441964Y-132441071D01*
X118727678Y-132441071D01*
X118870535Y-132369642D01*
X117513392Y-132298214D02*
X117441964Y-132369642D01*
X117513392Y-132441071D01*
X117584821Y-132369642D01*
X117513392Y-132298214D01*
X117513392Y-132441071D01*
X116156249Y-132369642D02*
X116299107Y-132441071D01*
X116584821Y-132441071D01*
X116727678Y-132369642D01*
X116799107Y-132298214D01*
X116870535Y-132155357D01*
X116870535Y-131726785D01*
X116799107Y-131583928D01*
X116727678Y-131512500D01*
X116584821Y-131441071D01*
X116299107Y-131441071D01*
X116156249Y-131512500D01*
X115299107Y-132441071D02*
X115441964Y-132369642D01*
X115513392Y-132298214D01*
X115584821Y-132155357D01*
X115584821Y-131726785D01*
X115513392Y-131583928D01*
X115441964Y-131512500D01*
X115299107Y-131441071D01*
X115084821Y-131441071D01*
X114941964Y-131512500D01*
X114870535Y-131583928D01*
X114799107Y-131726785D01*
X114799107Y-132155357D01*
X114870535Y-132298214D01*
X114941964Y-132369642D01*
X115084821Y-132441071D01*
X115299107Y-132441071D01*
X114156249Y-132441071D02*
X114156249Y-131441071D01*
X114156249Y-131583928D02*
X114084821Y-131512500D01*
X113941964Y-131441071D01*
X113727678Y-131441071D01*
X113584821Y-131512500D01*
X113513392Y-131655357D01*
X113513392Y-132441071D01*
X113513392Y-131655357D02*
X113441964Y-131512500D01*
X113299107Y-131441071D01*
X113084821Y-131441071D01*
X112941964Y-131512500D01*
X112870535Y-131655357D01*
X112870535Y-132441071D01*
X111084821Y-130869642D02*
X112370535Y-132798214D01*
X109941964Y-132441071D02*
X109941964Y-130941071D01*
X109941964Y-132369642D02*
X110084821Y-132441071D01*
X110370535Y-132441071D01*
X110513392Y-132369642D01*
X110584821Y-132298214D01*
X110656249Y-132155357D01*
X110656249Y-131726785D01*
X110584821Y-131583928D01*
X110513392Y-131512500D01*
X110370535Y-131441071D01*
X110084821Y-131441071D01*
X109941964Y-131512500D01*
X108584821Y-132441071D02*
X108584821Y-131655357D01*
X108656249Y-131512500D01*
X108799107Y-131441071D01*
X109084821Y-131441071D01*
X109227678Y-131512500D01*
X108584821Y-132369642D02*
X108727678Y-132441071D01*
X109084821Y-132441071D01*
X109227678Y-132369642D01*
X109299107Y-132226785D01*
X109299107Y-132083928D01*
X109227678Y-131941071D01*
X109084821Y-131869642D01*
X108727678Y-131869642D01*
X108584821Y-131798214D01*
X108013392Y-131441071D02*
X107656249Y-132441071D01*
X107299107Y-131441071D01*
X106727678Y-132441071D02*
X106727678Y-131441071D01*
X106727678Y-130941071D02*
X106799107Y-131012500D01*
X106727678Y-131083928D01*
X106656249Y-131012500D01*
X106727678Y-130941071D01*
X106727678Y-131083928D01*
X105370535Y-132441071D02*
X105370535Y-130941071D01*
X105370535Y-132369642D02*
X105513392Y-132441071D01*
X105799107Y-132441071D01*
X105941964Y-132369642D01*
X106013392Y-132298214D01*
X106084821Y-132155357D01*
X106084821Y-131726785D01*
X106013392Y-131583928D01*
X105941964Y-131512500D01*
X105799107Y-131441071D01*
X105513392Y-131441071D01*
X105370535Y-131512500D01*
X104656249Y-131441071D02*
X104656249Y-132726785D01*
X104727678Y-132869642D01*
X104870535Y-132941071D01*
X104941964Y-132941071D01*
X104656249Y-130941071D02*
X104727678Y-131012500D01*
X104656249Y-131083928D01*
X104584821Y-131012500D01*
X104656249Y-130941071D01*
X104656249Y-131083928D01*
X103299107Y-132441071D02*
X103299107Y-131655357D01*
X103370535Y-131512500D01*
X103513392Y-131441071D01*
X103799107Y-131441071D01*
X103941964Y-131512500D01*
X103299107Y-132369642D02*
X103441964Y-132441071D01*
X103799107Y-132441071D01*
X103941964Y-132369642D01*
X104013392Y-132226785D01*
X104013392Y-132083928D01*
X103941964Y-131941071D01*
X103799107Y-131869642D01*
X103441964Y-131869642D01*
X103299107Y-131798214D01*
X102584821Y-132441071D02*
X102584821Y-131441071D01*
X102584821Y-131583928D02*
X102513392Y-131512500D01*
X102370535Y-131441071D01*
X102156249Y-131441071D01*
X102013392Y-131512500D01*
X101941964Y-131655357D01*
X101941964Y-132441071D01*
X101941964Y-131655357D02*
X101870535Y-131512500D01*
X101727678Y-131441071D01*
X101513392Y-131441071D01*
X101370535Y-131512500D01*
X101299107Y-131655357D01*
X101299107Y-132441071D01*
X100013392Y-132369642D02*
X100156249Y-132441071D01*
X100441964Y-132441071D01*
X100584821Y-132369642D01*
X100656249Y-132226785D01*
X100656249Y-131655357D01*
X100584821Y-131512500D01*
X100441964Y-131441071D01*
X100156249Y-131441071D01*
X100013392Y-131512500D01*
X99941964Y-131655357D01*
X99941964Y-131798214D01*
X100656249Y-131941071D01*
X99370535Y-132369642D02*
X99227678Y-132441071D01*
X98941964Y-132441071D01*
X98799107Y-132369642D01*
X98727678Y-132226785D01*
X98727678Y-132155357D01*
X98799107Y-132012500D01*
X98941964Y-131941071D01*
X99156249Y-131941071D01*
X99299107Y-131869642D01*
X99370535Y-131726785D01*
X99370535Y-131655357D01*
X99299107Y-131512500D01*
X99156249Y-131441071D01*
X98941964Y-131441071D01*
X98799107Y-131512500D01*
X97870535Y-132441071D02*
X98013392Y-132369642D01*
X98084821Y-132226785D01*
X98084821Y-130941071D01*
X96727678Y-132369642D02*
X96870535Y-132441071D01*
X97156249Y-132441071D01*
X97299107Y-132369642D01*
X97370535Y-132226785D01*
X97370535Y-131655357D01*
X97299107Y-131512500D01*
X97156249Y-131441071D01*
X96870535Y-131441071D01*
X96727678Y-131512500D01*
X96656249Y-131655357D01*
X96656249Y-131798214D01*
X97370535Y-131941071D01*
X95441964Y-132369642D02*
X95584821Y-132441071D01*
X95870535Y-132441071D01*
X96013392Y-132369642D01*
X96084821Y-132226785D01*
X96084821Y-131655357D01*
X96013392Y-131512500D01*
X95870535Y-131441071D01*
X95584821Y-131441071D01*
X95441964Y-131512500D01*
X95370535Y-131655357D01*
X95370535Y-131798214D01*
X96084821Y-131941071D01*
X93656249Y-130869642D02*
X94941964Y-132798214D01*
X93156249Y-132441071D02*
X93156249Y-130941071D01*
X93013392Y-131869642D02*
X92584821Y-132441071D01*
X92584821Y-131441071D02*
X93156249Y-132012500D01*
X91941964Y-131441071D02*
X91941964Y-132441071D01*
X91941964Y-131583928D02*
X91870535Y-131512500D01*
X91727678Y-131441071D01*
X91513392Y-131441071D01*
X91370535Y-131512500D01*
X91299107Y-131655357D01*
X91299107Y-132441071D01*
X90370535Y-132441071D02*
X90513392Y-132369642D01*
X90584821Y-132298214D01*
X90656249Y-132155357D01*
X90656249Y-131726785D01*
X90584821Y-131583928D01*
X90513392Y-131512500D01*
X90370535Y-131441071D01*
X90156249Y-131441071D01*
X90013392Y-131512500D01*
X89941964Y-131583928D01*
X89870535Y-131726785D01*
X89870535Y-132155357D01*
X89941964Y-132298214D01*
X90013392Y-132369642D01*
X90156249Y-132441071D01*
X90370535Y-132441071D01*
X89227678Y-132441071D02*
X89227678Y-131441071D01*
X89227678Y-131583928D02*
X89156249Y-131512500D01*
X89013392Y-131441071D01*
X88799107Y-131441071D01*
X88656249Y-131512500D01*
X88584821Y-131655357D01*
X88584821Y-132441071D01*
X88584821Y-131655357D02*
X88513392Y-131512500D01*
X88370535Y-131441071D01*
X88156249Y-131441071D01*
X88013392Y-131512500D01*
X87941964Y-131655357D01*
X87941964Y-132441071D01*
X87227678Y-132441071D02*
X87227678Y-130941071D01*
X87227678Y-131512500D02*
X87084821Y-131441071D01*
X86799107Y-131441071D01*
X86656249Y-131512500D01*
X86584821Y-131583928D01*
X86513392Y-131726785D01*
X86513392Y-132155357D01*
X86584821Y-132298214D01*
X86656249Y-132369642D01*
X86799107Y-132441071D01*
X87084821Y-132441071D01*
X87227678Y-132369642D01*
X85299107Y-132369642D02*
X85441964Y-132441071D01*
X85727678Y-132441071D01*
X85870535Y-132369642D01*
X85941964Y-132226785D01*
X85941964Y-131655357D01*
X85870535Y-131512500D01*
X85727678Y-131441071D01*
X85441964Y-131441071D01*
X85299107Y-131512500D01*
X85227678Y-131655357D01*
X85227678Y-131798214D01*
X85941964Y-131941071D01*
X84584821Y-132441071D02*
X84584821Y-131441071D01*
X84584821Y-131726785D02*
X84513392Y-131583928D01*
X84441964Y-131512500D01*
X84299107Y-131441071D01*
X84156249Y-131441071D01*
X83656249Y-131441071D02*
X83656249Y-132941071D01*
X83656249Y-131512500D02*
X83513392Y-131441071D01*
X83227678Y-131441071D01*
X83084821Y-131512500D01*
X83013392Y-131583928D01*
X82941964Y-131726785D01*
X82941964Y-132155357D01*
X83013392Y-132298214D01*
X83084821Y-132369642D01*
X83227678Y-132441071D01*
X83513392Y-132441071D01*
X83656249Y-132369642D01*
X81656249Y-132441071D02*
X81656249Y-131655357D01*
X81727678Y-131512500D01*
X81870535Y-131441071D01*
X82156249Y-131441071D01*
X82299107Y-131512500D01*
X81656249Y-132369642D02*
X81799107Y-132441071D01*
X82156249Y-132441071D01*
X82299107Y-132369642D01*
X82370535Y-132226785D01*
X82370535Y-132083928D01*
X82299107Y-131941071D01*
X82156249Y-131869642D01*
X81799107Y-131869642D01*
X81656249Y-131798214D01*
X80299107Y-132441071D02*
X80299107Y-130941071D01*
X80299107Y-132369642D02*
X80441964Y-132441071D01*
X80727678Y-132441071D01*
X80870535Y-132369642D01*
X80941964Y-132298214D01*
X81013392Y-132155357D01*
X81013392Y-131726785D01*
X80941964Y-131583928D01*
X80870535Y-131512500D01*
X80727678Y-131441071D01*
X80441964Y-131441071D01*
X80299107Y-131512500D01*
D11*
G36*
X44401894Y-95172069D02*
G01*
X44215033Y-95171682D01*
X44043071Y-95170585D01*
X43891404Y-95168868D01*
X43765432Y-95166624D01*
X43670552Y-95163944D01*
X43612164Y-95160921D01*
X43595371Y-95158334D01*
X43601431Y-95134634D01*
X43629960Y-95084431D01*
X43675143Y-95017726D01*
X43684908Y-95004315D01*
X43822857Y-94784387D01*
X43923282Y-94553478D01*
X43985619Y-94317037D01*
X44009302Y-94080510D01*
X43993769Y-93849343D01*
X43938456Y-93628985D01*
X43847601Y-93432999D01*
X43774722Y-93333453D01*
X43672541Y-93226695D01*
X43553901Y-93124394D01*
X43431645Y-93038217D01*
X43380530Y-93008688D01*
X43180957Y-92922367D01*
X42949733Y-92856126D01*
X42697259Y-92810952D01*
X42433937Y-92787834D01*
X42170166Y-92787760D01*
X41916348Y-92811717D01*
X41719500Y-92850865D01*
X41483058Y-92931842D01*
X41261205Y-93047534D01*
X41059644Y-93192854D01*
X40884077Y-93362714D01*
X40740209Y-93552024D01*
X40633743Y-93755697D01*
X40599834Y-93849778D01*
X40569681Y-93981229D01*
X40549654Y-94138817D01*
X40541068Y-94303346D01*
X40545237Y-94455619D01*
X40553445Y-94527205D01*
X40581813Y-94652310D01*
X40628298Y-94798255D01*
X40686538Y-94946721D01*
X40735510Y-95051467D01*
X40764453Y-95110141D01*
X40781951Y-95149356D01*
X40784318Y-95157033D01*
X40764220Y-95167316D01*
X40714737Y-95179886D01*
X40703500Y-95182091D01*
X40622681Y-95197252D01*
X40622681Y-96211159D01*
X43020369Y-96211159D01*
X43020369Y-95172069D01*
X42193807Y-95172069D01*
X41963403Y-95171689D01*
X41775587Y-95170469D01*
X41626769Y-95168288D01*
X41513363Y-95165022D01*
X41431778Y-95160551D01*
X41378427Y-95154753D01*
X41349721Y-95147505D01*
X41343409Y-95143205D01*
X41309834Y-95079527D01*
X41287829Y-94981746D01*
X41276836Y-94846078D01*
X41275916Y-94687159D01*
X41279182Y-94567078D01*
X41285295Y-94480510D01*
X41296465Y-94414795D01*
X41314904Y-94357269D01*
X41342824Y-94295270D01*
X41345198Y-94290421D01*
X41441480Y-94143292D01*
X41570943Y-94026916D01*
X41734001Y-93941120D01*
X41931068Y-93885732D01*
X42162560Y-93860581D01*
X42375879Y-93862269D01*
X42581120Y-93880754D01*
X42748438Y-93914375D01*
X42884217Y-93965246D01*
X42994841Y-94035479D01*
X43049263Y-94085165D01*
X43124712Y-94177765D01*
X43173764Y-94278039D01*
X43200463Y-94397925D01*
X43208851Y-94549361D01*
X43208863Y-94556407D01*
X43198027Y-94685584D01*
X43168848Y-94828711D01*
X43126323Y-94966859D01*
X43075449Y-95081094D01*
X43066178Y-95097023D01*
X43020369Y-95172069D01*
X43020369Y-96211159D01*
X45194681Y-96211159D01*
X45194681Y-95172069D01*
X44401894Y-95172069D01*
X44401894Y-95172069D01*
G37*
X44401894Y-95172069D02*
X44215033Y-95171682D01*
X44043071Y-95170585D01*
X43891404Y-95168868D01*
X43765432Y-95166624D01*
X43670552Y-95163944D01*
X43612164Y-95160921D01*
X43595371Y-95158334D01*
X43601431Y-95134634D01*
X43629960Y-95084431D01*
X43675143Y-95017726D01*
X43684908Y-95004315D01*
X43822857Y-94784387D01*
X43923282Y-94553478D01*
X43985619Y-94317037D01*
X44009302Y-94080510D01*
X43993769Y-93849343D01*
X43938456Y-93628985D01*
X43847601Y-93432999D01*
X43774722Y-93333453D01*
X43672541Y-93226695D01*
X43553901Y-93124394D01*
X43431645Y-93038217D01*
X43380530Y-93008688D01*
X43180957Y-92922367D01*
X42949733Y-92856126D01*
X42697259Y-92810952D01*
X42433937Y-92787834D01*
X42170166Y-92787760D01*
X41916348Y-92811717D01*
X41719500Y-92850865D01*
X41483058Y-92931842D01*
X41261205Y-93047534D01*
X41059644Y-93192854D01*
X40884077Y-93362714D01*
X40740209Y-93552024D01*
X40633743Y-93755697D01*
X40599834Y-93849778D01*
X40569681Y-93981229D01*
X40549654Y-94138817D01*
X40541068Y-94303346D01*
X40545237Y-94455619D01*
X40553445Y-94527205D01*
X40581813Y-94652310D01*
X40628298Y-94798255D01*
X40686538Y-94946721D01*
X40735510Y-95051467D01*
X40764453Y-95110141D01*
X40781951Y-95149356D01*
X40784318Y-95157033D01*
X40764220Y-95167316D01*
X40714737Y-95179886D01*
X40703500Y-95182091D01*
X40622681Y-95197252D01*
X40622681Y-96211159D01*
X43020369Y-96211159D01*
X43020369Y-95172069D01*
X42193807Y-95172069D01*
X41963403Y-95171689D01*
X41775587Y-95170469D01*
X41626769Y-95168288D01*
X41513363Y-95165022D01*
X41431778Y-95160551D01*
X41378427Y-95154753D01*
X41349721Y-95147505D01*
X41343409Y-95143205D01*
X41309834Y-95079527D01*
X41287829Y-94981746D01*
X41276836Y-94846078D01*
X41275916Y-94687159D01*
X41279182Y-94567078D01*
X41285295Y-94480510D01*
X41296465Y-94414795D01*
X41314904Y-94357269D01*
X41342824Y-94295270D01*
X41345198Y-94290421D01*
X41441480Y-94143292D01*
X41570943Y-94026916D01*
X41734001Y-93941120D01*
X41931068Y-93885732D01*
X42162560Y-93860581D01*
X42375879Y-93862269D01*
X42581120Y-93880754D01*
X42748438Y-93914375D01*
X42884217Y-93965246D01*
X42994841Y-94035479D01*
X43049263Y-94085165D01*
X43124712Y-94177765D01*
X43173764Y-94278039D01*
X43200463Y-94397925D01*
X43208851Y-94549361D01*
X43208863Y-94556407D01*
X43198027Y-94685584D01*
X43168848Y-94828711D01*
X43126323Y-94966859D01*
X43075449Y-95081094D01*
X43066178Y-95097023D01*
X43020369Y-95172069D01*
X43020369Y-96211159D01*
X45194681Y-96211159D01*
X45194681Y-95172069D01*
X44401894Y-95172069D01*
G36*
X43999954Y-90168639D02*
G01*
X43981154Y-89975898D01*
X43962425Y-89872705D01*
X43885161Y-89619551D01*
X43774769Y-89398147D01*
X43631797Y-89209101D01*
X43456797Y-89053024D01*
X43250318Y-88930525D01*
X43039411Y-88849903D01*
X42956282Y-88827208D01*
X42874250Y-88810530D01*
X42782480Y-88798584D01*
X42670140Y-88790086D01*
X42526395Y-88783752D01*
X42464181Y-88781733D01*
X42077409Y-88769980D01*
X42077409Y-91183347D01*
X41976814Y-91172009D01*
X41809317Y-91130650D01*
X41654522Y-91048792D01*
X41519627Y-90931789D01*
X41411832Y-90784994D01*
X41383275Y-90730592D01*
X41325675Y-90570505D01*
X41287903Y-90380712D01*
X41270333Y-90173394D01*
X41273339Y-89960729D01*
X41297294Y-89754897D01*
X41342573Y-89568078D01*
X41347166Y-89554204D01*
X41405757Y-89398138D01*
X41472825Y-89247181D01*
X41541982Y-89114628D01*
X41606591Y-89014109D01*
X41642924Y-88950959D01*
X41661243Y-88890236D01*
X41661772Y-88881337D01*
X41661772Y-88822069D01*
X40812759Y-88822069D01*
X40755338Y-88977932D01*
X40653187Y-89309580D01*
X40581935Y-89660397D01*
X40543249Y-90017308D01*
X40538794Y-90367241D01*
X40552964Y-90565772D01*
X40603165Y-90879000D01*
X40683869Y-91165187D01*
X40793844Y-91421657D01*
X40931855Y-91645734D01*
X41096671Y-91834742D01*
X41166178Y-91896900D01*
X41295559Y-91987785D01*
X41454605Y-92073474D01*
X41626890Y-92145880D01*
X41754136Y-92186394D01*
X41868310Y-92207877D01*
X42014926Y-92221873D01*
X42180858Y-92228403D01*
X42352980Y-92227487D01*
X42518167Y-92219145D01*
X42663294Y-92203398D01*
X42758591Y-92184852D01*
X42766023Y-92182329D01*
X42766023Y-91177341D01*
X42700863Y-91177341D01*
X42700863Y-89808517D01*
X42824693Y-89821297D01*
X42989480Y-89857975D01*
X43126262Y-89929862D01*
X43232477Y-90034832D01*
X43305561Y-90170759D01*
X43325896Y-90237115D01*
X43343758Y-90366396D01*
X43342651Y-90516083D01*
X43324165Y-90666401D01*
X43289888Y-90797578D01*
X43278542Y-90826209D01*
X43203080Y-90949006D01*
X43096972Y-91052414D01*
X42971067Y-91129001D01*
X42836214Y-91171333D01*
X42766023Y-91177341D01*
X42766023Y-92182329D01*
X43014798Y-92097870D01*
X43243252Y-91975399D01*
X43448706Y-91814756D01*
X43498261Y-91767089D01*
X43658916Y-91583203D01*
X43785353Y-91384468D01*
X43883118Y-91160933D01*
X43940008Y-90974692D01*
X43974639Y-90798751D01*
X43996383Y-90595484D01*
X44004925Y-90380307D01*
X43999954Y-90168639D01*
X43999954Y-90168639D01*
G37*
X43999954Y-90168639D02*
X43981154Y-89975898D01*
X43962425Y-89872705D01*
X43885161Y-89619551D01*
X43774769Y-89398147D01*
X43631797Y-89209101D01*
X43456797Y-89053024D01*
X43250318Y-88930525D01*
X43039411Y-88849903D01*
X42956282Y-88827208D01*
X42874250Y-88810530D01*
X42782480Y-88798584D01*
X42670140Y-88790086D01*
X42526395Y-88783752D01*
X42464181Y-88781733D01*
X42077409Y-88769980D01*
X42077409Y-91183347D01*
X41976814Y-91172009D01*
X41809317Y-91130650D01*
X41654522Y-91048792D01*
X41519627Y-90931789D01*
X41411832Y-90784994D01*
X41383275Y-90730592D01*
X41325675Y-90570505D01*
X41287903Y-90380712D01*
X41270333Y-90173394D01*
X41273339Y-89960729D01*
X41297294Y-89754897D01*
X41342573Y-89568078D01*
X41347166Y-89554204D01*
X41405757Y-89398138D01*
X41472825Y-89247181D01*
X41541982Y-89114628D01*
X41606591Y-89014109D01*
X41642924Y-88950959D01*
X41661243Y-88890236D01*
X41661772Y-88881337D01*
X41661772Y-88822069D01*
X40812759Y-88822069D01*
X40755338Y-88977932D01*
X40653187Y-89309580D01*
X40581935Y-89660397D01*
X40543249Y-90017308D01*
X40538794Y-90367241D01*
X40552964Y-90565772D01*
X40603165Y-90879000D01*
X40683869Y-91165187D01*
X40793844Y-91421657D01*
X40931855Y-91645734D01*
X41096671Y-91834742D01*
X41166178Y-91896900D01*
X41295559Y-91987785D01*
X41454605Y-92073474D01*
X41626890Y-92145880D01*
X41754136Y-92186394D01*
X41868310Y-92207877D01*
X42014926Y-92221873D01*
X42180858Y-92228403D01*
X42352980Y-92227487D01*
X42518167Y-92219145D01*
X42663294Y-92203398D01*
X42758591Y-92184852D01*
X42766023Y-92182329D01*
X42766023Y-91177341D01*
X42700863Y-91177341D01*
X42700863Y-89808517D01*
X42824693Y-89821297D01*
X42989480Y-89857975D01*
X43126262Y-89929862D01*
X43232477Y-90034832D01*
X43305561Y-90170759D01*
X43325896Y-90237115D01*
X43343758Y-90366396D01*
X43342651Y-90516083D01*
X43324165Y-90666401D01*
X43289888Y-90797578D01*
X43278542Y-90826209D01*
X43203080Y-90949006D01*
X43096972Y-91052414D01*
X42971067Y-91129001D01*
X42836214Y-91171333D01*
X42766023Y-91177341D01*
X42766023Y-92182329D01*
X43014798Y-92097870D01*
X43243252Y-91975399D01*
X43448706Y-91814756D01*
X43498261Y-91767089D01*
X43658916Y-91583203D01*
X43785353Y-91384468D01*
X43883118Y-91160933D01*
X43940008Y-90974692D01*
X43974639Y-90798751D01*
X43996383Y-90595484D01*
X44004925Y-90380307D01*
X43999954Y-90168639D01*
G36*
X44005169Y-79063016D02*
G01*
X43982749Y-78768946D01*
X43938857Y-78503982D01*
X43873673Y-78271775D01*
X43787378Y-78075972D01*
X43756089Y-78022793D01*
X43668732Y-77912164D01*
X43553683Y-77804965D01*
X43427452Y-77715041D01*
X43328974Y-77664628D01*
X43300054Y-77653212D01*
X43271761Y-77643538D01*
X43240156Y-77635440D01*
X43201302Y-77628752D01*
X43151260Y-77623307D01*
X43086092Y-77618939D01*
X43001861Y-77615483D01*
X42894627Y-77612771D01*
X42760453Y-77610638D01*
X42595401Y-77608917D01*
X42395533Y-77607442D01*
X42156909Y-77606048D01*
X41910000Y-77604746D01*
X40622681Y-77598060D01*
X40622681Y-78615887D01*
X40795863Y-78615887D01*
X40878647Y-78617662D01*
X40939884Y-78622356D01*
X40968290Y-78629026D01*
X40969045Y-78630381D01*
X40956189Y-78654354D01*
X40921948Y-78705580D01*
X40872809Y-78774491D01*
X40853780Y-78800359D01*
X40722179Y-79003861D01*
X40629278Y-79211101D01*
X40571022Y-79433520D01*
X40543774Y-79674642D01*
X40541226Y-79785988D01*
X40544480Y-79898015D01*
X40552817Y-79989248D01*
X40554722Y-80001341D01*
X40605039Y-80177942D01*
X40690648Y-80350342D01*
X40804339Y-80509301D01*
X40938903Y-80645578D01*
X41087132Y-80749931D01*
X41169543Y-80789445D01*
X41236528Y-80813485D01*
X41302039Y-80829221D01*
X41378694Y-80838299D01*
X41479114Y-80842365D01*
X41580954Y-80843116D01*
X41631955Y-80841421D01*
X41631955Y-79793523D01*
X41543572Y-79790796D01*
X41484207Y-79779476D01*
X41436861Y-79754850D01*
X41406258Y-79730978D01*
X41335362Y-79658991D01*
X41287921Y-79577359D01*
X41260817Y-79476384D01*
X41250934Y-79346367D01*
X41251958Y-79250887D01*
X41257937Y-79131450D01*
X41268833Y-79042664D01*
X41287589Y-78969039D01*
X41317148Y-78895088D01*
X41321288Y-78886045D01*
X41362777Y-78802233D01*
X41405521Y-78725133D01*
X41431689Y-78684000D01*
X41480190Y-78615887D01*
X42169772Y-78615887D01*
X42169772Y-78680264D01*
X42166334Y-78741810D01*
X42157076Y-78836703D01*
X42143589Y-78952704D01*
X42127460Y-79077576D01*
X42110279Y-79199081D01*
X42093634Y-79304982D01*
X42079114Y-79383040D01*
X42077707Y-79389432D01*
X42027136Y-79546461D01*
X41954201Y-79663719D01*
X41857230Y-79742722D01*
X41734549Y-79784986D01*
X41631955Y-79793523D01*
X41631955Y-80841421D01*
X41757462Y-80837249D01*
X41899853Y-80817402D01*
X42018957Y-80780209D01*
X42125604Y-80722301D01*
X42229234Y-80641536D01*
X42347472Y-80518049D01*
X42449368Y-80368688D01*
X42535891Y-80190444D01*
X42608007Y-79980309D01*
X42666682Y-79735273D01*
X42712883Y-79452328D01*
X42747578Y-79128466D01*
X42757747Y-78996887D01*
X42765924Y-78891137D01*
X42774889Y-78791917D01*
X42783063Y-78716289D01*
X42785245Y-78699920D01*
X42798150Y-78610772D01*
X42892759Y-78625900D01*
X43015062Y-78663674D01*
X43114546Y-78735209D01*
X43191977Y-78842093D01*
X43248123Y-78985916D01*
X43283751Y-79168266D01*
X43299629Y-79390730D01*
X43300664Y-79470250D01*
X43296265Y-79616585D01*
X43281318Y-79758057D01*
X43253653Y-79905923D01*
X43211098Y-80071442D01*
X43151483Y-80265872D01*
X43141064Y-80297833D01*
X43110710Y-80393537D01*
X43086872Y-80474724D01*
X43072769Y-80530103D01*
X43070318Y-80546060D01*
X43077722Y-80558258D01*
X43103820Y-80567097D01*
X43154445Y-80573062D01*
X43235427Y-80576639D01*
X43352598Y-80578314D01*
X43461226Y-80578614D01*
X43852135Y-80578614D01*
X43876515Y-80457387D01*
X43941789Y-80083379D01*
X43984869Y-79723882D01*
X44005936Y-79382544D01*
X44005169Y-79063016D01*
X44005169Y-79063016D01*
G37*
X44005169Y-79063016D02*
X43982749Y-78768946D01*
X43938857Y-78503982D01*
X43873673Y-78271775D01*
X43787378Y-78075972D01*
X43756089Y-78022793D01*
X43668732Y-77912164D01*
X43553683Y-77804965D01*
X43427452Y-77715041D01*
X43328974Y-77664628D01*
X43300054Y-77653212D01*
X43271761Y-77643538D01*
X43240156Y-77635440D01*
X43201302Y-77628752D01*
X43151260Y-77623307D01*
X43086092Y-77618939D01*
X43001861Y-77615483D01*
X42894627Y-77612771D01*
X42760453Y-77610638D01*
X42595401Y-77608917D01*
X42395533Y-77607442D01*
X42156909Y-77606048D01*
X41910000Y-77604746D01*
X40622681Y-77598060D01*
X40622681Y-78615887D01*
X40795863Y-78615887D01*
X40878647Y-78617662D01*
X40939884Y-78622356D01*
X40968290Y-78629026D01*
X40969045Y-78630381D01*
X40956189Y-78654354D01*
X40921948Y-78705580D01*
X40872809Y-78774491D01*
X40853780Y-78800359D01*
X40722179Y-79003861D01*
X40629278Y-79211101D01*
X40571022Y-79433520D01*
X40543774Y-79674642D01*
X40541226Y-79785988D01*
X40544480Y-79898015D01*
X40552817Y-79989248D01*
X40554722Y-80001341D01*
X40605039Y-80177942D01*
X40690648Y-80350342D01*
X40804339Y-80509301D01*
X40938903Y-80645578D01*
X41087132Y-80749931D01*
X41169543Y-80789445D01*
X41236528Y-80813485D01*
X41302039Y-80829221D01*
X41378694Y-80838299D01*
X41479114Y-80842365D01*
X41580954Y-80843116D01*
X41631955Y-80841421D01*
X41631955Y-79793523D01*
X41543572Y-79790796D01*
X41484207Y-79779476D01*
X41436861Y-79754850D01*
X41406258Y-79730978D01*
X41335362Y-79658991D01*
X41287921Y-79577359D01*
X41260817Y-79476384D01*
X41250934Y-79346367D01*
X41251958Y-79250887D01*
X41257937Y-79131450D01*
X41268833Y-79042664D01*
X41287589Y-78969039D01*
X41317148Y-78895088D01*
X41321288Y-78886045D01*
X41362777Y-78802233D01*
X41405521Y-78725133D01*
X41431689Y-78684000D01*
X41480190Y-78615887D01*
X42169772Y-78615887D01*
X42169772Y-78680264D01*
X42166334Y-78741810D01*
X42157076Y-78836703D01*
X42143589Y-78952704D01*
X42127460Y-79077576D01*
X42110279Y-79199081D01*
X42093634Y-79304982D01*
X42079114Y-79383040D01*
X42077707Y-79389432D01*
X42027136Y-79546461D01*
X41954201Y-79663719D01*
X41857230Y-79742722D01*
X41734549Y-79784986D01*
X41631955Y-79793523D01*
X41631955Y-80841421D01*
X41757462Y-80837249D01*
X41899853Y-80817402D01*
X42018957Y-80780209D01*
X42125604Y-80722301D01*
X42229234Y-80641536D01*
X42347472Y-80518049D01*
X42449368Y-80368688D01*
X42535891Y-80190444D01*
X42608007Y-79980309D01*
X42666682Y-79735273D01*
X42712883Y-79452328D01*
X42747578Y-79128466D01*
X42757747Y-78996887D01*
X42765924Y-78891137D01*
X42774889Y-78791917D01*
X42783063Y-78716289D01*
X42785245Y-78699920D01*
X42798150Y-78610772D01*
X42892759Y-78625900D01*
X43015062Y-78663674D01*
X43114546Y-78735209D01*
X43191977Y-78842093D01*
X43248123Y-78985916D01*
X43283751Y-79168266D01*
X43299629Y-79390730D01*
X43300664Y-79470250D01*
X43296265Y-79616585D01*
X43281318Y-79758057D01*
X43253653Y-79905923D01*
X43211098Y-80071442D01*
X43151483Y-80265872D01*
X43141064Y-80297833D01*
X43110710Y-80393537D01*
X43086872Y-80474724D01*
X43072769Y-80530103D01*
X43070318Y-80546060D01*
X43077722Y-80558258D01*
X43103820Y-80567097D01*
X43154445Y-80573062D01*
X43235427Y-80576639D01*
X43352598Y-80578314D01*
X43461226Y-80578614D01*
X43852135Y-80578614D01*
X43876515Y-80457387D01*
X43941789Y-80083379D01*
X43984869Y-79723882D01*
X44005936Y-79382544D01*
X44005169Y-79063016D01*
G36*
X40622681Y-73420432D02*
G01*
X40622681Y-74459523D01*
X40968950Y-74459523D01*
X40862597Y-74603841D01*
X40720804Y-74823848D01*
X40618787Y-75043640D01*
X40590388Y-75128429D01*
X40563382Y-75253627D01*
X40546394Y-75402937D01*
X40540589Y-75556529D01*
X40547135Y-75694573D01*
X40554131Y-75744736D01*
X40616330Y-75968126D01*
X40717716Y-76168611D01*
X40856732Y-76345025D01*
X41031816Y-76496198D01*
X41241411Y-76620961D01*
X41483957Y-76718147D01*
X41757894Y-76786587D01*
X41987405Y-76818782D01*
X42151759Y-76825421D01*
X42151759Y-75746953D01*
X41930522Y-75725727D01*
X41747925Y-75682331D01*
X41601287Y-75615221D01*
X41487928Y-75522854D01*
X41405168Y-75403686D01*
X41360074Y-75290945D01*
X41343262Y-75193579D01*
X41339899Y-75069773D01*
X41349122Y-74936997D01*
X41370069Y-74812719D01*
X41386646Y-74753204D01*
X41419835Y-74664095D01*
X41456182Y-74581252D01*
X41480893Y-74534569D01*
X41526994Y-74459523D01*
X43179771Y-74459523D01*
X43211635Y-74569205D01*
X43226435Y-74646156D01*
X43237297Y-74754902D01*
X43242966Y-74881134D01*
X43243500Y-74932887D01*
X43242260Y-75051220D01*
X43237265Y-75135976D01*
X43226603Y-75199721D01*
X43208362Y-75255021D01*
X43187552Y-75300561D01*
X43091197Y-75450781D01*
X42964651Y-75569886D01*
X42806660Y-75658417D01*
X42615965Y-75716916D01*
X42391311Y-75745924D01*
X42151759Y-75746953D01*
X42151759Y-76825421D01*
X42287518Y-76830905D01*
X42577678Y-76808852D01*
X42851068Y-76753885D01*
X43100872Y-76667268D01*
X43271218Y-76580776D01*
X43432150Y-76468666D01*
X43584870Y-76331314D01*
X43717699Y-76180659D01*
X43818959Y-76028639D01*
X43828152Y-76011415D01*
X43906798Y-75845962D01*
X43959085Y-75697635D01*
X43989366Y-75549070D01*
X44001994Y-75382907D01*
X44003063Y-75313887D01*
X43998176Y-75141342D01*
X43979697Y-74992274D01*
X43943818Y-74847973D01*
X43886733Y-74689731D01*
X43865633Y-74638478D01*
X43790414Y-74459523D01*
X45194681Y-74459523D01*
X45194681Y-73420432D01*
X40622681Y-73420432D01*
X40622681Y-73420432D01*
G37*
X40622681Y-73420432D02*
X40622681Y-74459523D01*
X40968950Y-74459523D01*
X40862597Y-74603841D01*
X40720804Y-74823848D01*
X40618787Y-75043640D01*
X40590388Y-75128429D01*
X40563382Y-75253627D01*
X40546394Y-75402937D01*
X40540589Y-75556529D01*
X40547135Y-75694573D01*
X40554131Y-75744736D01*
X40616330Y-75968126D01*
X40717716Y-76168611D01*
X40856732Y-76345025D01*
X41031816Y-76496198D01*
X41241411Y-76620961D01*
X41483957Y-76718147D01*
X41757894Y-76786587D01*
X41987405Y-76818782D01*
X42151759Y-76825421D01*
X42151759Y-75746953D01*
X41930522Y-75725727D01*
X41747925Y-75682331D01*
X41601287Y-75615221D01*
X41487928Y-75522854D01*
X41405168Y-75403686D01*
X41360074Y-75290945D01*
X41343262Y-75193579D01*
X41339899Y-75069773D01*
X41349122Y-74936997D01*
X41370069Y-74812719D01*
X41386646Y-74753204D01*
X41419835Y-74664095D01*
X41456182Y-74581252D01*
X41480893Y-74534569D01*
X41526994Y-74459523D01*
X43179771Y-74459523D01*
X43211635Y-74569205D01*
X43226435Y-74646156D01*
X43237297Y-74754902D01*
X43242966Y-74881134D01*
X43243500Y-74932887D01*
X43242260Y-75051220D01*
X43237265Y-75135976D01*
X43226603Y-75199721D01*
X43208362Y-75255021D01*
X43187552Y-75300561D01*
X43091197Y-75450781D01*
X42964651Y-75569886D01*
X42806660Y-75658417D01*
X42615965Y-75716916D01*
X42391311Y-75745924D01*
X42151759Y-75746953D01*
X42151759Y-76825421D01*
X42287518Y-76830905D01*
X42577678Y-76808852D01*
X42851068Y-76753885D01*
X43100872Y-76667268D01*
X43271218Y-76580776D01*
X43432150Y-76468666D01*
X43584870Y-76331314D01*
X43717699Y-76180659D01*
X43818959Y-76028639D01*
X43828152Y-76011415D01*
X43906798Y-75845962D01*
X43959085Y-75697635D01*
X43989366Y-75549070D01*
X44001994Y-75382907D01*
X44003063Y-75313887D01*
X43998176Y-75141342D01*
X43979697Y-74992274D01*
X43943818Y-74847973D01*
X43886733Y-74689731D01*
X43865633Y-74638478D01*
X43790414Y-74459523D01*
X45194681Y-74459523D01*
X45194681Y-73420432D01*
X40622681Y-73420432D01*
G36*
X44005500Y-114383705D02*
G01*
X43797703Y-114383312D01*
X43604956Y-114382187D01*
X43431994Y-114380415D01*
X43283550Y-114378079D01*
X43164359Y-114375263D01*
X43079155Y-114372051D01*
X43032673Y-114368526D01*
X43025320Y-114366387D01*
X43043185Y-114349256D01*
X43094106Y-114306344D01*
X43174762Y-114240317D01*
X43281829Y-114153839D01*
X43411984Y-114049579D01*
X43561904Y-113930202D01*
X43728268Y-113798374D01*
X43907751Y-113656761D01*
X44006683Y-113578947D01*
X44986863Y-112808825D01*
X44986863Y-111518091D01*
X44637392Y-111813671D01*
X44534577Y-111900601D01*
X44403594Y-112011300D01*
X44251567Y-112139751D01*
X44085620Y-112279935D01*
X43912875Y-112425834D01*
X43740458Y-112571432D01*
X43627478Y-112666821D01*
X42967034Y-113224391D01*
X42885903Y-113161312D01*
X42802865Y-113097067D01*
X42694723Y-113013893D01*
X42565265Y-112914669D01*
X42418282Y-112802273D01*
X42257563Y-112679586D01*
X42086899Y-112549484D01*
X41910078Y-112414849D01*
X41730891Y-112278558D01*
X41553127Y-112143491D01*
X41380576Y-112012527D01*
X41217028Y-111888544D01*
X41066272Y-111774423D01*
X40932099Y-111673041D01*
X40818298Y-111587277D01*
X40728658Y-111520012D01*
X40666969Y-111474123D01*
X40637022Y-111452490D01*
X40634776Y-111451159D01*
X40631728Y-111473297D01*
X40629000Y-111535901D01*
X40626689Y-111633253D01*
X40624893Y-111759640D01*
X40623710Y-111909343D01*
X40623237Y-112076648D01*
X40623246Y-112126569D01*
X40623811Y-112801978D01*
X41500407Y-113456290D01*
X42377003Y-114110603D01*
X42050131Y-114383705D01*
X40622681Y-114383705D01*
X40622681Y-115492069D01*
X44986863Y-115492069D01*
X44986863Y-114383705D01*
X44005500Y-114383705D01*
X44005500Y-114383705D01*
G37*
X44005500Y-114383705D02*
X43797703Y-114383312D01*
X43604956Y-114382187D01*
X43431994Y-114380415D01*
X43283550Y-114378079D01*
X43164359Y-114375263D01*
X43079155Y-114372051D01*
X43032673Y-114368526D01*
X43025320Y-114366387D01*
X43043185Y-114349256D01*
X43094106Y-114306344D01*
X43174762Y-114240317D01*
X43281829Y-114153839D01*
X43411984Y-114049579D01*
X43561904Y-113930202D01*
X43728268Y-113798374D01*
X43907751Y-113656761D01*
X44006683Y-113578947D01*
X44986863Y-112808825D01*
X44986863Y-111518091D01*
X44637392Y-111813671D01*
X44534577Y-111900601D01*
X44403594Y-112011300D01*
X44251567Y-112139751D01*
X44085620Y-112279935D01*
X43912875Y-112425834D01*
X43740458Y-112571432D01*
X43627478Y-112666821D01*
X42967034Y-113224391D01*
X42885903Y-113161312D01*
X42802865Y-113097067D01*
X42694723Y-113013893D01*
X42565265Y-112914669D01*
X42418282Y-112802273D01*
X42257563Y-112679586D01*
X42086899Y-112549484D01*
X41910078Y-112414849D01*
X41730891Y-112278558D01*
X41553127Y-112143491D01*
X41380576Y-112012527D01*
X41217028Y-111888544D01*
X41066272Y-111774423D01*
X40932099Y-111673041D01*
X40818298Y-111587277D01*
X40728658Y-111520012D01*
X40666969Y-111474123D01*
X40637022Y-111452490D01*
X40634776Y-111451159D01*
X40631728Y-111473297D01*
X40629000Y-111535901D01*
X40626689Y-111633253D01*
X40624893Y-111759640D01*
X40623710Y-111909343D01*
X40623237Y-112076648D01*
X40623246Y-112126569D01*
X40623811Y-112801978D01*
X41500407Y-113456290D01*
X42377003Y-114110603D01*
X42050131Y-114383705D01*
X40622681Y-114383705D01*
X40622681Y-115492069D01*
X44986863Y-115492069D01*
X44986863Y-114383705D01*
X44005500Y-114383705D01*
G36*
X43988836Y-108528496D02*
G01*
X43962501Y-108391672D01*
X43960270Y-108383848D01*
X43879635Y-108183886D01*
X43763762Y-108013549D01*
X43613554Y-107873890D01*
X43429915Y-107765962D01*
X43429394Y-107765723D01*
X43369715Y-107739819D01*
X43309999Y-107717798D01*
X43246058Y-107699346D01*
X43173705Y-107684149D01*
X43088754Y-107671891D01*
X42987018Y-107662259D01*
X42864312Y-107654937D01*
X42716447Y-107649611D01*
X42539238Y-107645966D01*
X42328499Y-107643687D01*
X42080042Y-107642460D01*
X41789680Y-107641970D01*
X41783000Y-107641965D01*
X40622681Y-107641159D01*
X40622681Y-108680250D01*
X41436636Y-108680774D01*
X41743053Y-108681769D01*
X42006869Y-108684604D01*
X42231647Y-108689692D01*
X42420945Y-108697446D01*
X42578324Y-108708277D01*
X42707345Y-108722597D01*
X42811566Y-108740820D01*
X42894549Y-108763357D01*
X42959854Y-108790621D01*
X43011040Y-108823024D01*
X43051668Y-108860978D01*
X43058251Y-108868569D01*
X43117396Y-108971636D01*
X43151529Y-109103964D01*
X43161191Y-109256347D01*
X43146927Y-109419579D01*
X43109280Y-109584455D01*
X43048793Y-109741769D01*
X43001565Y-109829023D01*
X42955542Y-109904069D01*
X40622681Y-109904069D01*
X40622681Y-110943159D01*
X43924681Y-110943159D01*
X43924681Y-109904069D01*
X43755348Y-109904069D01*
X43671100Y-109902264D01*
X43606092Y-109897507D01*
X43573044Y-109890777D01*
X43571850Y-109889904D01*
X43577294Y-109865754D01*
X43605388Y-109816512D01*
X43646921Y-109757131D01*
X43734256Y-109628396D01*
X43819390Y-109480595D01*
X43893867Y-109329940D01*
X43949232Y-109192643D01*
X43961696Y-109153614D01*
X43988418Y-109020324D01*
X44001827Y-108860153D01*
X44001956Y-108690433D01*
X43988836Y-108528496D01*
X43988836Y-108528496D01*
G37*
X43988836Y-108528496D02*
X43962501Y-108391672D01*
X43960270Y-108383848D01*
X43879635Y-108183886D01*
X43763762Y-108013549D01*
X43613554Y-107873890D01*
X43429915Y-107765962D01*
X43429394Y-107765723D01*
X43369715Y-107739819D01*
X43309999Y-107717798D01*
X43246058Y-107699346D01*
X43173705Y-107684149D01*
X43088754Y-107671891D01*
X42987018Y-107662259D01*
X42864312Y-107654937D01*
X42716447Y-107649611D01*
X42539238Y-107645966D01*
X42328499Y-107643687D01*
X42080042Y-107642460D01*
X41789680Y-107641970D01*
X41783000Y-107641965D01*
X40622681Y-107641159D01*
X40622681Y-108680250D01*
X41436636Y-108680774D01*
X41743053Y-108681769D01*
X42006869Y-108684604D01*
X42231647Y-108689692D01*
X42420945Y-108697446D01*
X42578324Y-108708277D01*
X42707345Y-108722597D01*
X42811566Y-108740820D01*
X42894549Y-108763357D01*
X42959854Y-108790621D01*
X43011040Y-108823024D01*
X43051668Y-108860978D01*
X43058251Y-108868569D01*
X43117396Y-108971636D01*
X43151529Y-109103964D01*
X43161191Y-109256347D01*
X43146927Y-109419579D01*
X43109280Y-109584455D01*
X43048793Y-109741769D01*
X43001565Y-109829023D01*
X42955542Y-109904069D01*
X40622681Y-109904069D01*
X40622681Y-110943159D01*
X43924681Y-110943159D01*
X43924681Y-109904069D01*
X43755348Y-109904069D01*
X43671100Y-109902264D01*
X43606092Y-109897507D01*
X43573044Y-109890777D01*
X43571850Y-109889904D01*
X43577294Y-109865754D01*
X43605388Y-109816512D01*
X43646921Y-109757131D01*
X43734256Y-109628396D01*
X43819390Y-109480595D01*
X43893867Y-109329940D01*
X43949232Y-109192643D01*
X43961696Y-109153614D01*
X43988418Y-109020324D01*
X44001827Y-108860153D01*
X44001956Y-108690433D01*
X43988836Y-108528496D01*
G36*
X44843336Y-104671340D02*
G01*
X44760991Y-104372535D01*
X44737594Y-104309585D01*
X44605724Y-104032562D01*
X44437087Y-103779972D01*
X44235672Y-103555003D01*
X44005473Y-103360844D01*
X43750479Y-103200682D01*
X43474680Y-103077705D01*
X43182069Y-102995102D01*
X43066774Y-102974885D01*
X42897689Y-102959585D01*
X42707967Y-102957875D01*
X42514363Y-102968849D01*
X42333634Y-102991599D01*
X42192863Y-103022226D01*
X41917431Y-103121625D01*
X41652863Y-103258754D01*
X41408149Y-103427752D01*
X41192279Y-103622757D01*
X41084088Y-103745152D01*
X41007889Y-103852584D01*
X40925567Y-103990292D01*
X40844143Y-104144351D01*
X40770633Y-104300836D01*
X40712057Y-104445825D01*
X40679934Y-104546978D01*
X40657950Y-104663498D01*
X40642160Y-104811523D01*
X40632842Y-104977583D01*
X40630276Y-105148207D01*
X40634739Y-105309924D01*
X40646512Y-105449263D01*
X40659628Y-105527982D01*
X40748146Y-105824573D01*
X40875519Y-106101763D01*
X41038382Y-106356029D01*
X41233370Y-106583845D01*
X41457120Y-106781688D01*
X41706266Y-106946032D01*
X41977444Y-107073353D01*
X42203356Y-107145017D01*
X42519413Y-107204023D01*
X42826361Y-107217964D01*
X43125955Y-107186662D01*
X43373082Y-107122168D01*
X43373082Y-104892982D01*
X43368383Y-104889849D01*
X43347363Y-104858812D01*
X43305457Y-104800582D01*
X43249655Y-104724789D01*
X43211726Y-104673978D01*
X43152992Y-104593603D01*
X43106448Y-104525926D01*
X43078155Y-104479988D01*
X43072424Y-104466159D01*
X43090300Y-104447185D01*
X43141087Y-104405272D01*
X43219954Y-104344099D01*
X43322070Y-104267344D01*
X43442605Y-104178683D01*
X43576729Y-104081794D01*
X43586056Y-104075118D01*
X43722022Y-103978166D01*
X43846219Y-103890211D01*
X43953560Y-103814809D01*
X44038956Y-103755513D01*
X44097319Y-103715880D01*
X44123560Y-103699464D01*
X44123971Y-103699305D01*
X44143533Y-103714292D01*
X44182738Y-103758345D01*
X44234891Y-103822599D01*
X44293294Y-103898186D01*
X44351252Y-103976239D01*
X44402069Y-104047893D01*
X44439047Y-104104279D01*
X44455490Y-104136532D01*
X44455772Y-104138647D01*
X44437773Y-104154793D01*
X44386919Y-104194293D01*
X44307923Y-104253643D01*
X44205499Y-104329340D01*
X44084361Y-104417879D01*
X43949224Y-104515758D01*
X43921103Y-104536023D01*
X43754377Y-104655209D01*
X43621537Y-104748131D01*
X43519785Y-104816578D01*
X43446323Y-104862342D01*
X43398355Y-104887213D01*
X43373082Y-104892982D01*
X43373082Y-107122168D01*
X43419952Y-107109936D01*
X43701262Y-106992032D01*
X43852337Y-106912394D01*
X43975891Y-106835307D01*
X44088374Y-106749191D01*
X44206231Y-106642470D01*
X44228668Y-106620781D01*
X44437741Y-106386372D01*
X44607905Y-106130400D01*
X44738253Y-105856987D01*
X44827878Y-105570254D01*
X44875872Y-105274321D01*
X44881327Y-104973309D01*
X44843336Y-104671340D01*
X44843336Y-104671340D01*
G37*
X44843336Y-104671340D02*
X44760991Y-104372535D01*
X44737594Y-104309585D01*
X44605724Y-104032562D01*
X44437087Y-103779972D01*
X44235672Y-103555003D01*
X44005473Y-103360844D01*
X43750479Y-103200682D01*
X43474680Y-103077705D01*
X43182069Y-102995102D01*
X43066774Y-102974885D01*
X42897689Y-102959585D01*
X42707967Y-102957875D01*
X42514363Y-102968849D01*
X42333634Y-102991599D01*
X42192863Y-103022226D01*
X41917431Y-103121625D01*
X41652863Y-103258754D01*
X41408149Y-103427752D01*
X41192279Y-103622757D01*
X41084088Y-103745152D01*
X41007889Y-103852584D01*
X40925567Y-103990292D01*
X40844143Y-104144351D01*
X40770633Y-104300836D01*
X40712057Y-104445825D01*
X40679934Y-104546978D01*
X40657950Y-104663498D01*
X40642160Y-104811523D01*
X40632842Y-104977583D01*
X40630276Y-105148207D01*
X40634739Y-105309924D01*
X40646512Y-105449263D01*
X40659628Y-105527982D01*
X40748146Y-105824573D01*
X40875519Y-106101763D01*
X41038382Y-106356029D01*
X41233370Y-106583845D01*
X41457120Y-106781688D01*
X41706266Y-106946032D01*
X41977444Y-107073353D01*
X42203356Y-107145017D01*
X42519413Y-107204023D01*
X42826361Y-107217964D01*
X43125955Y-107186662D01*
X43373082Y-107122168D01*
X43373082Y-104892982D01*
X43368383Y-104889849D01*
X43347363Y-104858812D01*
X43305457Y-104800582D01*
X43249655Y-104724789D01*
X43211726Y-104673978D01*
X43152992Y-104593603D01*
X43106448Y-104525926D01*
X43078155Y-104479988D01*
X43072424Y-104466159D01*
X43090300Y-104447185D01*
X43141087Y-104405272D01*
X43219954Y-104344099D01*
X43322070Y-104267344D01*
X43442605Y-104178683D01*
X43576729Y-104081794D01*
X43586056Y-104075118D01*
X43722022Y-103978166D01*
X43846219Y-103890211D01*
X43953560Y-103814809D01*
X44038956Y-103755513D01*
X44097319Y-103715880D01*
X44123560Y-103699464D01*
X44123971Y-103699305D01*
X44143533Y-103714292D01*
X44182738Y-103758345D01*
X44234891Y-103822599D01*
X44293294Y-103898186D01*
X44351252Y-103976239D01*
X44402069Y-104047893D01*
X44439047Y-104104279D01*
X44455490Y-104136532D01*
X44455772Y-104138647D01*
X44437773Y-104154793D01*
X44386919Y-104194293D01*
X44307923Y-104253643D01*
X44205499Y-104329340D01*
X44084361Y-104417879D01*
X43949224Y-104515758D01*
X43921103Y-104536023D01*
X43754377Y-104655209D01*
X43621537Y-104748131D01*
X43519785Y-104816578D01*
X43446323Y-104862342D01*
X43398355Y-104887213D01*
X43373082Y-104892982D01*
X43373082Y-107122168D01*
X43419952Y-107109936D01*
X43701262Y-106992032D01*
X43852337Y-106912394D01*
X43975891Y-106835307D01*
X44088374Y-106749191D01*
X44206231Y-106642470D01*
X44228668Y-106620781D01*
X44437741Y-106386372D01*
X44607905Y-106130400D01*
X44738253Y-105856987D01*
X44827878Y-105570254D01*
X44875872Y-105274321D01*
X44881327Y-104973309D01*
X44843336Y-104671340D01*
G36*
X43996699Y-98093598D02*
G01*
X43969455Y-97943390D01*
X43931093Y-97809875D01*
X43912620Y-97763962D01*
X43838083Y-97638083D01*
X43733994Y-97514479D01*
X43614262Y-97407593D01*
X43499686Y-97335174D01*
X43439266Y-97305853D01*
X43384454Y-97280926D01*
X43331029Y-97260010D01*
X43274769Y-97242721D01*
X43211453Y-97228677D01*
X43136861Y-97217493D01*
X43046771Y-97208786D01*
X42936961Y-97202172D01*
X42803212Y-97197269D01*
X42641301Y-97193692D01*
X42447008Y-97191058D01*
X42216112Y-97188984D01*
X41944390Y-97187086D01*
X41863818Y-97186557D01*
X40622681Y-97178409D01*
X40622681Y-98213261D01*
X41690636Y-98226459D01*
X41963409Y-98230051D01*
X42193985Y-98233833D01*
X42386346Y-98238256D01*
X42544476Y-98243774D01*
X42672357Y-98250840D01*
X42773974Y-98259906D01*
X42853310Y-98271424D01*
X42914347Y-98285847D01*
X42961069Y-98303628D01*
X42997460Y-98325220D01*
X43027502Y-98351075D01*
X43055055Y-98381498D01*
X43112834Y-98468327D01*
X43146967Y-98568550D01*
X43160095Y-98693060D01*
X43157905Y-98806003D01*
X43148735Y-98913624D01*
X43131101Y-99000470D01*
X43099275Y-99087959D01*
X43059863Y-99172569D01*
X42972085Y-99351523D01*
X40622681Y-99351523D01*
X40622681Y-100387026D01*
X41702181Y-100396520D01*
X41967515Y-100398978D01*
X42190832Y-100401567D01*
X42376297Y-100404706D01*
X42528075Y-100408813D01*
X42650330Y-100414306D01*
X42747227Y-100421603D01*
X42822930Y-100431121D01*
X42881605Y-100443279D01*
X42927414Y-100458494D01*
X42964524Y-100477185D01*
X42997099Y-100499769D01*
X43029302Y-100526664D01*
X43033222Y-100530097D01*
X43102017Y-100614977D01*
X43144078Y-100727674D01*
X43160730Y-100872857D01*
X43159267Y-100973824D01*
X43150894Y-101071051D01*
X43133384Y-101152714D01*
X43101278Y-101237981D01*
X43058534Y-101327404D01*
X42966409Y-101510523D01*
X41794545Y-101516507D01*
X40622681Y-101522492D01*
X40622681Y-102561159D01*
X43924681Y-102561159D01*
X43924681Y-101522069D01*
X43755348Y-101522069D01*
X43671193Y-101520332D01*
X43606369Y-101515753D01*
X43573548Y-101509276D01*
X43572373Y-101508427D01*
X43577714Y-101484335D01*
X43605692Y-101436237D01*
X43637859Y-101391123D01*
X43799046Y-101150624D01*
X43914846Y-100911145D01*
X43985084Y-100673258D01*
X44009579Y-100437537D01*
X43994500Y-100240523D01*
X43939013Y-100024006D01*
X43846981Y-99834459D01*
X43719370Y-99673448D01*
X43569073Y-99550334D01*
X43443085Y-99466708D01*
X43588099Y-99272200D01*
X43749735Y-99032697D01*
X43874672Y-98798118D01*
X43960918Y-98572785D01*
X44005814Y-98366415D01*
X44009820Y-98241079D01*
X43996699Y-98093598D01*
X43996699Y-98093598D01*
G37*
X43996699Y-98093598D02*
X43969455Y-97943390D01*
X43931093Y-97809875D01*
X43912620Y-97763962D01*
X43838083Y-97638083D01*
X43733994Y-97514479D01*
X43614262Y-97407593D01*
X43499686Y-97335174D01*
X43439266Y-97305853D01*
X43384454Y-97280926D01*
X43331029Y-97260010D01*
X43274769Y-97242721D01*
X43211453Y-97228677D01*
X43136861Y-97217493D01*
X43046771Y-97208786D01*
X42936961Y-97202172D01*
X42803212Y-97197269D01*
X42641301Y-97193692D01*
X42447008Y-97191058D01*
X42216112Y-97188984D01*
X41944390Y-97187086D01*
X41863818Y-97186557D01*
X40622681Y-97178409D01*
X40622681Y-98213261D01*
X41690636Y-98226459D01*
X41963409Y-98230051D01*
X42193985Y-98233833D01*
X42386346Y-98238256D01*
X42544476Y-98243774D01*
X42672357Y-98250840D01*
X42773974Y-98259906D01*
X42853310Y-98271424D01*
X42914347Y-98285847D01*
X42961069Y-98303628D01*
X42997460Y-98325220D01*
X43027502Y-98351075D01*
X43055055Y-98381498D01*
X43112834Y-98468327D01*
X43146967Y-98568550D01*
X43160095Y-98693060D01*
X43157905Y-98806003D01*
X43148735Y-98913624D01*
X43131101Y-99000470D01*
X43099275Y-99087959D01*
X43059863Y-99172569D01*
X42972085Y-99351523D01*
X40622681Y-99351523D01*
X40622681Y-100387026D01*
X41702181Y-100396520D01*
X41967515Y-100398978D01*
X42190832Y-100401567D01*
X42376297Y-100404706D01*
X42528075Y-100408813D01*
X42650330Y-100414306D01*
X42747227Y-100421603D01*
X42822930Y-100431121D01*
X42881605Y-100443279D01*
X42927414Y-100458494D01*
X42964524Y-100477185D01*
X42997099Y-100499769D01*
X43029302Y-100526664D01*
X43033222Y-100530097D01*
X43102017Y-100614977D01*
X43144078Y-100727674D01*
X43160730Y-100872857D01*
X43159267Y-100973824D01*
X43150894Y-101071051D01*
X43133384Y-101152714D01*
X43101278Y-101237981D01*
X43058534Y-101327404D01*
X42966409Y-101510523D01*
X41794545Y-101516507D01*
X40622681Y-101522492D01*
X40622681Y-102561159D01*
X43924681Y-102561159D01*
X43924681Y-101522069D01*
X43755348Y-101522069D01*
X43671193Y-101520332D01*
X43606369Y-101515753D01*
X43573548Y-101509276D01*
X43572373Y-101508427D01*
X43577714Y-101484335D01*
X43605692Y-101436237D01*
X43637859Y-101391123D01*
X43799046Y-101150624D01*
X43914846Y-100911145D01*
X43985084Y-100673258D01*
X44009579Y-100437537D01*
X43994500Y-100240523D01*
X43939013Y-100024006D01*
X43846981Y-99834459D01*
X43719370Y-99673448D01*
X43569073Y-99550334D01*
X43443085Y-99466708D01*
X43588099Y-99272200D01*
X43749735Y-99032697D01*
X43874672Y-98798118D01*
X43960918Y-98572785D01*
X44005814Y-98366415D01*
X44009820Y-98241079D01*
X43996699Y-98093598D01*
G36*
X43697621Y-86974796D02*
G01*
X43599638Y-86973464D01*
X43519867Y-86969879D01*
X43468987Y-86964658D01*
X43456642Y-86960877D01*
X43463217Y-86937552D01*
X43493124Y-86888156D01*
X43540375Y-86822298D01*
X43553708Y-86805014D01*
X43700242Y-86593629D01*
X43805739Y-86385300D01*
X43851035Y-86258590D01*
X43884563Y-86125780D01*
X43908221Y-85986545D01*
X43920270Y-85855669D01*
X43918973Y-85747932D01*
X43914736Y-85716749D01*
X43899498Y-85635523D01*
X42903298Y-85635523D01*
X42918909Y-85699023D01*
X42925389Y-85744497D01*
X42932491Y-85825891D01*
X42939486Y-85932963D01*
X42945644Y-86055473D01*
X42947455Y-86099798D01*
X42947606Y-86379029D01*
X42925075Y-86618306D01*
X42879829Y-86817928D01*
X42850476Y-86898684D01*
X42818674Y-86974796D01*
X40622681Y-86974796D01*
X40622681Y-88013887D01*
X43924681Y-88013887D01*
X43924681Y-86974796D01*
X43697621Y-86974796D01*
X43697621Y-86974796D01*
G37*
X43697621Y-86974796D02*
X43599638Y-86973464D01*
X43519867Y-86969879D01*
X43468987Y-86964658D01*
X43456642Y-86960877D01*
X43463217Y-86937552D01*
X43493124Y-86888156D01*
X43540375Y-86822298D01*
X43553708Y-86805014D01*
X43700242Y-86593629D01*
X43805739Y-86385300D01*
X43851035Y-86258590D01*
X43884563Y-86125780D01*
X43908221Y-85986545D01*
X43920270Y-85855669D01*
X43918973Y-85747932D01*
X43914736Y-85716749D01*
X43899498Y-85635523D01*
X42903298Y-85635523D01*
X42918909Y-85699023D01*
X42925389Y-85744497D01*
X42932491Y-85825891D01*
X42939486Y-85932963D01*
X42945644Y-86055473D01*
X42947455Y-86099798D01*
X42947606Y-86379029D01*
X42925075Y-86618306D01*
X42879829Y-86817928D01*
X42850476Y-86898684D01*
X42818674Y-86974796D01*
X40622681Y-86974796D01*
X40622681Y-88013887D01*
X43924681Y-88013887D01*
X43924681Y-86974796D01*
X43697621Y-86974796D01*
G36*
X44980179Y-83828659D02*
G01*
X44977387Y-83551347D01*
X44974411Y-83315606D01*
X44970853Y-83116828D01*
X44966314Y-82950403D01*
X44960395Y-82811721D01*
X44952697Y-82696175D01*
X44942821Y-82599153D01*
X44930368Y-82516048D01*
X44914940Y-82442249D01*
X44896137Y-82373147D01*
X44873561Y-82304133D01*
X44846811Y-82230597D01*
X44840394Y-82213531D01*
X44739640Y-82000286D01*
X44609515Y-81811551D01*
X44455386Y-81653793D01*
X44282621Y-81533483D01*
X44270830Y-81527090D01*
X44074122Y-81446664D01*
X43854207Y-81399535D01*
X43619712Y-81385540D01*
X43379263Y-81404519D01*
X43141486Y-81456309D01*
X42915009Y-81540749D01*
X42889240Y-81552952D01*
X42756011Y-81634272D01*
X42617454Y-81747898D01*
X42484695Y-81882985D01*
X42368859Y-82028686D01*
X42313590Y-82114159D01*
X42236885Y-82258801D01*
X42175570Y-82408464D01*
X42128345Y-82569923D01*
X42093909Y-82749952D01*
X42070960Y-82955325D01*
X42058197Y-83192818D01*
X42054318Y-83464068D01*
X42054318Y-83857523D01*
X40622681Y-83857523D01*
X40622681Y-84965887D01*
X42885591Y-84965887D01*
X42885591Y-83857523D01*
X42885591Y-83538491D01*
X42887478Y-83407454D01*
X42892631Y-83279742D01*
X42900288Y-83169137D01*
X42909685Y-83089420D01*
X42910784Y-83083178D01*
X42960634Y-82903435D01*
X43037543Y-82760743D01*
X43142730Y-82653878D01*
X43277411Y-82581614D01*
X43442805Y-82542726D01*
X43449117Y-82541960D01*
X43628414Y-82538643D01*
X43782361Y-82573925D01*
X43910888Y-82647759D01*
X44013927Y-82760098D01*
X44091411Y-82910894D01*
X44122685Y-83008609D01*
X44138765Y-83101232D01*
X44149531Y-83236931D01*
X44154795Y-83412884D01*
X44155317Y-83493841D01*
X44155591Y-83857523D01*
X42885591Y-83857523D01*
X42885591Y-84965887D01*
X44990935Y-84965887D01*
X44980179Y-83828659D01*
X44980179Y-83828659D01*
G37*
X44980179Y-83828659D02*
X44977387Y-83551347D01*
X44974411Y-83315606D01*
X44970853Y-83116828D01*
X44966314Y-82950403D01*
X44960395Y-82811721D01*
X44952697Y-82696175D01*
X44942821Y-82599153D01*
X44930368Y-82516048D01*
X44914940Y-82442249D01*
X44896137Y-82373147D01*
X44873561Y-82304133D01*
X44846811Y-82230597D01*
X44840394Y-82213531D01*
X44739640Y-82000286D01*
X44609515Y-81811551D01*
X44455386Y-81653793D01*
X44282621Y-81533483D01*
X44270830Y-81527090D01*
X44074122Y-81446664D01*
X43854207Y-81399535D01*
X43619712Y-81385540D01*
X43379263Y-81404519D01*
X43141486Y-81456309D01*
X42915009Y-81540749D01*
X42889240Y-81552952D01*
X42756011Y-81634272D01*
X42617454Y-81747898D01*
X42484695Y-81882985D01*
X42368859Y-82028686D01*
X42313590Y-82114159D01*
X42236885Y-82258801D01*
X42175570Y-82408464D01*
X42128345Y-82569923D01*
X42093909Y-82749952D01*
X42070960Y-82955325D01*
X42058197Y-83192818D01*
X42054318Y-83464068D01*
X42054318Y-83857523D01*
X40622681Y-83857523D01*
X40622681Y-84965887D01*
X42885591Y-84965887D01*
X42885591Y-83857523D01*
X42885591Y-83538491D01*
X42887478Y-83407454D01*
X42892631Y-83279742D01*
X42900288Y-83169137D01*
X42909685Y-83089420D01*
X42910784Y-83083178D01*
X42960634Y-82903435D01*
X43037543Y-82760743D01*
X43142730Y-82653878D01*
X43277411Y-82581614D01*
X43442805Y-82542726D01*
X43449117Y-82541960D01*
X43628414Y-82538643D01*
X43782361Y-82573925D01*
X43910888Y-82647759D01*
X44013927Y-82760098D01*
X44091411Y-82910894D01*
X44122685Y-83008609D01*
X44138765Y-83101232D01*
X44149531Y-83236931D01*
X44154795Y-83412884D01*
X44155317Y-83493841D01*
X44155591Y-83857523D01*
X42885591Y-83857523D01*
X42885591Y-84965887D01*
X44990935Y-84965887D01*
X44980179Y-83828659D01*
D12*
X58431250Y-118162500D02*
X60631250Y-118162500D01*
X60631250Y-117962500D02*
X58431250Y-117962500D01*
X60531250Y-117762500D02*
X60631250Y-117762500D01*
X60631250Y-117762500D02*
X60531250Y-117762500D01*
X58431250Y-117762500D02*
X60531250Y-117762500D01*
D13*
X60674250Y-120586500D02*
X60674250Y-117538500D01*
X60674250Y-117538500D02*
X58388250Y-117538500D01*
X58388250Y-117538500D02*
X58388250Y-120586500D01*
X58388250Y-120586500D02*
X60674250Y-120586500D01*
X113950750Y-120586500D02*
X116236750Y-120586500D01*
X113950750Y-117538500D02*
X113950750Y-120586500D01*
X116236750Y-117538500D02*
X113950750Y-117538500D01*
X116236750Y-120586500D02*
X116236750Y-117538500D01*
D12*
X113993750Y-117762500D02*
X116093750Y-117762500D01*
X116193750Y-117762500D02*
X116093750Y-117762500D01*
X116093750Y-117762500D02*
X116193750Y-117762500D01*
X116193750Y-117962500D02*
X113993750Y-117962500D01*
X113993750Y-118162500D02*
X116193750Y-118162500D01*
D13*
X96488250Y-120586500D02*
X98774250Y-120586500D01*
X96488250Y-117538500D02*
X96488250Y-120586500D01*
X98774250Y-117538500D02*
X96488250Y-117538500D01*
X98774250Y-120586500D02*
X98774250Y-117538500D01*
D12*
X96531250Y-117762500D02*
X98631250Y-117762500D01*
X98731250Y-117762500D02*
X98631250Y-117762500D01*
X98631250Y-117762500D02*
X98731250Y-117762500D01*
X98731250Y-117962500D02*
X96531250Y-117962500D01*
X96531250Y-118162500D02*
X98731250Y-118162500D01*
D13*
X77438250Y-120586500D02*
X79724250Y-120586500D01*
X77438250Y-117538500D02*
X77438250Y-120586500D01*
X79724250Y-117538500D02*
X77438250Y-117538500D01*
X79724250Y-120586500D02*
X79724250Y-117538500D01*
D12*
X77481250Y-117762500D02*
X79581250Y-117762500D01*
X79681250Y-117762500D02*
X79581250Y-117762500D01*
X79581250Y-117762500D02*
X79681250Y-117762500D01*
X79681250Y-117962500D02*
X77481250Y-117962500D01*
X77481250Y-118162500D02*
X79681250Y-118162500D01*
D13*
X124555250Y-97186750D02*
X124555250Y-94900750D01*
X121507250Y-97186750D02*
X124555250Y-97186750D01*
X121507250Y-94900750D02*
X121507250Y-97186750D01*
X124555250Y-94900750D02*
X121507250Y-94900750D01*
D12*
X121731250Y-97143750D02*
X121731250Y-95043750D01*
X121731250Y-94943750D02*
X121731250Y-95043750D01*
X121731250Y-95043750D02*
X121731250Y-94943750D01*
X121931250Y-94943750D02*
X121931250Y-97143750D01*
X122131250Y-97143750D02*
X122131250Y-94943750D01*
D13*
X114744500Y-101536500D02*
X117030500Y-101536500D01*
X114744500Y-98488500D02*
X114744500Y-101536500D01*
X117030500Y-98488500D02*
X114744500Y-98488500D01*
X117030500Y-101536500D02*
X117030500Y-98488500D01*
D12*
X114787500Y-98712500D02*
X116887500Y-98712500D01*
X116987500Y-98712500D02*
X116887500Y-98712500D01*
X116887500Y-98712500D02*
X116987500Y-98712500D01*
X116987500Y-98912500D02*
X114787500Y-98912500D01*
X114787500Y-99112500D02*
X116987500Y-99112500D01*
D13*
X96488250Y-101536500D02*
X98774250Y-101536500D01*
X96488250Y-98488500D02*
X96488250Y-101536500D01*
X98774250Y-98488500D02*
X96488250Y-98488500D01*
X98774250Y-101536500D02*
X98774250Y-98488500D01*
D12*
X96531250Y-98712500D02*
X98631250Y-98712500D01*
X98731250Y-98712500D02*
X98631250Y-98712500D01*
X98631250Y-98712500D02*
X98731250Y-98712500D01*
X98731250Y-98912500D02*
X96531250Y-98912500D01*
X96531250Y-99112500D02*
X98731250Y-99112500D01*
D13*
X77438250Y-101536500D02*
X79724250Y-101536500D01*
X77438250Y-98488500D02*
X77438250Y-101536500D01*
X79724250Y-98488500D02*
X77438250Y-98488500D01*
X79724250Y-101536500D02*
X79724250Y-98488500D01*
D12*
X77481250Y-98712500D02*
X79581250Y-98712500D01*
X79681250Y-98712500D02*
X79581250Y-98712500D01*
X79581250Y-98712500D02*
X79681250Y-98712500D01*
X79681250Y-98912500D02*
X77481250Y-98912500D01*
X77481250Y-99112500D02*
X79681250Y-99112500D01*
D13*
X124555250Y-69405500D02*
X124555250Y-67119500D01*
X121507250Y-69405500D02*
X124555250Y-69405500D01*
X121507250Y-67119500D02*
X121507250Y-69405500D01*
X124555250Y-67119500D02*
X121507250Y-67119500D01*
D12*
X121731250Y-69362500D02*
X121731250Y-67262500D01*
X121731250Y-67162500D02*
X121731250Y-67262500D01*
X121731250Y-67262500D02*
X121731250Y-67162500D01*
X121931250Y-67162500D02*
X121931250Y-69362500D01*
X122131250Y-69362500D02*
X122131250Y-67162500D01*
D13*
X114744500Y-82486500D02*
X117030500Y-82486500D01*
X114744500Y-79438500D02*
X114744500Y-82486500D01*
X117030500Y-79438500D02*
X114744500Y-79438500D01*
X117030500Y-82486500D02*
X117030500Y-79438500D01*
D12*
X114787500Y-79662500D02*
X116887500Y-79662500D01*
X116987500Y-79662500D02*
X116887500Y-79662500D01*
X116887500Y-79662500D02*
X116987500Y-79662500D01*
X116987500Y-79862500D02*
X114787500Y-79862500D01*
X114787500Y-80062500D02*
X116987500Y-80062500D01*
D13*
X96488250Y-82486500D02*
X98774250Y-82486500D01*
X96488250Y-79438500D02*
X96488250Y-82486500D01*
X98774250Y-79438500D02*
X96488250Y-79438500D01*
X98774250Y-82486500D02*
X98774250Y-79438500D01*
D12*
X96531250Y-79662500D02*
X98631250Y-79662500D01*
X98731250Y-79662500D02*
X98631250Y-79662500D01*
X98631250Y-79662500D02*
X98731250Y-79662500D01*
X98731250Y-79862500D02*
X96531250Y-79862500D01*
X96531250Y-80062500D02*
X98731250Y-80062500D01*
D13*
X77438250Y-82486500D02*
X79724250Y-82486500D01*
X77438250Y-79438500D02*
X77438250Y-82486500D01*
X79724250Y-79438500D02*
X77438250Y-79438500D01*
X79724250Y-82486500D02*
X79724250Y-79438500D01*
D12*
X77481250Y-79662500D02*
X79581250Y-79662500D01*
X79681250Y-79662500D02*
X79581250Y-79662500D01*
X79581250Y-79662500D02*
X79681250Y-79662500D01*
X79681250Y-79862500D02*
X77481250Y-79862500D01*
X77481250Y-80062500D02*
X79681250Y-80062500D01*
D13*
X117189250Y-67532250D02*
X114903250Y-67532250D01*
X117189250Y-70580250D02*
X117189250Y-67532250D01*
X114903250Y-70580250D02*
X117189250Y-70580250D01*
X114903250Y-67532250D02*
X114903250Y-70580250D01*
D12*
X117146250Y-70356250D02*
X115046250Y-70356250D01*
X114946250Y-70356250D02*
X115046250Y-70356250D01*
X115046250Y-70356250D02*
X114946250Y-70356250D01*
X114946250Y-70156250D02*
X117146250Y-70156250D01*
X117146250Y-69956250D02*
X114946250Y-69956250D01*
D13*
X99568000Y-67532250D02*
X97282000Y-67532250D01*
X99568000Y-70580250D02*
X99568000Y-67532250D01*
X97282000Y-70580250D02*
X99568000Y-70580250D01*
X97282000Y-67532250D02*
X97282000Y-70580250D01*
D12*
X99525000Y-70356250D02*
X97425000Y-70356250D01*
X97325000Y-70356250D02*
X97425000Y-70356250D01*
X97425000Y-70356250D02*
X97325000Y-70356250D01*
X97325000Y-70156250D02*
X99525000Y-70156250D01*
X99525000Y-69956250D02*
X97325000Y-69956250D01*
D13*
X80518000Y-67532250D02*
X78232000Y-67532250D01*
X80518000Y-70580250D02*
X80518000Y-67532250D01*
X78232000Y-70580250D02*
X80518000Y-70580250D01*
X78232000Y-67532250D02*
X78232000Y-70580250D01*
D12*
X80475000Y-70356250D02*
X78375000Y-70356250D01*
X78275000Y-70356250D02*
X78375000Y-70356250D01*
X78375000Y-70356250D02*
X78275000Y-70356250D01*
X78275000Y-70156250D02*
X80475000Y-70156250D01*
X80475000Y-69956250D02*
X78275000Y-69956250D01*
D13*
X124555250Y-58293000D02*
X124555250Y-56007000D01*
X121507250Y-58293000D02*
X124555250Y-58293000D01*
X121507250Y-56007000D02*
X121507250Y-58293000D01*
X124555250Y-56007000D02*
X121507250Y-56007000D01*
D12*
X121731250Y-58250000D02*
X121731250Y-56150000D01*
X121731250Y-56050000D02*
X121731250Y-56150000D01*
X121731250Y-56150000D02*
X121731250Y-56050000D01*
X121931250Y-56050000D02*
X121931250Y-58250000D01*
X122131250Y-58250000D02*
X122131250Y-56050000D01*
D13*
X117030500Y-51657250D02*
X114744500Y-51657250D01*
X117030500Y-54705250D02*
X117030500Y-51657250D01*
X114744500Y-54705250D02*
X117030500Y-54705250D01*
X114744500Y-51657250D02*
X114744500Y-54705250D01*
D12*
X116987500Y-54481250D02*
X114887500Y-54481250D01*
X114787500Y-54481250D02*
X114887500Y-54481250D01*
X114887500Y-54481250D02*
X114787500Y-54481250D01*
X114787500Y-54281250D02*
X116987500Y-54281250D01*
X116987500Y-54081250D02*
X114787500Y-54081250D01*
D13*
X98774250Y-51657250D02*
X96488250Y-51657250D01*
X98774250Y-54705250D02*
X98774250Y-51657250D01*
X96488250Y-54705250D02*
X98774250Y-54705250D01*
X96488250Y-51657250D02*
X96488250Y-54705250D01*
D12*
X98731250Y-54481250D02*
X96631250Y-54481250D01*
X96531250Y-54481250D02*
X96631250Y-54481250D01*
X96631250Y-54481250D02*
X96531250Y-54481250D01*
X96531250Y-54281250D02*
X98731250Y-54281250D01*
X98731250Y-54081250D02*
X96531250Y-54081250D01*
D13*
X79724250Y-51657250D02*
X77438250Y-51657250D01*
X79724250Y-54705250D02*
X79724250Y-51657250D01*
X77438250Y-54705250D02*
X79724250Y-54705250D01*
X77438250Y-51657250D02*
X77438250Y-54705250D01*
D12*
X79681250Y-54481250D02*
X77581250Y-54481250D01*
X77481250Y-54481250D02*
X77581250Y-54481250D01*
X77581250Y-54481250D02*
X77481250Y-54481250D01*
X77481250Y-54281250D02*
X79681250Y-54281250D01*
X79681250Y-54081250D02*
X77481250Y-54081250D01*
D14*
X43656250Y-41116250D02*
X41116250Y-41116250D01*
X58896250Y-38576250D02*
X41116250Y-38576250D01*
X41116250Y-38576250D02*
X41116250Y-71596250D01*
X41116250Y-71596250D02*
X58896250Y-71596250D01*
X58896250Y-71596250D02*
X58896250Y-38576250D01*
D12*
G36*
X55850885Y-47005280D02*
G01*
X55850885Y-47105280D01*
X56350885Y-47105280D01*
X56350885Y-47005280D01*
X55850885Y-47005280D01*
G37*
X55850885Y-47005280D02*
X55850885Y-47105280D01*
X56350885Y-47105280D01*
X56350885Y-47005280D01*
X55850885Y-47005280D01*
G36*
X55850885Y-47005280D02*
G01*
X55850885Y-47305280D01*
X55950885Y-47305280D01*
X55950885Y-47005280D01*
X55850885Y-47005280D01*
G37*
X55850885Y-47005280D02*
X55850885Y-47305280D01*
X55950885Y-47305280D01*
X55950885Y-47005280D01*
X55850885Y-47005280D01*
G36*
X55850885Y-47605280D02*
G01*
X55850885Y-47805280D01*
X55950885Y-47805280D01*
X55950885Y-47605280D01*
X55850885Y-47605280D01*
G37*
X55850885Y-47605280D02*
X55850885Y-47805280D01*
X55950885Y-47805280D01*
X55950885Y-47605280D01*
X55850885Y-47605280D01*
G36*
X56250885Y-47005280D02*
G01*
X56250885Y-47805280D01*
X56350885Y-47805280D01*
X56350885Y-47005280D01*
X56250885Y-47005280D01*
G37*
X56250885Y-47005280D02*
X56250885Y-47805280D01*
X56350885Y-47805280D01*
X56350885Y-47005280D01*
X56250885Y-47005280D01*
G36*
X56050885Y-47405280D02*
G01*
X56050885Y-47505280D01*
X56150885Y-47505280D01*
X56150885Y-47405280D01*
X56050885Y-47405280D01*
G37*
X56050885Y-47405280D02*
X56050885Y-47505280D01*
X56150885Y-47505280D01*
X56150885Y-47405280D01*
X56050885Y-47405280D01*
D14*
X43656250Y-41116250D02*
X43656250Y-43656250D01*
X43656250Y-43656250D02*
X41116250Y-43656250D01*
D12*
X133095833Y-64183630D02*
X133429166Y-63707440D01*
X133667261Y-64183630D02*
X133667261Y-63183630D01*
X133286309Y-63183630D01*
X133191071Y-63231250D01*
X133143452Y-63278869D01*
X133095833Y-63374107D01*
X133095833Y-63516964D01*
X133143452Y-63612202D01*
X133191071Y-63659821D01*
X133286309Y-63707440D01*
X133667261Y-63707440D01*
X132667261Y-63659821D02*
X132333928Y-63659821D01*
X132191071Y-64183630D02*
X132667261Y-64183630D01*
X132667261Y-63183630D01*
X132191071Y-63183630D01*
X131429166Y-63659821D02*
X131762500Y-63659821D01*
X131762500Y-64183630D02*
X131762500Y-63183630D01*
X131286309Y-63183630D01*
X130762500Y-63183630D02*
X130762500Y-63421726D01*
X131000595Y-63326488D02*
X130762500Y-63421726D01*
X130524404Y-63326488D01*
X130905357Y-63612202D02*
X130762500Y-63421726D01*
X130619642Y-63612202D01*
X130000595Y-63183630D02*
X130000595Y-63421726D01*
X130238690Y-63326488D02*
X130000595Y-63421726D01*
X129762500Y-63326488D01*
X130143452Y-63612202D02*
X130000595Y-63421726D01*
X129857738Y-63612202D01*
D13*
X65350571Y-118049523D02*
X65350571Y-116779523D01*
X64987714Y-116779523D01*
X64770000Y-116840000D01*
X64624857Y-116960952D01*
X64552285Y-117081904D01*
X64479714Y-117323809D01*
X64479714Y-117505238D01*
X64552285Y-117747142D01*
X64624857Y-117868095D01*
X64770000Y-117989047D01*
X64987714Y-118049523D01*
X65350571Y-118049523D01*
X63028285Y-118049523D02*
X63899142Y-118049523D01*
X63463714Y-118049523D02*
X63463714Y-116779523D01*
X63608857Y-116960952D01*
X63754000Y-117081904D01*
X63899142Y-117142380D01*
X62302571Y-118049523D02*
X62012285Y-118049523D01*
X61867142Y-117989047D01*
X61794571Y-117928571D01*
X61649428Y-117747142D01*
X61576857Y-117505238D01*
X61576857Y-117021428D01*
X61649428Y-116900476D01*
X61722000Y-116840000D01*
X61867142Y-116779523D01*
X62157428Y-116779523D01*
X62302571Y-116840000D01*
X62375142Y-116900476D01*
X62447714Y-117021428D01*
X62447714Y-117323809D01*
X62375142Y-117444761D01*
X62302571Y-117505238D01*
X62157428Y-117565714D01*
X61867142Y-117565714D01*
X61722000Y-117505238D01*
X61649428Y-117444761D01*
X61576857Y-117323809D01*
X113769321Y-117255773D02*
X113769321Y-115985773D01*
X113406464Y-115985773D01*
X113188750Y-116046250D01*
X113043607Y-116167202D01*
X112971035Y-116288154D01*
X112898464Y-116530059D01*
X112898464Y-116711488D01*
X112971035Y-116953392D01*
X113043607Y-117074345D01*
X113188750Y-117195297D01*
X113406464Y-117255773D01*
X113769321Y-117255773D01*
X111447035Y-117255773D02*
X112317892Y-117255773D01*
X111882464Y-117255773D02*
X111882464Y-115985773D01*
X112027607Y-116167202D01*
X112172750Y-116288154D01*
X112317892Y-116348630D01*
X110576178Y-116530059D02*
X110721321Y-116469583D01*
X110793892Y-116409107D01*
X110866464Y-116288154D01*
X110866464Y-116227678D01*
X110793892Y-116106726D01*
X110721321Y-116046250D01*
X110576178Y-115985773D01*
X110285892Y-115985773D01*
X110140750Y-116046250D01*
X110068178Y-116106726D01*
X109995607Y-116227678D01*
X109995607Y-116288154D01*
X110068178Y-116409107D01*
X110140750Y-116469583D01*
X110285892Y-116530059D01*
X110576178Y-116530059D01*
X110721321Y-116590535D01*
X110793892Y-116651011D01*
X110866464Y-116771964D01*
X110866464Y-117013869D01*
X110793892Y-117134821D01*
X110721321Y-117195297D01*
X110576178Y-117255773D01*
X110285892Y-117255773D01*
X110140750Y-117195297D01*
X110068178Y-117134821D01*
X109995607Y-117013869D01*
X109995607Y-116771964D01*
X110068178Y-116651011D01*
X110140750Y-116590535D01*
X110285892Y-116530059D01*
X95513071Y-118049523D02*
X95513071Y-116779523D01*
X95150214Y-116779523D01*
X94932500Y-116840000D01*
X94787357Y-116960952D01*
X94714785Y-117081904D01*
X94642214Y-117323809D01*
X94642214Y-117505238D01*
X94714785Y-117747142D01*
X94787357Y-117868095D01*
X94932500Y-117989047D01*
X95150214Y-118049523D01*
X95513071Y-118049523D01*
X93190785Y-118049523D02*
X94061642Y-118049523D01*
X93626214Y-118049523D02*
X93626214Y-116779523D01*
X93771357Y-116960952D01*
X93916500Y-117081904D01*
X94061642Y-117142380D01*
X92682785Y-116779523D02*
X91666785Y-116779523D01*
X92319928Y-118049523D01*
X76463071Y-118049523D02*
X76463071Y-116779523D01*
X76100214Y-116779523D01*
X75882500Y-116840000D01*
X75737357Y-116960952D01*
X75664785Y-117081904D01*
X75592214Y-117323809D01*
X75592214Y-117505238D01*
X75664785Y-117747142D01*
X75737357Y-117868095D01*
X75882500Y-117989047D01*
X76100214Y-118049523D01*
X76463071Y-118049523D01*
X74140785Y-118049523D02*
X75011642Y-118049523D01*
X74576214Y-118049523D02*
X74576214Y-116779523D01*
X74721357Y-116960952D01*
X74866500Y-117081904D01*
X75011642Y-117142380D01*
X72834500Y-116779523D02*
X73124785Y-116779523D01*
X73269928Y-116840000D01*
X73342500Y-116900476D01*
X73487642Y-117081904D01*
X73560214Y-117323809D01*
X73560214Y-117807619D01*
X73487642Y-117928571D01*
X73415071Y-117989047D01*
X73269928Y-118049523D01*
X72979642Y-118049523D01*
X72834500Y-117989047D01*
X72761928Y-117928571D01*
X72689357Y-117807619D01*
X72689357Y-117505238D01*
X72761928Y-117384285D01*
X72834500Y-117323809D01*
X72979642Y-117263333D01*
X73269928Y-117263333D01*
X73415071Y-117323809D01*
X73487642Y-117384285D01*
X73560214Y-117505238D01*
X124881821Y-94237023D02*
X124881821Y-92967023D01*
X124518964Y-92967023D01*
X124301250Y-93027500D01*
X124156107Y-93148452D01*
X124083535Y-93269404D01*
X124010964Y-93511309D01*
X124010964Y-93692738D01*
X124083535Y-93934642D01*
X124156107Y-94055595D01*
X124301250Y-94176547D01*
X124518964Y-94237023D01*
X124881821Y-94237023D01*
X122559535Y-94237023D02*
X123430392Y-94237023D01*
X122994964Y-94237023D02*
X122994964Y-92967023D01*
X123140107Y-93148452D01*
X123285250Y-93269404D01*
X123430392Y-93329880D01*
X121180678Y-92967023D02*
X121906392Y-92967023D01*
X121978964Y-93571785D01*
X121906392Y-93511309D01*
X121761250Y-93450833D01*
X121398392Y-93450833D01*
X121253250Y-93511309D01*
X121180678Y-93571785D01*
X121108107Y-93692738D01*
X121108107Y-93995119D01*
X121180678Y-94116071D01*
X121253250Y-94176547D01*
X121398392Y-94237023D01*
X121761250Y-94237023D01*
X121906392Y-94176547D01*
X121978964Y-94116071D01*
X113769321Y-98205773D02*
X113769321Y-96935773D01*
X113406464Y-96935773D01*
X113188750Y-96996250D01*
X113043607Y-97117202D01*
X112971035Y-97238154D01*
X112898464Y-97480059D01*
X112898464Y-97661488D01*
X112971035Y-97903392D01*
X113043607Y-98024345D01*
X113188750Y-98145297D01*
X113406464Y-98205773D01*
X113769321Y-98205773D01*
X111447035Y-98205773D02*
X112317892Y-98205773D01*
X111882464Y-98205773D02*
X111882464Y-96935773D01*
X112027607Y-97117202D01*
X112172750Y-97238154D01*
X112317892Y-97298630D01*
X110140750Y-97359107D02*
X110140750Y-98205773D01*
X110503607Y-96875297D02*
X110866464Y-97782440D01*
X109923035Y-97782440D01*
X95513071Y-98999523D02*
X95513071Y-97729523D01*
X95150214Y-97729523D01*
X94932500Y-97790000D01*
X94787357Y-97910952D01*
X94714785Y-98031904D01*
X94642214Y-98273809D01*
X94642214Y-98455238D01*
X94714785Y-98697142D01*
X94787357Y-98818095D01*
X94932500Y-98939047D01*
X95150214Y-98999523D01*
X95513071Y-98999523D01*
X93190785Y-98999523D02*
X94061642Y-98999523D01*
X93626214Y-98999523D02*
X93626214Y-97729523D01*
X93771357Y-97910952D01*
X93916500Y-98031904D01*
X94061642Y-98092380D01*
X92682785Y-97729523D02*
X91739357Y-97729523D01*
X92247357Y-98213333D01*
X92029642Y-98213333D01*
X91884500Y-98273809D01*
X91811928Y-98334285D01*
X91739357Y-98455238D01*
X91739357Y-98757619D01*
X91811928Y-98878571D01*
X91884500Y-98939047D01*
X92029642Y-98999523D01*
X92465071Y-98999523D01*
X92610214Y-98939047D01*
X92682785Y-98878571D01*
X76463071Y-98999523D02*
X76463071Y-97729523D01*
X76100214Y-97729523D01*
X75882500Y-97790000D01*
X75737357Y-97910952D01*
X75664785Y-98031904D01*
X75592214Y-98273809D01*
X75592214Y-98455238D01*
X75664785Y-98697142D01*
X75737357Y-98818095D01*
X75882500Y-98939047D01*
X76100214Y-98999523D01*
X76463071Y-98999523D01*
X74140785Y-98999523D02*
X75011642Y-98999523D01*
X74576214Y-98999523D02*
X74576214Y-97729523D01*
X74721357Y-97910952D01*
X74866500Y-98031904D01*
X75011642Y-98092380D01*
X73560214Y-97850476D02*
X73487642Y-97790000D01*
X73342500Y-97729523D01*
X72979642Y-97729523D01*
X72834500Y-97790000D01*
X72761928Y-97850476D01*
X72689357Y-97971428D01*
X72689357Y-98092380D01*
X72761928Y-98273809D01*
X73632785Y-98999523D01*
X72689357Y-98999523D01*
X124156107Y-66455773D02*
X124156107Y-65185773D01*
X123793250Y-65185773D01*
X123575535Y-65246250D01*
X123430392Y-65367202D01*
X123357821Y-65488154D01*
X123285250Y-65730059D01*
X123285250Y-65911488D01*
X123357821Y-66153392D01*
X123430392Y-66274345D01*
X123575535Y-66395297D01*
X123793250Y-66455773D01*
X124156107Y-66455773D01*
X122414392Y-65730059D02*
X122559535Y-65669583D01*
X122632107Y-65609107D01*
X122704678Y-65488154D01*
X122704678Y-65427678D01*
X122632107Y-65306726D01*
X122559535Y-65246250D01*
X122414392Y-65185773D01*
X122124107Y-65185773D01*
X121978964Y-65246250D01*
X121906392Y-65306726D01*
X121833821Y-65427678D01*
X121833821Y-65488154D01*
X121906392Y-65609107D01*
X121978964Y-65669583D01*
X122124107Y-65730059D01*
X122414392Y-65730059D01*
X122559535Y-65790535D01*
X122632107Y-65851011D01*
X122704678Y-65971964D01*
X122704678Y-66213869D01*
X122632107Y-66334821D01*
X122559535Y-66395297D01*
X122414392Y-66455773D01*
X122124107Y-66455773D01*
X121978964Y-66395297D01*
X121906392Y-66334821D01*
X121833821Y-66213869D01*
X121833821Y-65971964D01*
X121906392Y-65851011D01*
X121978964Y-65790535D01*
X122124107Y-65730059D01*
X113769321Y-79155773D02*
X113769321Y-77885773D01*
X113406464Y-77885773D01*
X113188750Y-77946250D01*
X113043607Y-78067202D01*
X112971035Y-78188154D01*
X112898464Y-78430059D01*
X112898464Y-78611488D01*
X112971035Y-78853392D01*
X113043607Y-78974345D01*
X113188750Y-79095297D01*
X113406464Y-79155773D01*
X113769321Y-79155773D01*
X111447035Y-79155773D02*
X112317892Y-79155773D01*
X111882464Y-79155773D02*
X111882464Y-77885773D01*
X112027607Y-78067202D01*
X112172750Y-78188154D01*
X112317892Y-78248630D01*
X109995607Y-79155773D02*
X110866464Y-79155773D01*
X110431035Y-79155773D02*
X110431035Y-77885773D01*
X110576178Y-78067202D01*
X110721321Y-78188154D01*
X110866464Y-78248630D01*
X95513071Y-79949523D02*
X95513071Y-78679523D01*
X95150214Y-78679523D01*
X94932500Y-78740000D01*
X94787357Y-78860952D01*
X94714785Y-78981904D01*
X94642214Y-79223809D01*
X94642214Y-79405238D01*
X94714785Y-79647142D01*
X94787357Y-79768095D01*
X94932500Y-79889047D01*
X95150214Y-79949523D01*
X95513071Y-79949523D01*
X93190785Y-79949523D02*
X94061642Y-79949523D01*
X93626214Y-79949523D02*
X93626214Y-78679523D01*
X93771357Y-78860952D01*
X93916500Y-78981904D01*
X94061642Y-79042380D01*
X92247357Y-78679523D02*
X92102214Y-78679523D01*
X91957071Y-78740000D01*
X91884500Y-78800476D01*
X91811928Y-78921428D01*
X91739357Y-79163333D01*
X91739357Y-79465714D01*
X91811928Y-79707619D01*
X91884500Y-79828571D01*
X91957071Y-79889047D01*
X92102214Y-79949523D01*
X92247357Y-79949523D01*
X92392500Y-79889047D01*
X92465071Y-79828571D01*
X92537642Y-79707619D01*
X92610214Y-79465714D01*
X92610214Y-79163333D01*
X92537642Y-78921428D01*
X92465071Y-78800476D01*
X92392500Y-78740000D01*
X92247357Y-78679523D01*
X76531107Y-80743273D02*
X76531107Y-79473273D01*
X76168250Y-79473273D01*
X75950535Y-79533750D01*
X75805392Y-79654702D01*
X75732821Y-79775654D01*
X75660250Y-80017559D01*
X75660250Y-80198988D01*
X75732821Y-80440892D01*
X75805392Y-80561845D01*
X75950535Y-80682797D01*
X76168250Y-80743273D01*
X76531107Y-80743273D01*
X74934535Y-80743273D02*
X74644250Y-80743273D01*
X74499107Y-80682797D01*
X74426535Y-80622321D01*
X74281392Y-80440892D01*
X74208821Y-80198988D01*
X74208821Y-79715178D01*
X74281392Y-79594226D01*
X74353964Y-79533750D01*
X74499107Y-79473273D01*
X74789392Y-79473273D01*
X74934535Y-79533750D01*
X75007107Y-79594226D01*
X75079678Y-79715178D01*
X75079678Y-80017559D01*
X75007107Y-80138511D01*
X74934535Y-80198988D01*
X74789392Y-80259464D01*
X74499107Y-80259464D01*
X74353964Y-80198988D01*
X74281392Y-80138511D01*
X74208821Y-80017559D01*
X113837357Y-70424523D02*
X113837357Y-69154523D01*
X113474500Y-69154523D01*
X113256785Y-69215000D01*
X113111642Y-69335952D01*
X113039071Y-69456904D01*
X112966500Y-69698809D01*
X112966500Y-69880238D01*
X113039071Y-70122142D01*
X113111642Y-70243095D01*
X113256785Y-70364047D01*
X113474500Y-70424523D01*
X113837357Y-70424523D01*
X112458500Y-69154523D02*
X111442500Y-69154523D01*
X112095642Y-70424523D01*
X96374857Y-69630773D02*
X96374857Y-68360773D01*
X96012000Y-68360773D01*
X95794285Y-68421250D01*
X95649142Y-68542202D01*
X95576571Y-68663154D01*
X95504000Y-68905059D01*
X95504000Y-69086488D01*
X95576571Y-69328392D01*
X95649142Y-69449345D01*
X95794285Y-69570297D01*
X96012000Y-69630773D01*
X96374857Y-69630773D01*
X94197714Y-68360773D02*
X94488000Y-68360773D01*
X94633142Y-68421250D01*
X94705714Y-68481726D01*
X94850857Y-68663154D01*
X94923428Y-68905059D01*
X94923428Y-69388869D01*
X94850857Y-69509821D01*
X94778285Y-69570297D01*
X94633142Y-69630773D01*
X94342857Y-69630773D01*
X94197714Y-69570297D01*
X94125142Y-69509821D01*
X94052571Y-69388869D01*
X94052571Y-69086488D01*
X94125142Y-68965535D01*
X94197714Y-68905059D01*
X94342857Y-68844583D01*
X94633142Y-68844583D01*
X94778285Y-68905059D01*
X94850857Y-68965535D01*
X94923428Y-69086488D01*
X77324857Y-69630773D02*
X77324857Y-68360773D01*
X76962000Y-68360773D01*
X76744285Y-68421250D01*
X76599142Y-68542202D01*
X76526571Y-68663154D01*
X76454000Y-68905059D01*
X76454000Y-69086488D01*
X76526571Y-69328392D01*
X76599142Y-69449345D01*
X76744285Y-69570297D01*
X76962000Y-69630773D01*
X77324857Y-69630773D01*
X75075142Y-68360773D02*
X75800857Y-68360773D01*
X75873428Y-68965535D01*
X75800857Y-68905059D01*
X75655714Y-68844583D01*
X75292857Y-68844583D01*
X75147714Y-68905059D01*
X75075142Y-68965535D01*
X75002571Y-69086488D01*
X75002571Y-69388869D01*
X75075142Y-69509821D01*
X75147714Y-69570297D01*
X75292857Y-69630773D01*
X75655714Y-69630773D01*
X75800857Y-69570297D01*
X75873428Y-69509821D01*
X124156107Y-55343273D02*
X124156107Y-54073273D01*
X123793250Y-54073273D01*
X123575535Y-54133750D01*
X123430392Y-54254702D01*
X123357821Y-54375654D01*
X123285250Y-54617559D01*
X123285250Y-54798988D01*
X123357821Y-55040892D01*
X123430392Y-55161845D01*
X123575535Y-55282797D01*
X123793250Y-55343273D01*
X124156107Y-55343273D01*
X121978964Y-54496607D02*
X121978964Y-55343273D01*
X122341821Y-54012797D02*
X122704678Y-54919940D01*
X121761250Y-54919940D01*
X113837357Y-53755773D02*
X113837357Y-52485773D01*
X113474500Y-52485773D01*
X113256785Y-52546250D01*
X113111642Y-52667202D01*
X113039071Y-52788154D01*
X112966500Y-53030059D01*
X112966500Y-53211488D01*
X113039071Y-53453392D01*
X113111642Y-53574345D01*
X113256785Y-53695297D01*
X113474500Y-53755773D01*
X113837357Y-53755773D01*
X112458500Y-52485773D02*
X111515071Y-52485773D01*
X112023071Y-52969583D01*
X111805357Y-52969583D01*
X111660214Y-53030059D01*
X111587642Y-53090535D01*
X111515071Y-53211488D01*
X111515071Y-53513869D01*
X111587642Y-53634821D01*
X111660214Y-53695297D01*
X111805357Y-53755773D01*
X112240785Y-53755773D01*
X112385928Y-53695297D01*
X112458500Y-53634821D01*
X95581107Y-53755773D02*
X95581107Y-52485773D01*
X95218250Y-52485773D01*
X95000535Y-52546250D01*
X94855392Y-52667202D01*
X94782821Y-52788154D01*
X94710250Y-53030059D01*
X94710250Y-53211488D01*
X94782821Y-53453392D01*
X94855392Y-53574345D01*
X95000535Y-53695297D01*
X95218250Y-53755773D01*
X95581107Y-53755773D01*
X94129678Y-52606726D02*
X94057107Y-52546250D01*
X93911964Y-52485773D01*
X93549107Y-52485773D01*
X93403964Y-52546250D01*
X93331392Y-52606726D01*
X93258821Y-52727678D01*
X93258821Y-52848630D01*
X93331392Y-53030059D01*
X94202250Y-53755773D01*
X93258821Y-53755773D01*
X76531107Y-53755773D02*
X76531107Y-52485773D01*
X76168250Y-52485773D01*
X75950535Y-52546250D01*
X75805392Y-52667202D01*
X75732821Y-52788154D01*
X75660250Y-53030059D01*
X75660250Y-53211488D01*
X75732821Y-53453392D01*
X75805392Y-53574345D01*
X75950535Y-53695297D01*
X76168250Y-53755773D01*
X76531107Y-53755773D01*
X74208821Y-53755773D02*
X75079678Y-53755773D01*
X74644250Y-53755773D02*
X74644250Y-52485773D01*
X74789392Y-52667202D01*
X74934535Y-52788154D01*
X75079678Y-52848630D01*
D12*
X55579583Y-47770059D02*
X55465297Y-47808154D01*
X55274821Y-47808154D01*
X55198630Y-47770059D01*
X55160535Y-47731964D01*
X55122440Y-47655773D01*
X55122440Y-47579583D01*
X55160535Y-47503392D01*
X55198630Y-47465297D01*
X55274821Y-47427202D01*
X55427202Y-47389107D01*
X55503392Y-47351011D01*
X55541488Y-47312916D01*
X55579583Y-47236726D01*
X55579583Y-47160535D01*
X55541488Y-47084345D01*
X55503392Y-47046250D01*
X55427202Y-47008154D01*
X55236726Y-47008154D01*
X55122440Y-47046250D01*
X54893869Y-47008154D02*
X54436726Y-47008154D01*
X54665297Y-47808154D02*
X54665297Y-47008154D01*
X48624854Y-41948154D02*
X48167711Y-41948154D01*
X48396282Y-42748154D02*
X48396282Y-41948154D01*
X47977235Y-41948154D02*
X47443901Y-42748154D01*
X47443901Y-41948154D02*
X47977235Y-42748154D01*
X46986758Y-41948154D02*
X46910568Y-41948154D01*
X46834378Y-41986250D01*
X46796282Y-42024345D01*
X46758187Y-42100535D01*
X46720092Y-42252916D01*
X46720092Y-42443392D01*
X46758187Y-42595773D01*
X46796282Y-42671964D01*
X46834378Y-42710059D01*
X46910568Y-42748154D01*
X46986758Y-42748154D01*
X47062949Y-42710059D01*
X47101044Y-42671964D01*
X47139139Y-42595773D01*
X47177235Y-42443392D01*
X47177235Y-42252916D01*
X47139139Y-42100535D01*
X47101044Y-42024345D01*
X47062949Y-41986250D01*
X46986758Y-41948154D01*
X45805806Y-41910059D02*
X46491520Y-42938630D01*
X45539139Y-42748154D02*
X45539139Y-41948154D01*
X45348663Y-41948154D01*
X45234378Y-41986250D01*
X45158187Y-42062440D01*
X45120092Y-42138630D01*
X45081997Y-42291011D01*
X45081997Y-42405297D01*
X45120092Y-42557678D01*
X45158187Y-42633869D01*
X45234378Y-42710059D01*
X45348663Y-42748154D01*
X45539139Y-42748154D01*
X44815330Y-41948154D02*
X44320092Y-41948154D01*
X44586758Y-42252916D01*
X44472473Y-42252916D01*
X44396282Y-42291011D01*
X44358187Y-42329107D01*
X44320092Y-42405297D01*
X44320092Y-42595773D01*
X44358187Y-42671964D01*
X44396282Y-42710059D01*
X44472473Y-42748154D01*
X44701044Y-42748154D01*
X44777235Y-42710059D01*
X44815330Y-42671964D01*
X55791059Y-67729107D02*
X55676773Y-67767202D01*
X55638678Y-67805297D01*
X55600583Y-67881488D01*
X55600583Y-67995773D01*
X55638678Y-68071964D01*
X55676773Y-68110059D01*
X55752964Y-68148154D01*
X56057726Y-68148154D01*
X56057726Y-67348154D01*
X55791059Y-67348154D01*
X55714869Y-67386250D01*
X55676773Y-67424345D01*
X55638678Y-67500535D01*
X55638678Y-67576726D01*
X55676773Y-67652916D01*
X55714869Y-67691011D01*
X55791059Y-67729107D01*
X56057726Y-67729107D01*
X55295821Y-67424345D02*
X55257726Y-67386250D01*
X55181535Y-67348154D01*
X54991059Y-67348154D01*
X54914869Y-67386250D01*
X54876773Y-67424345D01*
X54838678Y-67500535D01*
X54838678Y-67576726D01*
X54876773Y-67691011D01*
X55333916Y-68148154D01*
X54838678Y-68148154D01*
X55733916Y-60109107D02*
X56000583Y-60109107D01*
X56000583Y-60528154D02*
X56000583Y-59728154D01*
X55619630Y-59728154D01*
X55391059Y-59728154D02*
X54857726Y-59728154D01*
X55200583Y-60528154D01*
X55733916Y-57569107D02*
X56000583Y-57569107D01*
X56000583Y-57988154D02*
X56000583Y-57188154D01*
X55619630Y-57188154D01*
X54972011Y-57188154D02*
X55124392Y-57188154D01*
X55200583Y-57226250D01*
X55238678Y-57264345D01*
X55314869Y-57378630D01*
X55352964Y-57531011D01*
X55352964Y-57835773D01*
X55314869Y-57911964D01*
X55276773Y-57950059D01*
X55200583Y-57988154D01*
X55048202Y-57988154D01*
X54972011Y-57950059D01*
X54933916Y-57911964D01*
X54895821Y-57835773D01*
X54895821Y-57645297D01*
X54933916Y-57569107D01*
X54972011Y-57531011D01*
X55048202Y-57492916D01*
X55200583Y-57492916D01*
X55276773Y-57531011D01*
X55314869Y-57569107D01*
X55352964Y-57645297D01*
X55733916Y-55029107D02*
X56000583Y-55029107D01*
X56000583Y-55448154D02*
X56000583Y-54648154D01*
X55619630Y-54648154D01*
X54933916Y-54648154D02*
X55314869Y-54648154D01*
X55352964Y-55029107D01*
X55314869Y-54991011D01*
X55238678Y-54952916D01*
X55048202Y-54952916D01*
X54972011Y-54991011D01*
X54933916Y-55029107D01*
X54895821Y-55105297D01*
X54895821Y-55295773D01*
X54933916Y-55371964D01*
X54972011Y-55410059D01*
X55048202Y-55448154D01*
X55238678Y-55448154D01*
X55314869Y-55410059D01*
X55352964Y-55371964D01*
X56019630Y-42748154D02*
X56286297Y-42367202D01*
X56476773Y-42748154D02*
X56476773Y-41948154D01*
X56172011Y-41948154D01*
X56095821Y-41986250D01*
X56057726Y-42024345D01*
X56019630Y-42100535D01*
X56019630Y-42214821D01*
X56057726Y-42291011D01*
X56095821Y-42329107D01*
X56172011Y-42367202D01*
X56476773Y-42367202D01*
X55714869Y-42519583D02*
X55333916Y-42519583D01*
X55791059Y-42748154D02*
X55524392Y-41948154D01*
X55257726Y-42748154D01*
X55067250Y-41948154D02*
X54876773Y-42748154D01*
X54724392Y-42176726D01*
X54572011Y-42748154D01*
X54381535Y-41948154D01*
X56076773Y-44526250D02*
X56152964Y-44488154D01*
X56267250Y-44488154D01*
X56381535Y-44526250D01*
X56457726Y-44602440D01*
X56495821Y-44678630D01*
X56533916Y-44831011D01*
X56533916Y-44945297D01*
X56495821Y-45097678D01*
X56457726Y-45173869D01*
X56381535Y-45250059D01*
X56267250Y-45288154D01*
X56191059Y-45288154D01*
X56076773Y-45250059D01*
X56038678Y-45211964D01*
X56038678Y-44945297D01*
X56191059Y-44945297D01*
X55695821Y-45288154D02*
X55695821Y-44488154D01*
X55238678Y-45288154D01*
X55238678Y-44488154D01*
X54857726Y-45288154D02*
X54857726Y-44488154D01*
X54667250Y-44488154D01*
X54552964Y-44526250D01*
X54476773Y-44602440D01*
X54438678Y-44678630D01*
X54400583Y-44831011D01*
X54400583Y-44945297D01*
X54438678Y-45097678D01*
X54476773Y-45173869D01*
X54552964Y-45250059D01*
X54667250Y-45288154D01*
X54857726Y-45288154D01*
X56533916Y-49568154D02*
X56267250Y-50368154D01*
X56000583Y-49568154D01*
X55276773Y-50291964D02*
X55314869Y-50330059D01*
X55429154Y-50368154D01*
X55505345Y-50368154D01*
X55619630Y-50330059D01*
X55695821Y-50253869D01*
X55733916Y-50177678D01*
X55772011Y-50025297D01*
X55772011Y-49911011D01*
X55733916Y-49758630D01*
X55695821Y-49682440D01*
X55619630Y-49606250D01*
X55505345Y-49568154D01*
X55429154Y-49568154D01*
X55314869Y-49606250D01*
X55276773Y-49644345D01*
X54476773Y-50291964D02*
X54514869Y-50330059D01*
X54629154Y-50368154D01*
X54705345Y-50368154D01*
X54819630Y-50330059D01*
X54895821Y-50253869D01*
X54933916Y-50177678D01*
X54972011Y-50025297D01*
X54972011Y-49911011D01*
X54933916Y-49758630D01*
X54895821Y-49682440D01*
X54819630Y-49606250D01*
X54705345Y-49568154D01*
X54629154Y-49568154D01*
X54514869Y-49606250D01*
X54476773Y-49644345D01*
X55733916Y-52489107D02*
X56000583Y-52489107D01*
X56000583Y-52908154D02*
X56000583Y-52108154D01*
X55619630Y-52108154D01*
X54972011Y-52374821D02*
X54972011Y-52908154D01*
X55162488Y-52070059D02*
X55352964Y-52641488D01*
X54857726Y-52641488D01*
X55791059Y-62649107D02*
X55676773Y-62687202D01*
X55638678Y-62725297D01*
X55600583Y-62801488D01*
X55600583Y-62915773D01*
X55638678Y-62991964D01*
X55676773Y-63030059D01*
X55752964Y-63068154D01*
X56057726Y-63068154D01*
X56057726Y-62268154D01*
X55791059Y-62268154D01*
X55714869Y-62306250D01*
X55676773Y-62344345D01*
X55638678Y-62420535D01*
X55638678Y-62496726D01*
X55676773Y-62572916D01*
X55714869Y-62611011D01*
X55791059Y-62649107D01*
X56057726Y-62649107D01*
X54838678Y-63068154D02*
X55295821Y-63068154D01*
X55067250Y-63068154D02*
X55067250Y-62268154D01*
X55143440Y-62382440D01*
X55219630Y-62458630D01*
X55295821Y-62496726D01*
X55791059Y-65189107D02*
X55676773Y-65227202D01*
X55638678Y-65265297D01*
X55600583Y-65341488D01*
X55600583Y-65455773D01*
X55638678Y-65531964D01*
X55676773Y-65570059D01*
X55752964Y-65608154D01*
X56057726Y-65608154D01*
X56057726Y-64808154D01*
X55791059Y-64808154D01*
X55714869Y-64846250D01*
X55676773Y-64884345D01*
X55638678Y-64960535D01*
X55638678Y-65036726D01*
X55676773Y-65112916D01*
X55714869Y-65151011D01*
X55791059Y-65189107D01*
X56057726Y-65189107D01*
X55333916Y-64808154D02*
X54838678Y-64808154D01*
X55105345Y-65112916D01*
X54991059Y-65112916D01*
X54914869Y-65151011D01*
X54876773Y-65189107D01*
X54838678Y-65265297D01*
X54838678Y-65455773D01*
X54876773Y-65531964D01*
X54914869Y-65570059D01*
X54991059Y-65608154D01*
X55219630Y-65608154D01*
X55295821Y-65570059D01*
X55333916Y-65531964D01*
X55791059Y-70269107D02*
X55676773Y-70307202D01*
X55638678Y-70345297D01*
X55600583Y-70421488D01*
X55600583Y-70535773D01*
X55638678Y-70611964D01*
X55676773Y-70650059D01*
X55752964Y-70688154D01*
X56057726Y-70688154D01*
X56057726Y-69888154D01*
X55791059Y-69888154D01*
X55714869Y-69926250D01*
X55676773Y-69964345D01*
X55638678Y-70040535D01*
X55638678Y-70116726D01*
X55676773Y-70192916D01*
X55714869Y-70231011D01*
X55791059Y-70269107D01*
X56057726Y-70269107D01*
X54914869Y-69888154D02*
X55067250Y-69888154D01*
X55143440Y-69926250D01*
X55181535Y-69964345D01*
X55257726Y-70078630D01*
X55295821Y-70231011D01*
X55295821Y-70535773D01*
X55257726Y-70611964D01*
X55219630Y-70650059D01*
X55143440Y-70688154D01*
X54991059Y-70688154D01*
X54914869Y-70650059D01*
X54876773Y-70611964D01*
X54838678Y-70535773D01*
X54838678Y-70345297D01*
X54876773Y-70269107D01*
X54914869Y-70231011D01*
X54991059Y-70192916D01*
X55143440Y-70192916D01*
X55219630Y-70231011D01*
X55257726Y-70269107D01*
X55295821Y-70345297D01*
X44869059Y-70269107D02*
X44754773Y-70307202D01*
X44716678Y-70345297D01*
X44678583Y-70421488D01*
X44678583Y-70535773D01*
X44716678Y-70611964D01*
X44754773Y-70650059D01*
X44830964Y-70688154D01*
X45135726Y-70688154D01*
X45135726Y-69888154D01*
X44869059Y-69888154D01*
X44792869Y-69926250D01*
X44754773Y-69964345D01*
X44716678Y-70040535D01*
X44716678Y-70116726D01*
X44754773Y-70192916D01*
X44792869Y-70231011D01*
X44869059Y-70269107D01*
X45135726Y-70269107D01*
X43954773Y-69888154D02*
X44335726Y-69888154D01*
X44373821Y-70269107D01*
X44335726Y-70231011D01*
X44259535Y-70192916D01*
X44069059Y-70192916D01*
X43992869Y-70231011D01*
X43954773Y-70269107D01*
X43916678Y-70345297D01*
X43916678Y-70535773D01*
X43954773Y-70611964D01*
X43992869Y-70650059D01*
X44069059Y-70688154D01*
X44259535Y-70688154D01*
X44335726Y-70650059D01*
X44373821Y-70611964D01*
X44869059Y-67729107D02*
X44754773Y-67767202D01*
X44716678Y-67805297D01*
X44678583Y-67881488D01*
X44678583Y-67995773D01*
X44716678Y-68071964D01*
X44754773Y-68110059D01*
X44830964Y-68148154D01*
X45135726Y-68148154D01*
X45135726Y-67348154D01*
X44869059Y-67348154D01*
X44792869Y-67386250D01*
X44754773Y-67424345D01*
X44716678Y-67500535D01*
X44716678Y-67576726D01*
X44754773Y-67652916D01*
X44792869Y-67691011D01*
X44869059Y-67729107D01*
X45135726Y-67729107D01*
X43992869Y-67614821D02*
X43992869Y-68148154D01*
X44183345Y-67310059D02*
X44373821Y-67881488D01*
X43878583Y-67881488D01*
X45097630Y-65189107D02*
X44830964Y-65189107D01*
X44716678Y-65608154D02*
X45097630Y-65608154D01*
X45097630Y-64808154D01*
X44716678Y-64808154D01*
X44030964Y-64808154D02*
X44183345Y-64808154D01*
X44259535Y-64846250D01*
X44297630Y-64884345D01*
X44373821Y-64998630D01*
X44411916Y-65151011D01*
X44411916Y-65455773D01*
X44373821Y-65531964D01*
X44335726Y-65570059D01*
X44259535Y-65608154D01*
X44107154Y-65608154D01*
X44030964Y-65570059D01*
X43992869Y-65531964D01*
X43954773Y-65455773D01*
X43954773Y-65265297D01*
X43992869Y-65189107D01*
X44030964Y-65151011D01*
X44107154Y-65112916D01*
X44259535Y-65112916D01*
X44335726Y-65151011D01*
X44373821Y-65189107D01*
X44411916Y-65265297D01*
X45135726Y-63068154D02*
X45135726Y-62268154D01*
X44945250Y-62268154D01*
X44830964Y-62306250D01*
X44754773Y-62382440D01*
X44716678Y-62458630D01*
X44678583Y-62611011D01*
X44678583Y-62725297D01*
X44716678Y-62877678D01*
X44754773Y-62953869D01*
X44830964Y-63030059D01*
X44945250Y-63068154D01*
X45135726Y-63068154D01*
X44411916Y-62268154D02*
X43878583Y-62268154D01*
X44221440Y-63068154D01*
X44678583Y-60451964D02*
X44716678Y-60490059D01*
X44830964Y-60528154D01*
X44907154Y-60528154D01*
X45021440Y-60490059D01*
X45097630Y-60413869D01*
X45135726Y-60337678D01*
X45173821Y-60185297D01*
X45173821Y-60071011D01*
X45135726Y-59918630D01*
X45097630Y-59842440D01*
X45021440Y-59766250D01*
X44907154Y-59728154D01*
X44830964Y-59728154D01*
X44716678Y-59766250D01*
X44678583Y-59804345D01*
X43992869Y-59728154D02*
X44145250Y-59728154D01*
X44221440Y-59766250D01*
X44259535Y-59804345D01*
X44335726Y-59918630D01*
X44373821Y-60071011D01*
X44373821Y-60375773D01*
X44335726Y-60451964D01*
X44297630Y-60490059D01*
X44221440Y-60528154D01*
X44069059Y-60528154D01*
X43992869Y-60490059D01*
X43954773Y-60451964D01*
X43916678Y-60375773D01*
X43916678Y-60185297D01*
X43954773Y-60109107D01*
X43992869Y-60071011D01*
X44069059Y-60032916D01*
X44221440Y-60032916D01*
X44297630Y-60071011D01*
X44335726Y-60109107D01*
X44373821Y-60185297D01*
X45135726Y-57988154D02*
X45135726Y-57188154D01*
X44945250Y-57188154D01*
X44830964Y-57226250D01*
X44754773Y-57302440D01*
X44716678Y-57378630D01*
X44678583Y-57531011D01*
X44678583Y-57645297D01*
X44716678Y-57797678D01*
X44754773Y-57873869D01*
X44830964Y-57950059D01*
X44945250Y-57988154D01*
X45135726Y-57988154D01*
X43992869Y-57454821D02*
X43992869Y-57988154D01*
X44183345Y-57150059D02*
X44373821Y-57721488D01*
X43878583Y-57721488D01*
X45154773Y-47066250D02*
X45230964Y-47028154D01*
X45345250Y-47028154D01*
X45459535Y-47066250D01*
X45535726Y-47142440D01*
X45573821Y-47218630D01*
X45611916Y-47371011D01*
X45611916Y-47485297D01*
X45573821Y-47637678D01*
X45535726Y-47713869D01*
X45459535Y-47790059D01*
X45345250Y-47828154D01*
X45269059Y-47828154D01*
X45154773Y-47790059D01*
X45116678Y-47751964D01*
X45116678Y-47485297D01*
X45269059Y-47485297D01*
X44773821Y-47828154D02*
X44773821Y-47028154D01*
X44316678Y-47828154D01*
X44316678Y-47028154D01*
X43935726Y-47828154D02*
X43935726Y-47028154D01*
X43745250Y-47028154D01*
X43630964Y-47066250D01*
X43554773Y-47142440D01*
X43516678Y-47218630D01*
X43478583Y-47371011D01*
X43478583Y-47485297D01*
X43516678Y-47637678D01*
X43554773Y-47713869D01*
X43630964Y-47790059D01*
X43745250Y-47828154D01*
X43935726Y-47828154D01*
X45154773Y-49606250D02*
X45230964Y-49568154D01*
X45345250Y-49568154D01*
X45459535Y-49606250D01*
X45535726Y-49682440D01*
X45573821Y-49758630D01*
X45611916Y-49911011D01*
X45611916Y-50025297D01*
X45573821Y-50177678D01*
X45535726Y-50253869D01*
X45459535Y-50330059D01*
X45345250Y-50368154D01*
X45269059Y-50368154D01*
X45154773Y-50330059D01*
X45116678Y-50291964D01*
X45116678Y-50025297D01*
X45269059Y-50025297D01*
X44773821Y-50368154D02*
X44773821Y-49568154D01*
X44316678Y-50368154D01*
X44316678Y-49568154D01*
X43935726Y-50368154D02*
X43935726Y-49568154D01*
X43745250Y-49568154D01*
X43630964Y-49606250D01*
X43554773Y-49682440D01*
X43516678Y-49758630D01*
X43478583Y-49911011D01*
X43478583Y-50025297D01*
X43516678Y-50177678D01*
X43554773Y-50253869D01*
X43630964Y-50330059D01*
X43745250Y-50368154D01*
X43935726Y-50368154D01*
X45135726Y-52908154D02*
X45135726Y-52108154D01*
X44945250Y-52108154D01*
X44830964Y-52146250D01*
X44754773Y-52222440D01*
X44716678Y-52298630D01*
X44678583Y-52451011D01*
X44678583Y-52565297D01*
X44716678Y-52717678D01*
X44754773Y-52793869D01*
X44830964Y-52870059D01*
X44945250Y-52908154D01*
X45135726Y-52908154D01*
X43916678Y-52908154D02*
X44373821Y-52908154D01*
X44145250Y-52908154D02*
X44145250Y-52108154D01*
X44221440Y-52222440D01*
X44297630Y-52298630D01*
X44373821Y-52336726D01*
X45135726Y-55448154D02*
X45135726Y-54648154D01*
X44945250Y-54648154D01*
X44830964Y-54686250D01*
X44754773Y-54762440D01*
X44716678Y-54838630D01*
X44678583Y-54991011D01*
X44678583Y-55105297D01*
X44716678Y-55257678D01*
X44754773Y-55333869D01*
X44830964Y-55410059D01*
X44945250Y-55448154D01*
X45135726Y-55448154D01*
X44183345Y-54648154D02*
X44107154Y-54648154D01*
X44030964Y-54686250D01*
X43992869Y-54724345D01*
X43954773Y-54800535D01*
X43916678Y-54952916D01*
X43916678Y-55143392D01*
X43954773Y-55295773D01*
X43992869Y-55371964D01*
X44030964Y-55410059D01*
X44107154Y-55448154D01*
X44183345Y-55448154D01*
X44259535Y-55410059D01*
X44297630Y-55371964D01*
X44335726Y-55295773D01*
X44373821Y-55143392D01*
X44373821Y-54952916D01*
X44335726Y-54800535D01*
X44297630Y-54724345D01*
X44259535Y-54686250D01*
X44183345Y-54648154D01*
X45135726Y-45288154D02*
X45135726Y-44488154D01*
X44945250Y-44488154D01*
X44830964Y-44526250D01*
X44754773Y-44602440D01*
X44716678Y-44678630D01*
X44678583Y-44831011D01*
X44678583Y-44945297D01*
X44716678Y-45097678D01*
X44754773Y-45173869D01*
X44830964Y-45250059D01*
X44945250Y-45288154D01*
X45135726Y-45288154D01*
X44373821Y-44564345D02*
X44335726Y-44526250D01*
X44259535Y-44488154D01*
X44069059Y-44488154D01*
X43992869Y-44526250D01*
X43954773Y-44564345D01*
X43916678Y-44640535D01*
X43916678Y-44716726D01*
X43954773Y-44831011D01*
X44411916Y-45288154D01*
X43916678Y-45288154D01*
%LPC*%
D15*
X131762500Y-59531250D03*
X127793750Y-126206250D03*
X50800000Y-105568750D03*
D16*
X59531250Y-122872500D03*
D17*
X59531250Y-115252500D03*
X115093750Y-115252500D03*
D16*
X115093750Y-122872500D03*
D17*
X97631250Y-115252500D03*
D16*
X97631250Y-122872500D03*
D17*
X78581250Y-115252500D03*
D16*
X78581250Y-122872500D03*
D17*
X119221250Y-96043750D03*
D16*
X126841250Y-96043750D03*
D17*
X115887500Y-96202500D03*
D16*
X115887500Y-103822500D03*
D17*
X97631250Y-96202500D03*
D16*
X97631250Y-103822500D03*
D17*
X78581250Y-96202500D03*
D16*
X78581250Y-103822500D03*
D17*
X119221250Y-68262500D03*
D16*
X126841250Y-68262500D03*
D17*
X115887500Y-77152500D03*
D16*
X115887500Y-84772500D03*
D17*
X97631250Y-77152500D03*
D16*
X97631250Y-84772500D03*
D17*
X78581250Y-77152500D03*
D16*
X78581250Y-84772500D03*
D17*
X116046250Y-72866250D03*
D16*
X116046250Y-65246250D03*
D17*
X98425000Y-72866250D03*
D16*
X98425000Y-65246250D03*
D17*
X79375000Y-72866250D03*
D16*
X79375000Y-65246250D03*
D17*
X119221250Y-57150000D03*
D16*
X126841250Y-57150000D03*
D17*
X115887500Y-56991250D03*
D16*
X115887500Y-49371250D03*
D17*
X97631250Y-56991250D03*
D16*
X97631250Y-49371250D03*
D17*
X78581250Y-56991250D03*
D16*
X78581250Y-49371250D03*
D18*
X121416250Y-112573750D03*
D19*
X121706250Y-112593750D02*
X121126250Y-112553750D01*
D18*
X121126250Y-112553750D03*
X122936250Y-118248749D03*
D19*
X123666250Y-118903750D02*
X122206250Y-117593748D01*
D20*
X126206250Y-115093750D03*
D18*
X122206250Y-117593750D03*
D21*
X126206250Y-120173750D03*
X126206250Y-110013750D03*
D22*
X119221250Y-127031750D03*
X119221250Y-103155750D03*
D20*
X134461250Y-127031750D03*
X134461250Y-103155750D03*
D18*
X121416250Y-74473750D03*
D19*
X121706250Y-74493750D02*
X121126250Y-74453750D01*
D18*
X121126250Y-74453750D03*
X122936250Y-80148749D03*
D19*
X123666250Y-80803750D02*
X122206250Y-79493748D01*
D20*
X126206250Y-76993750D03*
D18*
X122206250Y-79493750D03*
D21*
X126206250Y-82073750D03*
X126206250Y-71913750D03*
D22*
X119221250Y-88931750D03*
X119221250Y-65055750D03*
D20*
X134461250Y-88931750D03*
X134461250Y-65055750D03*
D23*
X57854850Y-42386250D03*
X42614850Y-70326250D03*
X57397650Y-44926250D03*
X57854850Y-47466250D03*
X57397650Y-50006250D03*
X57854850Y-52546250D03*
X57397650Y-55086250D03*
X57854850Y-57626250D03*
X57397650Y-60166250D03*
X57854850Y-62706250D03*
X57397650Y-65246250D03*
X57854850Y-67786250D03*
X57397650Y-70326250D03*
X42157650Y-67786250D03*
X42614850Y-65246250D03*
X42157650Y-62706250D03*
X42614850Y-60166250D03*
X42157650Y-57626250D03*
X42614850Y-55086250D03*
X42157650Y-52546250D03*
X42614850Y-50006250D03*
X42157650Y-47466250D03*
X42614850Y-44926250D03*
D24*
X42157650Y-42386250D03*
D25*
X47506250Y-130031250D03*
X52506250Y-130031250D03*
D26*
X44406250Y-123031250D03*
X55606250Y-123031250D03*
D25*
X47506250Y-115531250D03*
X50006250Y-115531250D03*
D27*
X52506250Y-115531250D03*
D18*
X109676250Y-119828750D03*
D19*
X109656250Y-120118750D02*
X109696250Y-119538750D01*
D18*
X109696250Y-119538750D03*
X104001251Y-121348750D03*
D19*
X103346250Y-122078750D02*
X104656252Y-120618750D01*
D20*
X107156250Y-124618750D03*
D18*
X104656250Y-120618750D03*
D21*
X102076250Y-124618750D03*
X112236250Y-124618750D03*
D18*
X90626250Y-119828750D03*
D19*
X90606250Y-120118750D02*
X90646250Y-119538750D01*
D18*
X90646250Y-119538750D03*
X84951251Y-121348750D03*
D19*
X84296250Y-122078750D02*
X85606252Y-120618750D01*
D20*
X88106250Y-124618750D03*
D18*
X85606250Y-120618750D03*
D21*
X83026250Y-124618750D03*
X93186250Y-124618750D03*
D18*
X71576250Y-119828750D03*
D19*
X71556250Y-120118750D02*
X71596250Y-119538750D01*
D18*
X71596250Y-119538750D03*
X65901251Y-121348750D03*
D19*
X65246250Y-122078750D02*
X66556252Y-120618750D01*
D20*
X69056250Y-124618750D03*
D18*
X66556250Y-120618750D03*
D21*
X63976250Y-124618750D03*
X74136250Y-124618750D03*
D18*
X109676250Y-100778750D03*
D19*
X109656250Y-101068750D02*
X109696250Y-100488750D01*
D18*
X109696250Y-100488750D03*
X104001251Y-102298750D03*
D19*
X103346250Y-103028750D02*
X104656252Y-101568750D01*
D20*
X107156250Y-105568750D03*
D18*
X104656250Y-101568750D03*
D21*
X102076250Y-105568750D03*
X112236250Y-105568750D03*
D18*
X90626250Y-100778750D03*
D19*
X90606250Y-101068750D02*
X90646250Y-100488750D01*
D18*
X90646250Y-100488750D03*
X84951251Y-102298750D03*
D19*
X84296250Y-103028750D02*
X85606252Y-101568750D01*
D20*
X88106250Y-105568750D03*
D18*
X85606250Y-101568750D03*
D21*
X83026250Y-105568750D03*
X93186250Y-105568750D03*
D18*
X71576250Y-100778750D03*
D19*
X71556250Y-101068750D02*
X71596250Y-100488750D01*
D18*
X71596250Y-100488750D03*
X65901251Y-102298750D03*
D19*
X65246250Y-103028750D02*
X66556252Y-101568750D01*
D20*
X69056250Y-105568750D03*
D18*
X66556250Y-101568750D03*
D21*
X63976250Y-105568750D03*
X74136250Y-105568750D03*
D18*
X109676250Y-81728750D03*
D19*
X109656250Y-82018750D02*
X109696250Y-81438750D01*
D18*
X109696250Y-81438750D03*
X104001251Y-83248750D03*
D19*
X103346250Y-83978750D02*
X104656252Y-82518750D01*
D20*
X107156250Y-86518750D03*
D18*
X104656250Y-82518750D03*
D21*
X102076250Y-86518750D03*
X112236250Y-86518750D03*
D18*
X90626250Y-81728750D03*
D19*
X90606250Y-82018750D02*
X90646250Y-81438750D01*
D18*
X90646250Y-81438750D03*
X84951251Y-83248750D03*
D19*
X84296250Y-83978750D02*
X85606252Y-82518750D01*
D20*
X88106250Y-86518750D03*
D18*
X85606250Y-82518750D03*
D21*
X83026250Y-86518750D03*
X93186250Y-86518750D03*
D18*
X71576250Y-81728750D03*
D19*
X71556250Y-82018750D02*
X71596250Y-81438750D01*
D18*
X71596250Y-81438750D03*
X65901251Y-83248750D03*
D19*
X65246250Y-83978750D02*
X66556252Y-82518750D01*
D20*
X69056250Y-86518750D03*
D18*
X66556250Y-82518750D03*
D21*
X63976250Y-86518750D03*
X74136250Y-86518750D03*
D18*
X109676250Y-62678750D03*
D19*
X109656250Y-62968750D02*
X109696250Y-62388750D01*
D18*
X109696250Y-62388750D03*
X104001251Y-64198750D03*
D19*
X103346250Y-64928750D02*
X104656252Y-63468750D01*
D20*
X107156250Y-67468750D03*
D18*
X104656250Y-63468750D03*
D21*
X102076250Y-67468750D03*
X112236250Y-67468750D03*
D18*
X90626250Y-62678750D03*
D19*
X90606250Y-62968750D02*
X90646250Y-62388750D01*
D18*
X90646250Y-62388750D03*
X84951251Y-64198750D03*
D19*
X84296250Y-64928750D02*
X85606252Y-63468750D01*
D20*
X88106250Y-67468750D03*
D18*
X85606250Y-63468750D03*
D21*
X83026250Y-67468750D03*
X93186250Y-67468750D03*
D18*
X71576250Y-62678750D03*
D19*
X71556250Y-62968750D02*
X71596250Y-62388750D01*
D18*
X71596250Y-62388750D03*
X65901251Y-64198750D03*
D19*
X65246250Y-64928750D02*
X66556252Y-63468750D01*
D20*
X69056250Y-67468750D03*
D18*
X66556250Y-63468750D03*
D21*
X63976250Y-67468750D03*
X74136250Y-67468750D03*
D18*
X128726250Y-43628750D03*
D19*
X128706250Y-43918750D02*
X128746250Y-43338750D01*
D18*
X128746250Y-43338750D03*
X123051251Y-45148750D03*
D19*
X122396250Y-45878750D02*
X123706252Y-44418750D01*
D20*
X126206250Y-48418750D03*
D18*
X123706250Y-44418750D03*
D21*
X121126250Y-48418750D03*
X131286250Y-48418750D03*
D18*
X109676250Y-43628750D03*
D19*
X109656250Y-43918750D02*
X109696250Y-43338750D01*
D18*
X109696250Y-43338750D03*
X104001251Y-45148750D03*
D19*
X103346250Y-45878750D02*
X104656252Y-44418750D01*
D20*
X107156250Y-48418750D03*
D18*
X104656250Y-44418750D03*
D21*
X102076250Y-48418750D03*
X112236250Y-48418750D03*
D18*
X90626250Y-43628750D03*
D19*
X90606250Y-43918750D02*
X90646250Y-43338750D01*
D18*
X90646250Y-43338750D03*
X84951251Y-45148750D03*
D19*
X84296250Y-45878750D02*
X85606252Y-44418750D01*
D20*
X88106250Y-48418750D03*
D18*
X85606250Y-44418750D03*
D21*
X83026250Y-48418750D03*
X93186250Y-48418750D03*
D18*
X71576250Y-43628750D03*
D19*
X71556250Y-43918750D02*
X71596250Y-43338750D01*
D18*
X71596250Y-43338750D03*
X65901251Y-45148750D03*
D19*
X65246250Y-45878750D02*
X66556252Y-44418750D01*
D20*
X69056250Y-48418750D03*
D18*
X66556250Y-44418750D03*
D21*
X63976250Y-48418750D03*
X74136250Y-48418750D03*
M02*
